%FSDAX23Y23*%
%MOIN*%
%SFA1B1*%

%IPPOS*%
%ADD75C,0.002000*%
%ADD76C,0.002700*%
%LNde-160516-1*%
%LPD*%
G54D75*
X03897Y01845D02*
Y01861D01*
X03913*
Y01845*
X03897*
Y01727D02*
Y01743D01*
X03913*
Y01727*
X03897*
X03267Y01845D02*
Y01861D01*
X03283*
Y01845*
X03267*
Y01727D02*
Y01743D01*
X03283*
Y01727*
X03267*
X04452Y04814D02*
X04444Y04830D01*
X04460*
X04452Y04814*
X04450Y01827D02*
X04442Y01843D01*
X04458*
X04450Y01827*
X01869Y03322D02*
X01861Y03338D01*
X01877*
X01869Y03322*
X03100Y03592D02*
X03104Y03596D01*
X03108*
X03104Y03600*
X03108Y03604*
X03104*
X03100Y03608*
X03096Y03604*
X03092*
X03096Y03600*
X03092Y03596*
X03096*
X03100Y03592*
Y03691D02*
X03104Y03695D01*
X03108*
X03104Y03699*
X03108Y03703*
X03104*
X03100Y03707*
X03096Y03703*
X03092*
X03096Y03699*
X03092Y03695*
X03096*
X03100Y03691*
X02772Y03341D02*
X02776Y03349D01*
X02772Y03357*
X02780Y03353*
X02788Y03357*
X02784Y03349*
X02788Y03341*
X02780Y03345*
X02772Y03341*
Y03242D02*
X02776Y03250D01*
X02772Y03258*
X02780Y03254*
X02788Y03258*
X02784Y03250*
X02788Y03242*
X02780Y03246*
X02772Y03242*
X02780Y03592D02*
X02784Y03596D01*
X02788*
X02784Y03600*
X02788Y03604*
X02784*
X02780Y03608*
X02776Y03604*
X02772*
X02776Y03600*
X02772Y03596*
X02776*
X02780Y03592*
Y03691D02*
X02784Y03695D01*
X02788*
X02784Y03699*
X02788Y03703*
X02784*
X02780Y03707*
X02776Y03703*
X02772*
X02776Y03699*
X02772Y03695*
X02776*
X02780Y03691*
X03056Y04933D02*
Y04929D01*
X03064*
Y04933*
X03068*
Y04941*
X03064*
Y04945*
X03056*
Y04941*
X03052*
Y04933*
X03056*
Y04518D02*
Y04514D01*
X03064*
Y04518*
X03068*
Y04526*
X03064*
Y04530*
X03056*
Y04526*
X03052*
Y04518*
X03056*
X04096Y04933D02*
Y04929D01*
X04104*
Y04933*
X04108*
Y04941*
X04104*
Y04945*
X04096*
Y04941*
X04092*
Y04933*
X04096*
Y04518D02*
Y04514D01*
X04104*
Y04518*
X04108*
Y04526*
X04104*
Y04530*
X04096*
Y04526*
X04092*
Y04518*
X04096*
X03082Y03341D02*
X03086Y03349D01*
X03082Y03357*
X03090Y03353*
X03098Y03357*
X03094Y03349*
X03098Y03341*
X03090Y03345*
X03082Y03341*
Y03242D02*
X03086Y03250D01*
X03082Y03258*
X03090Y03254*
X03098Y03258*
X03094Y03250*
X03098Y03242*
X03090Y03246*
X03082Y03242*
X02912Y02972D02*
X02916D01*
X02920Y02976*
X02924Y02972*
X02928*
Y02976*
X02924Y02980*
X02928Y02984*
Y02988*
X02924*
X02920Y02984*
X02916Y02988*
X02912*
Y02984*
X02916Y02980*
X02912Y02976*
Y02972*
X02642Y04062D02*
X02646D01*
X02650Y04066*
X02654Y04062*
X02658*
Y04066*
X02654Y04070*
X02658Y04074*
Y04078*
X02654*
X02650Y04074*
X02646Y04078*
X02642*
Y04074*
X02646Y04070*
X02642Y04066*
Y04062*
X02092Y03512D02*
X02096D01*
X02100Y03516*
X02104Y03512*
X02108*
Y03516*
X02104Y03520*
X02108Y03524*
Y03528*
X02104*
X02100Y03524*
X02096Y03528*
X02092*
Y03524*
X02096Y03520*
X02092Y03516*
Y03512*
X03702Y02862D02*
X03706D01*
X03710Y02866*
X03714Y02862*
X03718*
Y02866*
X03714Y02870*
X03718Y02874*
Y02878*
X03714*
X03710Y02874*
X03706Y02878*
X03702*
Y02874*
X03706Y02870*
X03702Y02866*
Y02862*
X03202Y02552D02*
X03206D01*
X03210Y02556*
X03214Y02552*
X03218*
Y02556*
X03214Y02560*
X03218Y02564*
Y02568*
X03214*
X03210Y02564*
X03206Y02568*
X03202*
Y02564*
X03206Y02560*
X03202Y02556*
Y02552*
X03212Y02382D02*
X03216D01*
X03220Y02386*
X03224Y02382*
X03228*
Y02386*
X03224Y02390*
X03228Y02394*
Y02398*
X03224*
X03220Y02394*
X03216Y02398*
X03212*
Y02394*
X03216Y02390*
X03212Y02386*
Y02382*
X02542Y02772D02*
X02546D01*
X02550Y02776*
X02554Y02772*
X02558*
Y02776*
X02554Y02780*
X02558Y02784*
Y02788*
X02554*
X02550Y02784*
X02546Y02788*
X02542*
Y02784*
X02546Y02780*
X02542Y02776*
Y02772*
Y03342D02*
X02546D01*
X02550Y03346*
X02554Y03342*
X02558*
Y03346*
X02554Y03350*
X02558Y03354*
Y03358*
X02554*
X02550Y03354*
X02546Y03358*
X02542*
Y03354*
X02546Y03350*
X02542Y03346*
Y03342*
X04082Y03642D02*
X04086D01*
X04090Y03646*
X04094Y03642*
X04098*
Y03646*
X04094Y03650*
X04098Y03654*
Y03658*
X04094*
X04090Y03654*
X04086Y03658*
X04082*
Y03654*
X04086Y03650*
X04082Y03646*
Y03642*
X04022Y03712D02*
X04026D01*
X04030Y03716*
X04034Y03712*
X04038*
Y03716*
X04034Y03720*
X04038Y03724*
Y03728*
X04034*
X04030Y03724*
X04026Y03728*
X04022*
Y03724*
X04026Y03720*
X04022Y03716*
Y03712*
X03382Y03492D02*
X03386D01*
X03390Y03496*
X03394Y03492*
X03398*
Y03496*
X03394Y03500*
X03398Y03504*
Y03508*
X03394*
X03390Y03504*
X03386Y03508*
X03382*
Y03504*
X03386Y03500*
X03382Y03496*
Y03492*
X03322Y03189D02*
X03326D01*
X03330Y03193*
X03334Y03189*
X03338*
Y03193*
X03334Y03197*
X03338Y03201*
Y03205*
X03334*
X03330Y03201*
X03326Y03205*
X03322*
Y03201*
X03326Y03197*
X03322Y03193*
Y03189*
X02422Y02552D02*
X02426D01*
X02430Y02556*
X02434Y02552*
X02438*
Y02556*
X02434Y02560*
X02438Y02564*
Y02568*
X02434*
X02430Y02564*
X02426Y02568*
X02422*
Y02564*
X02426Y02560*
X02422Y02556*
Y02552*
X02462Y02362D02*
X02466D01*
X02470Y02366*
X02474Y02362*
X02478*
Y02366*
X02474Y02370*
X02478Y02374*
Y02378*
X02474*
X02470Y02374*
X02466Y02378*
X02462*
Y02374*
X02466Y02370*
X02462Y02366*
Y02362*
X02522D02*
X02526D01*
X02530Y02366*
X02534Y02362*
X02538*
Y02366*
X02534Y02370*
X02538Y02374*
Y02378*
X02534*
X02530Y02374*
X02526Y02378*
X02522*
Y02374*
X02526Y02370*
X02522Y02366*
Y02362*
X03552Y02462D02*
X03556D01*
X03560Y02466*
X03564Y02462*
X03568*
Y02466*
X03564Y02470*
X03568Y02474*
Y02478*
X03564*
X03560Y02474*
X03556Y02478*
X03552*
Y02474*
X03556Y02470*
X03552Y02466*
Y02462*
X03482Y02432D02*
X03486D01*
X03490Y02436*
X03494Y02432*
X03498*
Y02436*
X03494Y02440*
X03498Y02444*
Y02448*
X03494*
X03490Y02444*
X03486Y02448*
X03482*
Y02444*
X03486Y02440*
X03482Y02436*
Y02432*
X03762Y03275D02*
X03766D01*
X03770Y03279*
X03774Y03275*
X03778*
Y03279*
X03774Y03283*
X03778Y03287*
Y03291*
X03774*
X03770Y03287*
X03766Y03291*
X03762*
Y03287*
X03766Y03283*
X03762Y03279*
Y03275*
X03482Y01922D02*
X03486D01*
X03490Y01926*
X03494Y01922*
X03498*
Y01926*
X03494Y01930*
X03498Y01934*
Y01938*
X03494*
X03490Y01934*
X03486Y01938*
X03482*
Y01934*
X03486Y01930*
X03482Y01926*
Y01922*
X03552Y02202D02*
X03556D01*
X03560Y02206*
X03564Y02202*
X03568*
Y02206*
X03564Y02210*
X03568Y02214*
Y02218*
X03564*
X03560Y02214*
X03556Y02218*
X03552*
Y02214*
X03556Y02210*
X03552Y02206*
Y02202*
X03482Y02162D02*
X03486D01*
X03490Y02166*
X03494Y02162*
X03498*
Y02166*
X03494Y02170*
X03498Y02174*
Y02178*
X03494*
X03490Y02174*
X03486Y02178*
X03482*
Y02174*
X03486Y02170*
X03482Y02166*
Y02162*
X03202D02*
X03206D01*
X03210Y02166*
X03214Y02162*
X03218*
Y02166*
X03214Y02170*
X03218Y02174*
Y02178*
X03214*
X03210Y02174*
X03206Y02178*
X03202*
Y02174*
X03206Y02170*
X03202Y02166*
Y02162*
X03412Y02712D02*
X03416D01*
X03420Y02716*
X03424Y02712*
X03428*
Y02716*
X03424Y02720*
X03428Y02724*
Y02728*
X03424*
X03420Y02724*
X03416Y02728*
X03412*
Y02724*
X03416Y02720*
X03412Y02716*
Y02712*
Y02772D02*
X03416D01*
X03420Y02776*
X03424Y02772*
X03428*
Y02776*
X03424Y02780*
X03428Y02784*
Y02788*
X03424*
X03420Y02784*
X03416Y02788*
X03412*
Y02784*
X03416Y02780*
X03412Y02776*
Y02772*
X03702Y03502D02*
X03706D01*
X03710Y03506*
X03714Y03502*
X03718*
Y03506*
X03714Y03510*
X03718Y03514*
Y03518*
X03714*
X03710Y03514*
X03706Y03518*
X03702*
Y03514*
X03706Y03510*
X03702Y03506*
Y03502*
X03582D02*
X03586D01*
X03590Y03506*
X03594Y03502*
X03598*
Y03506*
X03594Y03510*
X03598Y03514*
Y03518*
X03594*
X03590Y03514*
X03586Y03518*
X03582*
Y03514*
X03586Y03510*
X03582Y03506*
Y03502*
G54D76*
X03548Y02690D02*
D01*
X03547Y02690*
X03547Y02691*
X03547Y02691*
X03547Y02692*
X03547Y02692*
X03547Y02693*
X03547Y02693*
X03546Y02694*
X03546Y02694*
X03546Y02695*
X03545Y02695*
X03545Y02695*
X03544Y02696*
X03544Y02696*
X03544Y02696*
X03543Y02697*
X03542Y02697*
X03542Y02697*
X03541Y02697*
X03541Y02697*
X03540Y02697*
X03540Y02697*
X03539*
X03539Y02697*
X03538Y02697*
X03538Y02697*
X03537Y02697*
X03537Y02697*
X03536Y02697*
X03536Y02696*
X03535Y02696*
X03535Y02696*
X03534Y02695*
X03534Y02695*
X03533Y02695*
X03533Y02694*
X03533Y02694*
X03532Y02693*
X03532Y02693*
X03532Y02692*
X03532Y02692*
X03532Y02691*
X03532Y02691*
X03532Y02690*
X03532Y02690*
X03532Y02689*
X03532Y02688*
X03532Y02688*
X03532Y02687*
X03532Y02687*
X03532Y02686*
X03532Y02686*
X03533Y02685*
X03533Y02685*
X03533Y02684*
X03534Y02684*
X03534Y02684*
X03535Y02683*
X03535Y02683*
X03536Y02683*
X03536Y02682*
X03537Y02682*
X03537Y02682*
X03538Y02682*
X03538Y02682*
X03539Y02682*
X03539Y02682*
X03540*
X03540Y02682*
X03541Y02682*
X03541Y02682*
X03542Y02682*
X03542Y02682*
X03543Y02682*
X03544Y02683*
X03544Y02683*
X03544Y02683*
X03545Y02684*
X03545Y02684*
X03546Y02684*
X03546Y02685*
X03546Y02685*
X03547Y02686*
X03547Y02686*
X03547Y02687*
X03547Y02687*
X03547Y02688*
X03547Y02688*
X03547Y02689*
X03548Y02690*
X03648D02*
D01*
X03647Y02690*
X03647Y02691*
X03647Y02691*
X03647Y02692*
X03647Y02692*
X03647Y02693*
X03647Y02693*
X03646Y02694*
X03646Y02694*
X03646Y02695*
X03645Y02695*
X03645Y02695*
X03644Y02696*
X03644Y02696*
X03644Y02696*
X03643Y02697*
X03642Y02697*
X03642Y02697*
X03641Y02697*
X03641Y02697*
X03640Y02697*
X03640Y02697*
X03639*
X03639Y02697*
X03638Y02697*
X03638Y02697*
X03637Y02697*
X03637Y02697*
X03636Y02697*
X03636Y02696*
X03635Y02696*
X03635Y02696*
X03634Y02695*
X03634Y02695*
X03633Y02695*
X03633Y02694*
X03633Y02694*
X03632Y02693*
X03632Y02693*
X03632Y02692*
X03632Y02692*
X03632Y02691*
X03632Y02691*
X03632Y02690*
X03632Y02690*
X03632Y02689*
X03632Y02688*
X03632Y02688*
X03632Y02687*
X03632Y02687*
X03632Y02686*
X03632Y02686*
X03633Y02685*
X03633Y02685*
X03633Y02684*
X03634Y02684*
X03634Y02684*
X03635Y02683*
X03635Y02683*
X03636Y02683*
X03636Y02682*
X03637Y02682*
X03637Y02682*
X03638Y02682*
X03638Y02682*
X03639Y02682*
X03639Y02682*
X03640*
X03640Y02682*
X03641Y02682*
X03641Y02682*
X03642Y02682*
X03642Y02682*
X03643Y02682*
X03644Y02683*
X03644Y02683*
X03644Y02683*
X03645Y02684*
X03645Y02684*
X03646Y02684*
X03646Y02685*
X03646Y02685*
X03647Y02686*
X03647Y02686*
X03647Y02687*
X03647Y02687*
X03647Y02688*
X03647Y02688*
X03647Y02689*
X03648Y02690*
X04648Y02800D02*
D01*
X04647Y02800*
X04647Y02801*
X04647Y02801*
X04647Y02802*
X04647Y02802*
X04647Y02803*
X04647Y02803*
X04646Y02804*
X04646Y02804*
X04646Y02805*
X04645Y02805*
X04645Y02805*
X04644Y02806*
X04644Y02806*
X04644Y02806*
X04643Y02807*
X04642Y02807*
X04642Y02807*
X04641Y02807*
X04641Y02807*
X04640Y02807*
X04640Y02807*
X04639*
X04639Y02807*
X04638Y02807*
X04638Y02807*
X04637Y02807*
X04637Y02807*
X04636Y02807*
X04636Y02806*
X04635Y02806*
X04635Y02806*
X04634Y02805*
X04634Y02805*
X04633Y02805*
X04633Y02804*
X04633Y02804*
X04632Y02803*
X04632Y02803*
X04632Y02802*
X04632Y02802*
X04632Y02801*
X04632Y02801*
X04632Y02800*
X04632Y02800*
X04632Y02799*
X04632Y02798*
X04632Y02798*
X04632Y02797*
X04632Y02797*
X04632Y02796*
X04632Y02796*
X04633Y02795*
X04633Y02795*
X04633Y02794*
X04634Y02794*
X04634Y02794*
X04635Y02793*
X04635Y02793*
X04636Y02793*
X04636Y02792*
X04637Y02792*
X04637Y02792*
X04638Y02792*
X04638Y02792*
X04639Y02792*
X04639Y02792*
X04640*
X04640Y02792*
X04641Y02792*
X04641Y02792*
X04642Y02792*
X04642Y02792*
X04643Y02792*
X04644Y02793*
X04644Y02793*
X04644Y02793*
X04645Y02794*
X04645Y02794*
X04646Y02794*
X04646Y02795*
X04646Y02795*
X04647Y02796*
X04647Y02796*
X04647Y02797*
X04647Y02797*
X04647Y02798*
X04647Y02798*
X04647Y02799*
X04648Y02800*
X04548D02*
D01*
X04547Y02800*
X04547Y02801*
X04547Y02801*
X04547Y02802*
X04547Y02802*
X04547Y02803*
X04547Y02803*
X04546Y02804*
X04546Y02804*
X04546Y02805*
X04545Y02805*
X04545Y02805*
X04544Y02806*
X04544Y02806*
X04544Y02806*
X04543Y02807*
X04542Y02807*
X04542Y02807*
X04541Y02807*
X04541Y02807*
X04540Y02807*
X04540Y02807*
X04539*
X04539Y02807*
X04538Y02807*
X04538Y02807*
X04537Y02807*
X04537Y02807*
X04536Y02807*
X04536Y02806*
X04535Y02806*
X04535Y02806*
X04534Y02805*
X04534Y02805*
X04533Y02805*
X04533Y02804*
X04533Y02804*
X04532Y02803*
X04532Y02803*
X04532Y02802*
X04532Y02802*
X04532Y02801*
X04532Y02801*
X04532Y02800*
X04532Y02800*
X04532Y02799*
X04532Y02798*
X04532Y02798*
X04532Y02797*
X04532Y02797*
X04532Y02796*
X04532Y02796*
X04533Y02795*
X04533Y02795*
X04533Y02794*
X04534Y02794*
X04534Y02794*
X04535Y02793*
X04535Y02793*
X04536Y02793*
X04536Y02792*
X04537Y02792*
X04537Y02792*
X04538Y02792*
X04538Y02792*
X04539Y02792*
X04539Y02792*
X04540*
X04540Y02792*
X04541Y02792*
X04541Y02792*
X04542Y02792*
X04542Y02792*
X04543Y02792*
X04544Y02793*
X04544Y02793*
X04544Y02793*
X04545Y02794*
X04545Y02794*
X04546Y02794*
X04546Y02795*
X04546Y02795*
X04547Y02796*
X04547Y02796*
X04547Y02797*
X04547Y02797*
X04547Y02798*
X04547Y02798*
X04547Y02799*
X04548Y02800*
X04448D02*
D01*
X04447Y02800*
X04447Y02801*
X04447Y02801*
X04447Y02802*
X04447Y02802*
X04447Y02803*
X04447Y02803*
X04446Y02804*
X04446Y02804*
X04446Y02805*
X04445Y02805*
X04445Y02805*
X04444Y02806*
X04444Y02806*
X04444Y02806*
X04443Y02807*
X04442Y02807*
X04442Y02807*
X04441Y02807*
X04441Y02807*
X04440Y02807*
X04440Y02807*
X04439*
X04439Y02807*
X04438Y02807*
X04438Y02807*
X04437Y02807*
X04437Y02807*
X04436Y02807*
X04436Y02806*
X04435Y02806*
X04435Y02806*
X04434Y02805*
X04434Y02805*
X04433Y02805*
X04433Y02804*
X04433Y02804*
X04432Y02803*
X04432Y02803*
X04432Y02802*
X04432Y02802*
X04432Y02801*
X04432Y02801*
X04432Y02800*
X04432Y02800*
X04432Y02799*
X04432Y02798*
X04432Y02798*
X04432Y02797*
X04432Y02797*
X04432Y02796*
X04432Y02796*
X04433Y02795*
X04433Y02795*
X04433Y02794*
X04434Y02794*
X04434Y02794*
X04435Y02793*
X04435Y02793*
X04436Y02793*
X04436Y02792*
X04437Y02792*
X04437Y02792*
X04438Y02792*
X04438Y02792*
X04439Y02792*
X04439Y02792*
X04440*
X04440Y02792*
X04441Y02792*
X04441Y02792*
X04442Y02792*
X04442Y02792*
X04443Y02792*
X04444Y02793*
X04444Y02793*
X04444Y02793*
X04445Y02794*
X04445Y02794*
X04446Y02794*
X04446Y02795*
X04446Y02795*
X04447Y02796*
X04447Y02796*
X04447Y02797*
X04447Y02797*
X04447Y02798*
X04447Y02798*
X04447Y02799*
X04448Y02800*
X04348D02*
D01*
X04347Y02800*
X04347Y02801*
X04347Y02801*
X04347Y02802*
X04347Y02802*
X04347Y02803*
X04347Y02803*
X04346Y02804*
X04346Y02804*
X04346Y02805*
X04345Y02805*
X04345Y02805*
X04344Y02806*
X04344Y02806*
X04344Y02806*
X04343Y02807*
X04342Y02807*
X04342Y02807*
X04341Y02807*
X04341Y02807*
X04340Y02807*
X04340Y02807*
X04339*
X04339Y02807*
X04338Y02807*
X04338Y02807*
X04337Y02807*
X04337Y02807*
X04336Y02807*
X04336Y02806*
X04335Y02806*
X04335Y02806*
X04334Y02805*
X04334Y02805*
X04333Y02805*
X04333Y02804*
X04333Y02804*
X04332Y02803*
X04332Y02803*
X04332Y02802*
X04332Y02802*
X04332Y02801*
X04332Y02801*
X04332Y02800*
X04332Y02800*
X04332Y02799*
X04332Y02798*
X04332Y02798*
X04332Y02797*
X04332Y02797*
X04332Y02796*
X04332Y02796*
X04333Y02795*
X04333Y02795*
X04333Y02794*
X04334Y02794*
X04334Y02794*
X04335Y02793*
X04335Y02793*
X04336Y02793*
X04336Y02792*
X04337Y02792*
X04337Y02792*
X04338Y02792*
X04338Y02792*
X04339Y02792*
X04339Y02792*
X04340*
X04340Y02792*
X04341Y02792*
X04341Y02792*
X04342Y02792*
X04342Y02792*
X04343Y02792*
X04344Y02793*
X04344Y02793*
X04344Y02793*
X04345Y02794*
X04345Y02794*
X04346Y02794*
X04346Y02795*
X04346Y02795*
X04347Y02796*
X04347Y02796*
X04347Y02797*
X04347Y02797*
X04347Y02798*
X04347Y02798*
X04347Y02799*
X04348Y02800*
X04248D02*
D01*
X04247Y02800*
X04247Y02801*
X04247Y02801*
X04247Y02802*
X04247Y02802*
X04247Y02803*
X04247Y02803*
X04246Y02804*
X04246Y02804*
X04246Y02805*
X04245Y02805*
X04245Y02805*
X04244Y02806*
X04244Y02806*
X04244Y02806*
X04243Y02807*
X04242Y02807*
X04242Y02807*
X04241Y02807*
X04241Y02807*
X04240Y02807*
X04240Y02807*
X04239*
X04239Y02807*
X04238Y02807*
X04238Y02807*
X04237Y02807*
X04237Y02807*
X04236Y02807*
X04236Y02806*
X04235Y02806*
X04235Y02806*
X04234Y02805*
X04234Y02805*
X04233Y02805*
X04233Y02804*
X04233Y02804*
X04232Y02803*
X04232Y02803*
X04232Y02802*
X04232Y02802*
X04232Y02801*
X04232Y02801*
X04232Y02800*
X04232Y02800*
X04232Y02799*
X04232Y02798*
X04232Y02798*
X04232Y02797*
X04232Y02797*
X04232Y02796*
X04232Y02796*
X04233Y02795*
X04233Y02795*
X04233Y02794*
X04234Y02794*
X04234Y02794*
X04235Y02793*
X04235Y02793*
X04236Y02793*
X04236Y02792*
X04237Y02792*
X04237Y02792*
X04238Y02792*
X04238Y02792*
X04239Y02792*
X04239Y02792*
X04240*
X04240Y02792*
X04241Y02792*
X04241Y02792*
X04242Y02792*
X04242Y02792*
X04243Y02792*
X04244Y02793*
X04244Y02793*
X04244Y02793*
X04245Y02794*
X04245Y02794*
X04246Y02794*
X04246Y02795*
X04246Y02795*
X04247Y02796*
X04247Y02796*
X04247Y02797*
X04247Y02797*
X04247Y02798*
X04247Y02798*
X04247Y02799*
X04248Y02800*
X04148D02*
D01*
X04147Y02800*
X04147Y02801*
X04147Y02801*
X04147Y02802*
X04147Y02802*
X04147Y02803*
X04147Y02803*
X04146Y02804*
X04146Y02804*
X04146Y02805*
X04145Y02805*
X04145Y02805*
X04144Y02806*
X04144Y02806*
X04144Y02806*
X04143Y02807*
X04142Y02807*
X04142Y02807*
X04141Y02807*
X04141Y02807*
X04140Y02807*
X04140Y02807*
X04139*
X04139Y02807*
X04138Y02807*
X04138Y02807*
X04137Y02807*
X04137Y02807*
X04136Y02807*
X04136Y02806*
X04135Y02806*
X04135Y02806*
X04134Y02805*
X04134Y02805*
X04133Y02805*
X04133Y02804*
X04133Y02804*
X04132Y02803*
X04132Y02803*
X04132Y02802*
X04132Y02802*
X04132Y02801*
X04132Y02801*
X04132Y02800*
X04132Y02800*
X04132Y02799*
X04132Y02798*
X04132Y02798*
X04132Y02797*
X04132Y02797*
X04132Y02796*
X04132Y02796*
X04133Y02795*
X04133Y02795*
X04133Y02794*
X04134Y02794*
X04134Y02794*
X04135Y02793*
X04135Y02793*
X04136Y02793*
X04136Y02792*
X04137Y02792*
X04137Y02792*
X04138Y02792*
X04138Y02792*
X04139Y02792*
X04139Y02792*
X04140*
X04140Y02792*
X04141Y02792*
X04141Y02792*
X04142Y02792*
X04142Y02792*
X04143Y02792*
X04144Y02793*
X04144Y02793*
X04144Y02793*
X04145Y02794*
X04145Y02794*
X04146Y02794*
X04146Y02795*
X04146Y02795*
X04147Y02796*
X04147Y02796*
X04147Y02797*
X04147Y02797*
X04147Y02798*
X04147Y02798*
X04147Y02799*
X04148Y02800*
X04048D02*
D01*
X04047Y02800*
X04047Y02801*
X04047Y02801*
X04047Y02802*
X04047Y02802*
X04047Y02803*
X04047Y02803*
X04046Y02804*
X04046Y02804*
X04046Y02805*
X04045Y02805*
X04045Y02805*
X04044Y02806*
X04044Y02806*
X04044Y02806*
X04043Y02807*
X04042Y02807*
X04042Y02807*
X04041Y02807*
X04041Y02807*
X04040Y02807*
X04040Y02807*
X04039*
X04039Y02807*
X04038Y02807*
X04038Y02807*
X04037Y02807*
X04037Y02807*
X04036Y02807*
X04036Y02806*
X04035Y02806*
X04035Y02806*
X04034Y02805*
X04034Y02805*
X04033Y02805*
X04033Y02804*
X04033Y02804*
X04032Y02803*
X04032Y02803*
X04032Y02802*
X04032Y02802*
X04032Y02801*
X04032Y02801*
X04032Y02800*
X04032Y02800*
X04032Y02799*
X04032Y02798*
X04032Y02798*
X04032Y02797*
X04032Y02797*
X04032Y02796*
X04032Y02796*
X04033Y02795*
X04033Y02795*
X04033Y02794*
X04034Y02794*
X04034Y02794*
X04035Y02793*
X04035Y02793*
X04036Y02793*
X04036Y02792*
X04037Y02792*
X04037Y02792*
X04038Y02792*
X04038Y02792*
X04039Y02792*
X04039Y02792*
X04040*
X04040Y02792*
X04041Y02792*
X04041Y02792*
X04042Y02792*
X04042Y02792*
X04043Y02792*
X04044Y02793*
X04044Y02793*
X04044Y02793*
X04045Y02794*
X04045Y02794*
X04046Y02794*
X04046Y02795*
X04046Y02795*
X04047Y02796*
X04047Y02796*
X04047Y02797*
X04047Y02797*
X04047Y02798*
X04047Y02798*
X04047Y02799*
X04048Y02800*
X03948D02*
D01*
X03947Y02800*
X03947Y02801*
X03947Y02801*
X03947Y02802*
X03947Y02802*
X03947Y02803*
X03947Y02803*
X03946Y02804*
X03946Y02804*
X03946Y02805*
X03945Y02805*
X03945Y02805*
X03944Y02806*
X03944Y02806*
X03944Y02806*
X03943Y02807*
X03942Y02807*
X03942Y02807*
X03941Y02807*
X03941Y02807*
X03940Y02807*
X03940Y02807*
X03939*
X03939Y02807*
X03938Y02807*
X03938Y02807*
X03937Y02807*
X03937Y02807*
X03936Y02807*
X03936Y02806*
X03935Y02806*
X03935Y02806*
X03934Y02805*
X03934Y02805*
X03933Y02805*
X03933Y02804*
X03933Y02804*
X03932Y02803*
X03932Y02803*
X03932Y02802*
X03932Y02802*
X03932Y02801*
X03932Y02801*
X03932Y02800*
X03932Y02800*
X03932Y02799*
X03932Y02798*
X03932Y02798*
X03932Y02797*
X03932Y02797*
X03932Y02796*
X03932Y02796*
X03933Y02795*
X03933Y02795*
X03933Y02794*
X03934Y02794*
X03934Y02794*
X03935Y02793*
X03935Y02793*
X03936Y02793*
X03936Y02792*
X03937Y02792*
X03937Y02792*
X03938Y02792*
X03938Y02792*
X03939Y02792*
X03939Y02792*
X03940*
X03940Y02792*
X03941Y02792*
X03941Y02792*
X03942Y02792*
X03942Y02792*
X03943Y02792*
X03944Y02793*
X03944Y02793*
X03944Y02793*
X03945Y02794*
X03945Y02794*
X03946Y02794*
X03946Y02795*
X03946Y02795*
X03947Y02796*
X03947Y02796*
X03947Y02797*
X03947Y02797*
X03947Y02798*
X03947Y02798*
X03947Y02799*
X03948Y02800*
X04648Y02500D02*
D01*
X04647Y02500*
X04647Y02501*
X04647Y02501*
X04647Y02502*
X04647Y02502*
X04647Y02503*
X04647Y02503*
X04646Y02504*
X04646Y02504*
X04646Y02505*
X04645Y02505*
X04645Y02505*
X04644Y02506*
X04644Y02506*
X04644Y02506*
X04643Y02507*
X04642Y02507*
X04642Y02507*
X04641Y02507*
X04641Y02507*
X04640Y02507*
X04640Y02507*
X04639*
X04639Y02507*
X04638Y02507*
X04638Y02507*
X04637Y02507*
X04637Y02507*
X04636Y02507*
X04636Y02506*
X04635Y02506*
X04635Y02506*
X04634Y02505*
X04634Y02505*
X04633Y02505*
X04633Y02504*
X04633Y02504*
X04632Y02503*
X04632Y02503*
X04632Y02502*
X04632Y02502*
X04632Y02501*
X04632Y02501*
X04632Y02500*
X04632Y02500*
X04632Y02499*
X04632Y02498*
X04632Y02498*
X04632Y02497*
X04632Y02497*
X04632Y02496*
X04632Y02496*
X04633Y02495*
X04633Y02495*
X04633Y02494*
X04634Y02494*
X04634Y02494*
X04635Y02493*
X04635Y02493*
X04636Y02493*
X04636Y02492*
X04637Y02492*
X04637Y02492*
X04638Y02492*
X04638Y02492*
X04639Y02492*
X04639Y02492*
X04640*
X04640Y02492*
X04641Y02492*
X04641Y02492*
X04642Y02492*
X04642Y02492*
X04643Y02492*
X04644Y02493*
X04644Y02493*
X04644Y02493*
X04645Y02494*
X04645Y02494*
X04646Y02494*
X04646Y02495*
X04646Y02495*
X04647Y02496*
X04647Y02496*
X04647Y02497*
X04647Y02497*
X04647Y02498*
X04647Y02498*
X04647Y02499*
X04648Y02500*
X04548D02*
D01*
X04547Y02500*
X04547Y02501*
X04547Y02501*
X04547Y02502*
X04547Y02502*
X04547Y02503*
X04547Y02503*
X04546Y02504*
X04546Y02504*
X04546Y02505*
X04545Y02505*
X04545Y02505*
X04544Y02506*
X04544Y02506*
X04544Y02506*
X04543Y02507*
X04542Y02507*
X04542Y02507*
X04541Y02507*
X04541Y02507*
X04540Y02507*
X04540Y02507*
X04539*
X04539Y02507*
X04538Y02507*
X04538Y02507*
X04537Y02507*
X04537Y02507*
X04536Y02507*
X04536Y02506*
X04535Y02506*
X04535Y02506*
X04534Y02505*
X04534Y02505*
X04533Y02505*
X04533Y02504*
X04533Y02504*
X04532Y02503*
X04532Y02503*
X04532Y02502*
X04532Y02502*
X04532Y02501*
X04532Y02501*
X04532Y02500*
X04532Y02500*
X04532Y02499*
X04532Y02498*
X04532Y02498*
X04532Y02497*
X04532Y02497*
X04532Y02496*
X04532Y02496*
X04533Y02495*
X04533Y02495*
X04533Y02494*
X04534Y02494*
X04534Y02494*
X04535Y02493*
X04535Y02493*
X04536Y02493*
X04536Y02492*
X04537Y02492*
X04537Y02492*
X04538Y02492*
X04538Y02492*
X04539Y02492*
X04539Y02492*
X04540*
X04540Y02492*
X04541Y02492*
X04541Y02492*
X04542Y02492*
X04542Y02492*
X04543Y02492*
X04544Y02493*
X04544Y02493*
X04544Y02493*
X04545Y02494*
X04545Y02494*
X04546Y02494*
X04546Y02495*
X04546Y02495*
X04547Y02496*
X04547Y02496*
X04547Y02497*
X04547Y02497*
X04547Y02498*
X04547Y02498*
X04547Y02499*
X04548Y02500*
X04448D02*
D01*
X04447Y02500*
X04447Y02501*
X04447Y02501*
X04447Y02502*
X04447Y02502*
X04447Y02503*
X04447Y02503*
X04446Y02504*
X04446Y02504*
X04446Y02505*
X04445Y02505*
X04445Y02505*
X04444Y02506*
X04444Y02506*
X04444Y02506*
X04443Y02507*
X04442Y02507*
X04442Y02507*
X04441Y02507*
X04441Y02507*
X04440Y02507*
X04440Y02507*
X04439*
X04439Y02507*
X04438Y02507*
X04438Y02507*
X04437Y02507*
X04437Y02507*
X04436Y02507*
X04436Y02506*
X04435Y02506*
X04435Y02506*
X04434Y02505*
X04434Y02505*
X04433Y02505*
X04433Y02504*
X04433Y02504*
X04432Y02503*
X04432Y02503*
X04432Y02502*
X04432Y02502*
X04432Y02501*
X04432Y02501*
X04432Y02500*
X04432Y02500*
X04432Y02499*
X04432Y02498*
X04432Y02498*
X04432Y02497*
X04432Y02497*
X04432Y02496*
X04432Y02496*
X04433Y02495*
X04433Y02495*
X04433Y02494*
X04434Y02494*
X04434Y02494*
X04435Y02493*
X04435Y02493*
X04436Y02493*
X04436Y02492*
X04437Y02492*
X04437Y02492*
X04438Y02492*
X04438Y02492*
X04439Y02492*
X04439Y02492*
X04440*
X04440Y02492*
X04441Y02492*
X04441Y02492*
X04442Y02492*
X04442Y02492*
X04443Y02492*
X04444Y02493*
X04444Y02493*
X04444Y02493*
X04445Y02494*
X04445Y02494*
X04446Y02494*
X04446Y02495*
X04446Y02495*
X04447Y02496*
X04447Y02496*
X04447Y02497*
X04447Y02497*
X04447Y02498*
X04447Y02498*
X04447Y02499*
X04448Y02500*
X04348D02*
D01*
X04347Y02500*
X04347Y02501*
X04347Y02501*
X04347Y02502*
X04347Y02502*
X04347Y02503*
X04347Y02503*
X04346Y02504*
X04346Y02504*
X04346Y02505*
X04345Y02505*
X04345Y02505*
X04344Y02506*
X04344Y02506*
X04344Y02506*
X04343Y02507*
X04342Y02507*
X04342Y02507*
X04341Y02507*
X04341Y02507*
X04340Y02507*
X04340Y02507*
X04339*
X04339Y02507*
X04338Y02507*
X04338Y02507*
X04337Y02507*
X04337Y02507*
X04336Y02507*
X04336Y02506*
X04335Y02506*
X04335Y02506*
X04334Y02505*
X04334Y02505*
X04333Y02505*
X04333Y02504*
X04333Y02504*
X04332Y02503*
X04332Y02503*
X04332Y02502*
X04332Y02502*
X04332Y02501*
X04332Y02501*
X04332Y02500*
X04332Y02500*
X04332Y02499*
X04332Y02498*
X04332Y02498*
X04332Y02497*
X04332Y02497*
X04332Y02496*
X04332Y02496*
X04333Y02495*
X04333Y02495*
X04333Y02494*
X04334Y02494*
X04334Y02494*
X04335Y02493*
X04335Y02493*
X04336Y02493*
X04336Y02492*
X04337Y02492*
X04337Y02492*
X04338Y02492*
X04338Y02492*
X04339Y02492*
X04339Y02492*
X04340*
X04340Y02492*
X04341Y02492*
X04341Y02492*
X04342Y02492*
X04342Y02492*
X04343Y02492*
X04344Y02493*
X04344Y02493*
X04344Y02493*
X04345Y02494*
X04345Y02494*
X04346Y02494*
X04346Y02495*
X04346Y02495*
X04347Y02496*
X04347Y02496*
X04347Y02497*
X04347Y02497*
X04347Y02498*
X04347Y02498*
X04347Y02499*
X04348Y02500*
X04248D02*
D01*
X04247Y02500*
X04247Y02501*
X04247Y02501*
X04247Y02502*
X04247Y02502*
X04247Y02503*
X04247Y02503*
X04246Y02504*
X04246Y02504*
X04246Y02505*
X04245Y02505*
X04245Y02505*
X04244Y02506*
X04244Y02506*
X04244Y02506*
X04243Y02507*
X04242Y02507*
X04242Y02507*
X04241Y02507*
X04241Y02507*
X04240Y02507*
X04240Y02507*
X04239*
X04239Y02507*
X04238Y02507*
X04238Y02507*
X04237Y02507*
X04237Y02507*
X04236Y02507*
X04236Y02506*
X04235Y02506*
X04235Y02506*
X04234Y02505*
X04234Y02505*
X04233Y02505*
X04233Y02504*
X04233Y02504*
X04232Y02503*
X04232Y02503*
X04232Y02502*
X04232Y02502*
X04232Y02501*
X04232Y02501*
X04232Y02500*
X04232Y02500*
X04232Y02499*
X04232Y02498*
X04232Y02498*
X04232Y02497*
X04232Y02497*
X04232Y02496*
X04232Y02496*
X04233Y02495*
X04233Y02495*
X04233Y02494*
X04234Y02494*
X04234Y02494*
X04235Y02493*
X04235Y02493*
X04236Y02493*
X04236Y02492*
X04237Y02492*
X04237Y02492*
X04238Y02492*
X04238Y02492*
X04239Y02492*
X04239Y02492*
X04240*
X04240Y02492*
X04241Y02492*
X04241Y02492*
X04242Y02492*
X04242Y02492*
X04243Y02492*
X04244Y02493*
X04244Y02493*
X04244Y02493*
X04245Y02494*
X04245Y02494*
X04246Y02494*
X04246Y02495*
X04246Y02495*
X04247Y02496*
X04247Y02496*
X04247Y02497*
X04247Y02497*
X04247Y02498*
X04247Y02498*
X04247Y02499*
X04248Y02500*
X04148D02*
D01*
X04147Y02500*
X04147Y02501*
X04147Y02501*
X04147Y02502*
X04147Y02502*
X04147Y02503*
X04147Y02503*
X04146Y02504*
X04146Y02504*
X04146Y02505*
X04145Y02505*
X04145Y02505*
X04144Y02506*
X04144Y02506*
X04144Y02506*
X04143Y02507*
X04142Y02507*
X04142Y02507*
X04141Y02507*
X04141Y02507*
X04140Y02507*
X04140Y02507*
X04139*
X04139Y02507*
X04138Y02507*
X04138Y02507*
X04137Y02507*
X04137Y02507*
X04136Y02507*
X04136Y02506*
X04135Y02506*
X04135Y02506*
X04134Y02505*
X04134Y02505*
X04133Y02505*
X04133Y02504*
X04133Y02504*
X04132Y02503*
X04132Y02503*
X04132Y02502*
X04132Y02502*
X04132Y02501*
X04132Y02501*
X04132Y02500*
X04132Y02500*
X04132Y02499*
X04132Y02498*
X04132Y02498*
X04132Y02497*
X04132Y02497*
X04132Y02496*
X04132Y02496*
X04133Y02495*
X04133Y02495*
X04133Y02494*
X04134Y02494*
X04134Y02494*
X04135Y02493*
X04135Y02493*
X04136Y02493*
X04136Y02492*
X04137Y02492*
X04137Y02492*
X04138Y02492*
X04138Y02492*
X04139Y02492*
X04139Y02492*
X04140*
X04140Y02492*
X04141Y02492*
X04141Y02492*
X04142Y02492*
X04142Y02492*
X04143Y02492*
X04144Y02493*
X04144Y02493*
X04144Y02493*
X04145Y02494*
X04145Y02494*
X04146Y02494*
X04146Y02495*
X04146Y02495*
X04147Y02496*
X04147Y02496*
X04147Y02497*
X04147Y02497*
X04147Y02498*
X04147Y02498*
X04147Y02499*
X04148Y02500*
X04048D02*
D01*
X04047Y02500*
X04047Y02501*
X04047Y02501*
X04047Y02502*
X04047Y02502*
X04047Y02503*
X04047Y02503*
X04046Y02504*
X04046Y02504*
X04046Y02505*
X04045Y02505*
X04045Y02505*
X04044Y02506*
X04044Y02506*
X04044Y02506*
X04043Y02507*
X04042Y02507*
X04042Y02507*
X04041Y02507*
X04041Y02507*
X04040Y02507*
X04040Y02507*
X04039*
X04039Y02507*
X04038Y02507*
X04038Y02507*
X04037Y02507*
X04037Y02507*
X04036Y02507*
X04036Y02506*
X04035Y02506*
X04035Y02506*
X04034Y02505*
X04034Y02505*
X04033Y02505*
X04033Y02504*
X04033Y02504*
X04032Y02503*
X04032Y02503*
X04032Y02502*
X04032Y02502*
X04032Y02501*
X04032Y02501*
X04032Y02500*
X04032Y02500*
X04032Y02499*
X04032Y02498*
X04032Y02498*
X04032Y02497*
X04032Y02497*
X04032Y02496*
X04032Y02496*
X04033Y02495*
X04033Y02495*
X04033Y02494*
X04034Y02494*
X04034Y02494*
X04035Y02493*
X04035Y02493*
X04036Y02493*
X04036Y02492*
X04037Y02492*
X04037Y02492*
X04038Y02492*
X04038Y02492*
X04039Y02492*
X04039Y02492*
X04040*
X04040Y02492*
X04041Y02492*
X04041Y02492*
X04042Y02492*
X04042Y02492*
X04043Y02492*
X04044Y02493*
X04044Y02493*
X04044Y02493*
X04045Y02494*
X04045Y02494*
X04046Y02494*
X04046Y02495*
X04046Y02495*
X04047Y02496*
X04047Y02496*
X04047Y02497*
X04047Y02497*
X04047Y02498*
X04047Y02498*
X04047Y02499*
X04048Y02500*
X03948D02*
D01*
X03947Y02500*
X03947Y02501*
X03947Y02501*
X03947Y02502*
X03947Y02502*
X03947Y02503*
X03947Y02503*
X03946Y02504*
X03946Y02504*
X03946Y02505*
X03945Y02505*
X03945Y02505*
X03944Y02506*
X03944Y02506*
X03944Y02506*
X03943Y02507*
X03942Y02507*
X03942Y02507*
X03941Y02507*
X03941Y02507*
X03940Y02507*
X03940Y02507*
X03939*
X03939Y02507*
X03938Y02507*
X03938Y02507*
X03937Y02507*
X03937Y02507*
X03936Y02507*
X03936Y02506*
X03935Y02506*
X03935Y02506*
X03934Y02505*
X03934Y02505*
X03933Y02505*
X03933Y02504*
X03933Y02504*
X03932Y02503*
X03932Y02503*
X03932Y02502*
X03932Y02502*
X03932Y02501*
X03932Y02501*
X03932Y02500*
X03932Y02500*
X03932Y02499*
X03932Y02498*
X03932Y02498*
X03932Y02497*
X03932Y02497*
X03932Y02496*
X03932Y02496*
X03933Y02495*
X03933Y02495*
X03933Y02494*
X03934Y02494*
X03934Y02494*
X03935Y02493*
X03935Y02493*
X03936Y02493*
X03936Y02492*
X03937Y02492*
X03937Y02492*
X03938Y02492*
X03938Y02492*
X03939Y02492*
X03939Y02492*
X03940*
X03940Y02492*
X03941Y02492*
X03941Y02492*
X03942Y02492*
X03942Y02492*
X03943Y02492*
X03944Y02493*
X03944Y02493*
X03944Y02493*
X03945Y02494*
X03945Y02494*
X03946Y02494*
X03946Y02495*
X03946Y02495*
X03947Y02496*
X03947Y02496*
X03947Y02497*
X03947Y02497*
X03947Y02498*
X03947Y02498*
X03947Y02499*
X03948Y02500*
X02308Y02310D02*
D01*
X02307Y02310*
X02307Y02311*
X02307Y02311*
X02307Y02312*
X02307Y02312*
X02307Y02313*
X02307Y02313*
X02306Y02314*
X02306Y02314*
X02306Y02315*
X02305Y02315*
X02305Y02315*
X02304Y02316*
X02304Y02316*
X02304Y02316*
X02303Y02317*
X02302Y02317*
X02302Y02317*
X02301Y02317*
X02301Y02317*
X02300Y02317*
X02300Y02317*
X02299*
X02299Y02317*
X02298Y02317*
X02298Y02317*
X02297Y02317*
X02297Y02317*
X02296Y02317*
X02296Y02316*
X02295Y02316*
X02295Y02316*
X02294Y02315*
X02294Y02315*
X02293Y02315*
X02293Y02314*
X02293Y02314*
X02292Y02313*
X02292Y02313*
X02292Y02312*
X02292Y02312*
X02292Y02311*
X02292Y02311*
X02292Y02310*
X02292Y02310*
X02292Y02309*
X02292Y02308*
X02292Y02308*
X02292Y02307*
X02292Y02307*
X02292Y02306*
X02292Y02306*
X02293Y02305*
X02293Y02305*
X02293Y02304*
X02294Y02304*
X02294Y02304*
X02295Y02303*
X02295Y02303*
X02296Y02303*
X02296Y02302*
X02297Y02302*
X02297Y02302*
X02298Y02302*
X02298Y02302*
X02299Y02302*
X02299Y02302*
X02300*
X02300Y02302*
X02301Y02302*
X02301Y02302*
X02302Y02302*
X02302Y02302*
X02303Y02302*
X02304Y02303*
X02304Y02303*
X02304Y02303*
X02305Y02304*
X02305Y02304*
X02306Y02304*
X02306Y02305*
X02306Y02305*
X02307Y02306*
X02307Y02306*
X02307Y02307*
X02307Y02307*
X02307Y02308*
X02307Y02308*
X02307Y02309*
X02308Y02310*
Y02410D02*
D01*
X02307Y02410*
X02307Y02411*
X02307Y02411*
X02307Y02412*
X02307Y02412*
X02307Y02413*
X02307Y02413*
X02306Y02414*
X02306Y02414*
X02306Y02415*
X02305Y02415*
X02305Y02415*
X02304Y02416*
X02304Y02416*
X02304Y02416*
X02303Y02417*
X02302Y02417*
X02302Y02417*
X02301Y02417*
X02301Y02417*
X02300Y02417*
X02300Y02417*
X02299*
X02299Y02417*
X02298Y02417*
X02298Y02417*
X02297Y02417*
X02297Y02417*
X02296Y02417*
X02296Y02416*
X02295Y02416*
X02295Y02416*
X02294Y02415*
X02294Y02415*
X02293Y02415*
X02293Y02414*
X02293Y02414*
X02292Y02413*
X02292Y02413*
X02292Y02412*
X02292Y02412*
X02292Y02411*
X02292Y02411*
X02292Y02410*
X02292Y02410*
X02292Y02409*
X02292Y02408*
X02292Y02408*
X02292Y02407*
X02292Y02407*
X02292Y02406*
X02292Y02406*
X02293Y02405*
X02293Y02405*
X02293Y02404*
X02294Y02404*
X02294Y02404*
X02295Y02403*
X02295Y02403*
X02296Y02403*
X02296Y02402*
X02297Y02402*
X02297Y02402*
X02298Y02402*
X02298Y02402*
X02299Y02402*
X02299Y02402*
X02300*
X02300Y02402*
X02301Y02402*
X02301Y02402*
X02302Y02402*
X02302Y02402*
X02303Y02402*
X02304Y02403*
X02304Y02403*
X02304Y02403*
X02305Y02404*
X02305Y02404*
X02306Y02404*
X02306Y02405*
X02306Y02405*
X02307Y02406*
X02307Y02406*
X02307Y02407*
X02307Y02407*
X02307Y02408*
X02307Y02408*
X02307Y02409*
X02308Y02410*
Y02510D02*
D01*
X02307Y02510*
X02307Y02511*
X02307Y02511*
X02307Y02512*
X02307Y02512*
X02307Y02513*
X02307Y02513*
X02306Y02514*
X02306Y02514*
X02306Y02515*
X02305Y02515*
X02305Y02515*
X02304Y02516*
X02304Y02516*
X02304Y02516*
X02303Y02517*
X02302Y02517*
X02302Y02517*
X02301Y02517*
X02301Y02517*
X02300Y02517*
X02300Y02517*
X02299*
X02299Y02517*
X02298Y02517*
X02298Y02517*
X02297Y02517*
X02297Y02517*
X02296Y02517*
X02296Y02516*
X02295Y02516*
X02295Y02516*
X02294Y02515*
X02294Y02515*
X02293Y02515*
X02293Y02514*
X02293Y02514*
X02292Y02513*
X02292Y02513*
X02292Y02512*
X02292Y02512*
X02292Y02511*
X02292Y02511*
X02292Y02510*
X02292Y02510*
X02292Y02509*
X02292Y02508*
X02292Y02508*
X02292Y02507*
X02292Y02507*
X02292Y02506*
X02292Y02506*
X02293Y02505*
X02293Y02505*
X02293Y02504*
X02294Y02504*
X02294Y02504*
X02295Y02503*
X02295Y02503*
X02296Y02503*
X02296Y02502*
X02297Y02502*
X02297Y02502*
X02298Y02502*
X02298Y02502*
X02299Y02502*
X02299Y02502*
X02300*
X02300Y02502*
X02301Y02502*
X02301Y02502*
X02302Y02502*
X02302Y02502*
X02303Y02502*
X02304Y02503*
X02304Y02503*
X02304Y02503*
X02305Y02504*
X02305Y02504*
X02306Y02504*
X02306Y02505*
X02306Y02505*
X02307Y02506*
X02307Y02506*
X02307Y02507*
X02307Y02507*
X02307Y02508*
X02307Y02508*
X02307Y02509*
X02308Y02510*
Y02610D02*
D01*
X02307Y02610*
X02307Y02611*
X02307Y02611*
X02307Y02612*
X02307Y02612*
X02307Y02613*
X02307Y02613*
X02306Y02614*
X02306Y02614*
X02306Y02615*
X02305Y02615*
X02305Y02615*
X02304Y02616*
X02304Y02616*
X02304Y02616*
X02303Y02617*
X02302Y02617*
X02302Y02617*
X02301Y02617*
X02301Y02617*
X02300Y02617*
X02300Y02617*
X02299*
X02299Y02617*
X02298Y02617*
X02298Y02617*
X02297Y02617*
X02297Y02617*
X02296Y02617*
X02296Y02616*
X02295Y02616*
X02295Y02616*
X02294Y02615*
X02294Y02615*
X02293Y02615*
X02293Y02614*
X02293Y02614*
X02292Y02613*
X02292Y02613*
X02292Y02612*
X02292Y02612*
X02292Y02611*
X02292Y02611*
X02292Y02610*
X02292Y02610*
X02292Y02609*
X02292Y02608*
X02292Y02608*
X02292Y02607*
X02292Y02607*
X02292Y02606*
X02292Y02606*
X02293Y02605*
X02293Y02605*
X02293Y02604*
X02294Y02604*
X02294Y02604*
X02295Y02603*
X02295Y02603*
X02296Y02603*
X02296Y02602*
X02297Y02602*
X02297Y02602*
X02298Y02602*
X02298Y02602*
X02299Y02602*
X02299Y02602*
X02300*
X02300Y02602*
X02301Y02602*
X02301Y02602*
X02302Y02602*
X02302Y02602*
X02303Y02602*
X02304Y02603*
X02304Y02603*
X02304Y02603*
X02305Y02604*
X02305Y02604*
X02306Y02604*
X02306Y02605*
X02306Y02605*
X02307Y02606*
X02307Y02606*
X02307Y02607*
X02307Y02607*
X02307Y02608*
X02307Y02608*
X02307Y02609*
X02308Y02610*
Y02710D02*
D01*
X02307Y02710*
X02307Y02711*
X02307Y02711*
X02307Y02712*
X02307Y02712*
X02307Y02713*
X02307Y02713*
X02306Y02714*
X02306Y02714*
X02306Y02715*
X02305Y02715*
X02305Y02715*
X02304Y02716*
X02304Y02716*
X02304Y02716*
X02303Y02717*
X02302Y02717*
X02302Y02717*
X02301Y02717*
X02301Y02717*
X02300Y02717*
X02300Y02717*
X02299*
X02299Y02717*
X02298Y02717*
X02298Y02717*
X02297Y02717*
X02297Y02717*
X02296Y02717*
X02296Y02716*
X02295Y02716*
X02295Y02716*
X02294Y02715*
X02294Y02715*
X02293Y02715*
X02293Y02714*
X02293Y02714*
X02292Y02713*
X02292Y02713*
X02292Y02712*
X02292Y02712*
X02292Y02711*
X02292Y02711*
X02292Y02710*
X02292Y02710*
X02292Y02709*
X02292Y02708*
X02292Y02708*
X02292Y02707*
X02292Y02707*
X02292Y02706*
X02292Y02706*
X02293Y02705*
X02293Y02705*
X02293Y02704*
X02294Y02704*
X02294Y02704*
X02295Y02703*
X02295Y02703*
X02296Y02703*
X02296Y02702*
X02297Y02702*
X02297Y02702*
X02298Y02702*
X02298Y02702*
X02299Y02702*
X02299Y02702*
X02300*
X02300Y02702*
X02301Y02702*
X02301Y02702*
X02302Y02702*
X02302Y02702*
X02303Y02702*
X02304Y02703*
X02304Y02703*
X02304Y02703*
X02305Y02704*
X02305Y02704*
X02306Y02704*
X02306Y02705*
X02306Y02705*
X02307Y02706*
X02307Y02706*
X02307Y02707*
X02307Y02707*
X02307Y02708*
X02307Y02708*
X02307Y02709*
X02308Y02710*
Y02810D02*
D01*
X02307Y02810*
X02307Y02811*
X02307Y02811*
X02307Y02812*
X02307Y02812*
X02307Y02813*
X02307Y02813*
X02306Y02814*
X02306Y02814*
X02306Y02815*
X02305Y02815*
X02305Y02815*
X02304Y02816*
X02304Y02816*
X02304Y02816*
X02303Y02817*
X02302Y02817*
X02302Y02817*
X02301Y02817*
X02301Y02817*
X02300Y02817*
X02300Y02817*
X02299*
X02299Y02817*
X02298Y02817*
X02298Y02817*
X02297Y02817*
X02297Y02817*
X02296Y02817*
X02296Y02816*
X02295Y02816*
X02295Y02816*
X02294Y02815*
X02294Y02815*
X02293Y02815*
X02293Y02814*
X02293Y02814*
X02292Y02813*
X02292Y02813*
X02292Y02812*
X02292Y02812*
X02292Y02811*
X02292Y02811*
X02292Y02810*
X02292Y02810*
X02292Y02809*
X02292Y02808*
X02292Y02808*
X02292Y02807*
X02292Y02807*
X02292Y02806*
X02292Y02806*
X02293Y02805*
X02293Y02805*
X02293Y02804*
X02294Y02804*
X02294Y02804*
X02295Y02803*
X02295Y02803*
X02296Y02803*
X02296Y02802*
X02297Y02802*
X02297Y02802*
X02298Y02802*
X02298Y02802*
X02299Y02802*
X02299Y02802*
X02300*
X02300Y02802*
X02301Y02802*
X02301Y02802*
X02302Y02802*
X02302Y02802*
X02303Y02802*
X02304Y02803*
X02304Y02803*
X02304Y02803*
X02305Y02804*
X02305Y02804*
X02306Y02804*
X02306Y02805*
X02306Y02805*
X02307Y02806*
X02307Y02806*
X02307Y02807*
X02307Y02807*
X02307Y02808*
X02307Y02808*
X02307Y02809*
X02308Y02810*
X05208Y03750D02*
D01*
X05207Y03750*
X05207Y03751*
X05207Y03751*
X05207Y03752*
X05207Y03752*
X05207Y03753*
X05207Y03753*
X05206Y03754*
X05206Y03754*
X05206Y03755*
X05205Y03755*
X05205Y03755*
X05204Y03756*
X05204Y03756*
X05204Y03756*
X05203Y03757*
X05202Y03757*
X05202Y03757*
X05201Y03757*
X05201Y03757*
X05200Y03757*
X05200Y03757*
X05199*
X05199Y03757*
X05198Y03757*
X05198Y03757*
X05197Y03757*
X05197Y03757*
X05196Y03757*
X05196Y03756*
X05195Y03756*
X05195Y03756*
X05194Y03755*
X05194Y03755*
X05193Y03755*
X05193Y03754*
X05193Y03754*
X05192Y03753*
X05192Y03753*
X05192Y03752*
X05192Y03752*
X05192Y03751*
X05192Y03751*
X05192Y03750*
X05192Y03750*
X05192Y03749*
X05192Y03748*
X05192Y03748*
X05192Y03747*
X05192Y03747*
X05192Y03746*
X05192Y03746*
X05193Y03745*
X05193Y03745*
X05193Y03744*
X05194Y03744*
X05194Y03744*
X05195Y03743*
X05195Y03743*
X05196Y03743*
X05196Y03742*
X05197Y03742*
X05197Y03742*
X05198Y03742*
X05198Y03742*
X05199Y03742*
X05199Y03742*
X05200*
X05200Y03742*
X05201Y03742*
X05201Y03742*
X05202Y03742*
X05202Y03742*
X05203Y03742*
X05204Y03743*
X05204Y03743*
X05204Y03743*
X05205Y03744*
X05205Y03744*
X05206Y03744*
X05206Y03745*
X05206Y03745*
X05207Y03746*
X05207Y03746*
X05207Y03747*
X05207Y03747*
X05207Y03748*
X05207Y03748*
X05207Y03749*
X05208Y03750*
Y03650D02*
D01*
X05207Y03650*
X05207Y03651*
X05207Y03651*
X05207Y03652*
X05207Y03652*
X05207Y03653*
X05207Y03653*
X05206Y03654*
X05206Y03654*
X05206Y03655*
X05205Y03655*
X05205Y03655*
X05204Y03656*
X05204Y03656*
X05204Y03656*
X05203Y03657*
X05202Y03657*
X05202Y03657*
X05201Y03657*
X05201Y03657*
X05200Y03657*
X05200Y03657*
X05199*
X05199Y03657*
X05198Y03657*
X05198Y03657*
X05197Y03657*
X05197Y03657*
X05196Y03657*
X05196Y03656*
X05195Y03656*
X05195Y03656*
X05194Y03655*
X05194Y03655*
X05193Y03655*
X05193Y03654*
X05193Y03654*
X05192Y03653*
X05192Y03653*
X05192Y03652*
X05192Y03652*
X05192Y03651*
X05192Y03651*
X05192Y03650*
X05192Y03650*
X05192Y03649*
X05192Y03648*
X05192Y03648*
X05192Y03647*
X05192Y03647*
X05192Y03646*
X05192Y03646*
X05193Y03645*
X05193Y03645*
X05193Y03644*
X05194Y03644*
X05194Y03644*
X05195Y03643*
X05195Y03643*
X05196Y03643*
X05196Y03642*
X05197Y03642*
X05197Y03642*
X05198Y03642*
X05198Y03642*
X05199Y03642*
X05199Y03642*
X05200*
X05200Y03642*
X05201Y03642*
X05201Y03642*
X05202Y03642*
X05202Y03642*
X05203Y03642*
X05204Y03643*
X05204Y03643*
X05204Y03643*
X05205Y03644*
X05205Y03644*
X05206Y03644*
X05206Y03645*
X05206Y03645*
X05207Y03646*
X05207Y03646*
X05207Y03647*
X05207Y03647*
X05207Y03648*
X05207Y03648*
X05207Y03649*
X05208Y03650*
Y03450D02*
D01*
X05207Y03450*
X05207Y03451*
X05207Y03451*
X05207Y03452*
X05207Y03452*
X05207Y03453*
X05207Y03453*
X05206Y03454*
X05206Y03454*
X05206Y03455*
X05205Y03455*
X05205Y03455*
X05204Y03456*
X05204Y03456*
X05204Y03456*
X05203Y03457*
X05202Y03457*
X05202Y03457*
X05201Y03457*
X05201Y03457*
X05200Y03457*
X05200Y03457*
X05199*
X05199Y03457*
X05198Y03457*
X05198Y03457*
X05197Y03457*
X05197Y03457*
X05196Y03457*
X05196Y03456*
X05195Y03456*
X05195Y03456*
X05194Y03455*
X05194Y03455*
X05193Y03455*
X05193Y03454*
X05193Y03454*
X05192Y03453*
X05192Y03453*
X05192Y03452*
X05192Y03452*
X05192Y03451*
X05192Y03451*
X05192Y03450*
X05192Y03450*
X05192Y03449*
X05192Y03448*
X05192Y03448*
X05192Y03447*
X05192Y03447*
X05192Y03446*
X05192Y03446*
X05193Y03445*
X05193Y03445*
X05193Y03444*
X05194Y03444*
X05194Y03444*
X05195Y03443*
X05195Y03443*
X05196Y03443*
X05196Y03442*
X05197Y03442*
X05197Y03442*
X05198Y03442*
X05198Y03442*
X05199Y03442*
X05199Y03442*
X05200*
X05200Y03442*
X05201Y03442*
X05201Y03442*
X05202Y03442*
X05202Y03442*
X05203Y03442*
X05204Y03443*
X05204Y03443*
X05204Y03443*
X05205Y03444*
X05205Y03444*
X05206Y03444*
X05206Y03445*
X05206Y03445*
X05207Y03446*
X05207Y03446*
X05207Y03447*
X05207Y03447*
X05207Y03448*
X05207Y03448*
X05207Y03449*
X05208Y03450*
Y03350D02*
D01*
X05207Y03350*
X05207Y03351*
X05207Y03351*
X05207Y03352*
X05207Y03352*
X05207Y03353*
X05207Y03353*
X05206Y03354*
X05206Y03354*
X05206Y03355*
X05205Y03355*
X05205Y03355*
X05204Y03356*
X05204Y03356*
X05204Y03356*
X05203Y03357*
X05202Y03357*
X05202Y03357*
X05201Y03357*
X05201Y03357*
X05200Y03357*
X05200Y03357*
X05199*
X05199Y03357*
X05198Y03357*
X05198Y03357*
X05197Y03357*
X05197Y03357*
X05196Y03357*
X05196Y03356*
X05195Y03356*
X05195Y03356*
X05194Y03355*
X05194Y03355*
X05193Y03355*
X05193Y03354*
X05193Y03354*
X05192Y03353*
X05192Y03353*
X05192Y03352*
X05192Y03352*
X05192Y03351*
X05192Y03351*
X05192Y03350*
X05192Y03350*
X05192Y03349*
X05192Y03348*
X05192Y03348*
X05192Y03347*
X05192Y03347*
X05192Y03346*
X05192Y03346*
X05193Y03345*
X05193Y03345*
X05193Y03344*
X05194Y03344*
X05194Y03344*
X05195Y03343*
X05195Y03343*
X05196Y03343*
X05196Y03342*
X05197Y03342*
X05197Y03342*
X05198Y03342*
X05198Y03342*
X05199Y03342*
X05199Y03342*
X05200*
X05200Y03342*
X05201Y03342*
X05201Y03342*
X05202Y03342*
X05202Y03342*
X05203Y03342*
X05204Y03343*
X05204Y03343*
X05204Y03343*
X05205Y03344*
X05205Y03344*
X05206Y03344*
X05206Y03345*
X05206Y03345*
X05207Y03346*
X05207Y03346*
X05207Y03347*
X05207Y03347*
X05207Y03348*
X05207Y03348*
X05207Y03349*
X05208Y03350*
Y03250D02*
D01*
X05207Y03250*
X05207Y03251*
X05207Y03251*
X05207Y03252*
X05207Y03252*
X05207Y03253*
X05207Y03253*
X05206Y03254*
X05206Y03254*
X05206Y03255*
X05205Y03255*
X05205Y03255*
X05204Y03256*
X05204Y03256*
X05204Y03256*
X05203Y03257*
X05202Y03257*
X05202Y03257*
X05201Y03257*
X05201Y03257*
X05200Y03257*
X05200Y03257*
X05199*
X05199Y03257*
X05198Y03257*
X05198Y03257*
X05197Y03257*
X05197Y03257*
X05196Y03257*
X05196Y03256*
X05195Y03256*
X05195Y03256*
X05194Y03255*
X05194Y03255*
X05193Y03255*
X05193Y03254*
X05193Y03254*
X05192Y03253*
X05192Y03253*
X05192Y03252*
X05192Y03252*
X05192Y03251*
X05192Y03251*
X05192Y03250*
X05192Y03250*
X05192Y03249*
X05192Y03248*
X05192Y03248*
X05192Y03247*
X05192Y03247*
X05192Y03246*
X05192Y03246*
X05193Y03245*
X05193Y03245*
X05193Y03244*
X05194Y03244*
X05194Y03244*
X05195Y03243*
X05195Y03243*
X05196Y03243*
X05196Y03242*
X05197Y03242*
X05197Y03242*
X05198Y03242*
X05198Y03242*
X05199Y03242*
X05199Y03242*
X05200*
X05200Y03242*
X05201Y03242*
X05201Y03242*
X05202Y03242*
X05202Y03242*
X05203Y03242*
X05204Y03243*
X05204Y03243*
X05204Y03243*
X05205Y03244*
X05205Y03244*
X05206Y03244*
X05206Y03245*
X05206Y03245*
X05207Y03246*
X05207Y03246*
X05207Y03247*
X05207Y03247*
X05207Y03248*
X05207Y03248*
X05207Y03249*
X05208Y03250*
Y03150D02*
D01*
X05207Y03150*
X05207Y03151*
X05207Y03151*
X05207Y03152*
X05207Y03152*
X05207Y03153*
X05207Y03153*
X05206Y03154*
X05206Y03154*
X05206Y03155*
X05205Y03155*
X05205Y03155*
X05204Y03156*
X05204Y03156*
X05204Y03156*
X05203Y03157*
X05202Y03157*
X05202Y03157*
X05201Y03157*
X05201Y03157*
X05200Y03157*
X05200Y03157*
X05199*
X05199Y03157*
X05198Y03157*
X05198Y03157*
X05197Y03157*
X05197Y03157*
X05196Y03157*
X05196Y03156*
X05195Y03156*
X05195Y03156*
X05194Y03155*
X05194Y03155*
X05193Y03155*
X05193Y03154*
X05193Y03154*
X05192Y03153*
X05192Y03153*
X05192Y03152*
X05192Y03152*
X05192Y03151*
X05192Y03151*
X05192Y03150*
X05192Y03150*
X05192Y03149*
X05192Y03148*
X05192Y03148*
X05192Y03147*
X05192Y03147*
X05192Y03146*
X05192Y03146*
X05193Y03145*
X05193Y03145*
X05193Y03144*
X05194Y03144*
X05194Y03144*
X05195Y03143*
X05195Y03143*
X05196Y03143*
X05196Y03142*
X05197Y03142*
X05197Y03142*
X05198Y03142*
X05198Y03142*
X05199Y03142*
X05199Y03142*
X05200*
X05200Y03142*
X05201Y03142*
X05201Y03142*
X05202Y03142*
X05202Y03142*
X05203Y03142*
X05204Y03143*
X05204Y03143*
X05204Y03143*
X05205Y03144*
X05205Y03144*
X05206Y03144*
X05206Y03145*
X05206Y03145*
X05207Y03146*
X05207Y03146*
X05207Y03147*
X05207Y03147*
X05207Y03148*
X05207Y03148*
X05207Y03149*
X05208Y03150*
Y03050D02*
D01*
X05207Y03050*
X05207Y03051*
X05207Y03051*
X05207Y03052*
X05207Y03052*
X05207Y03053*
X05207Y03053*
X05206Y03054*
X05206Y03054*
X05206Y03055*
X05205Y03055*
X05205Y03055*
X05204Y03056*
X05204Y03056*
X05204Y03056*
X05203Y03057*
X05202Y03057*
X05202Y03057*
X05201Y03057*
X05201Y03057*
X05200Y03057*
X05200Y03057*
X05199*
X05199Y03057*
X05198Y03057*
X05198Y03057*
X05197Y03057*
X05197Y03057*
X05196Y03057*
X05196Y03056*
X05195Y03056*
X05195Y03056*
X05194Y03055*
X05194Y03055*
X05193Y03055*
X05193Y03054*
X05193Y03054*
X05192Y03053*
X05192Y03053*
X05192Y03052*
X05192Y03052*
X05192Y03051*
X05192Y03051*
X05192Y03050*
X05192Y03050*
X05192Y03049*
X05192Y03048*
X05192Y03048*
X05192Y03047*
X05192Y03047*
X05192Y03046*
X05192Y03046*
X05193Y03045*
X05193Y03045*
X05193Y03044*
X05194Y03044*
X05194Y03044*
X05195Y03043*
X05195Y03043*
X05196Y03043*
X05196Y03042*
X05197Y03042*
X05197Y03042*
X05198Y03042*
X05198Y03042*
X05199Y03042*
X05199Y03042*
X05200*
X05200Y03042*
X05201Y03042*
X05201Y03042*
X05202Y03042*
X05202Y03042*
X05203Y03042*
X05204Y03043*
X05204Y03043*
X05204Y03043*
X05205Y03044*
X05205Y03044*
X05206Y03044*
X05206Y03045*
X05206Y03045*
X05207Y03046*
X05207Y03046*
X05207Y03047*
X05207Y03047*
X05207Y03048*
X05207Y03048*
X05207Y03049*
X05208Y03050*
Y02950D02*
D01*
X05207Y02950*
X05207Y02951*
X05207Y02951*
X05207Y02952*
X05207Y02952*
X05207Y02953*
X05207Y02953*
X05206Y02954*
X05206Y02954*
X05206Y02955*
X05205Y02955*
X05205Y02955*
X05204Y02956*
X05204Y02956*
X05204Y02956*
X05203Y02957*
X05202Y02957*
X05202Y02957*
X05201Y02957*
X05201Y02957*
X05200Y02957*
X05200Y02957*
X05199*
X05199Y02957*
X05198Y02957*
X05198Y02957*
X05197Y02957*
X05197Y02957*
X05196Y02957*
X05196Y02956*
X05195Y02956*
X05195Y02956*
X05194Y02955*
X05194Y02955*
X05193Y02955*
X05193Y02954*
X05193Y02954*
X05192Y02953*
X05192Y02953*
X05192Y02952*
X05192Y02952*
X05192Y02951*
X05192Y02951*
X05192Y02950*
X05192Y02950*
X05192Y02949*
X05192Y02948*
X05192Y02948*
X05192Y02947*
X05192Y02947*
X05192Y02946*
X05192Y02946*
X05193Y02945*
X05193Y02945*
X05193Y02944*
X05194Y02944*
X05194Y02944*
X05195Y02943*
X05195Y02943*
X05196Y02943*
X05196Y02942*
X05197Y02942*
X05197Y02942*
X05198Y02942*
X05198Y02942*
X05199Y02942*
X05199Y02942*
X05200*
X05200Y02942*
X05201Y02942*
X05201Y02942*
X05202Y02942*
X05202Y02942*
X05203Y02942*
X05204Y02943*
X05204Y02943*
X05204Y02943*
X05205Y02944*
X05205Y02944*
X05206Y02944*
X05206Y02945*
X05206Y02945*
X05207Y02946*
X05207Y02946*
X05207Y02947*
X05207Y02947*
X05207Y02948*
X05207Y02948*
X05207Y02949*
X05208Y02950*
Y02850D02*
D01*
X05207Y02850*
X05207Y02851*
X05207Y02851*
X05207Y02852*
X05207Y02852*
X05207Y02853*
X05207Y02853*
X05206Y02854*
X05206Y02854*
X05206Y02855*
X05205Y02855*
X05205Y02855*
X05204Y02856*
X05204Y02856*
X05204Y02856*
X05203Y02857*
X05202Y02857*
X05202Y02857*
X05201Y02857*
X05201Y02857*
X05200Y02857*
X05200Y02857*
X05199*
X05199Y02857*
X05198Y02857*
X05198Y02857*
X05197Y02857*
X05197Y02857*
X05196Y02857*
X05196Y02856*
X05195Y02856*
X05195Y02856*
X05194Y02855*
X05194Y02855*
X05193Y02855*
X05193Y02854*
X05193Y02854*
X05192Y02853*
X05192Y02853*
X05192Y02852*
X05192Y02852*
X05192Y02851*
X05192Y02851*
X05192Y02850*
X05192Y02850*
X05192Y02849*
X05192Y02848*
X05192Y02848*
X05192Y02847*
X05192Y02847*
X05192Y02846*
X05192Y02846*
X05193Y02845*
X05193Y02845*
X05193Y02844*
X05194Y02844*
X05194Y02844*
X05195Y02843*
X05195Y02843*
X05196Y02843*
X05196Y02842*
X05197Y02842*
X05197Y02842*
X05198Y02842*
X05198Y02842*
X05199Y02842*
X05199Y02842*
X05200*
X05200Y02842*
X05201Y02842*
X05201Y02842*
X05202Y02842*
X05202Y02842*
X05203Y02842*
X05204Y02843*
X05204Y02843*
X05204Y02843*
X05205Y02844*
X05205Y02844*
X05206Y02844*
X05206Y02845*
X05206Y02845*
X05207Y02846*
X05207Y02846*
X05207Y02847*
X05207Y02847*
X05207Y02848*
X05207Y02848*
X05207Y02849*
X05208Y02850*
Y03550D02*
D01*
X05207Y03550*
X05207Y03551*
X05207Y03551*
X05207Y03552*
X05207Y03552*
X05207Y03553*
X05207Y03553*
X05206Y03554*
X05206Y03554*
X05206Y03555*
X05205Y03555*
X05205Y03555*
X05204Y03556*
X05204Y03556*
X05204Y03556*
X05203Y03557*
X05202Y03557*
X05202Y03557*
X05201Y03557*
X05201Y03557*
X05200Y03557*
X05200Y03557*
X05199*
X05199Y03557*
X05198Y03557*
X05198Y03557*
X05197Y03557*
X05197Y03557*
X05196Y03557*
X05196Y03556*
X05195Y03556*
X05195Y03556*
X05194Y03555*
X05194Y03555*
X05193Y03555*
X05193Y03554*
X05193Y03554*
X05192Y03553*
X05192Y03553*
X05192Y03552*
X05192Y03552*
X05192Y03551*
X05192Y03551*
X05192Y03550*
X05192Y03550*
X05192Y03549*
X05192Y03548*
X05192Y03548*
X05192Y03547*
X05192Y03547*
X05192Y03546*
X05192Y03546*
X05193Y03545*
X05193Y03545*
X05193Y03544*
X05194Y03544*
X05194Y03544*
X05195Y03543*
X05195Y03543*
X05196Y03543*
X05196Y03542*
X05197Y03542*
X05197Y03542*
X05198Y03542*
X05198Y03542*
X05199Y03542*
X05199Y03542*
X05200*
X05200Y03542*
X05201Y03542*
X05201Y03542*
X05202Y03542*
X05202Y03542*
X05203Y03542*
X05204Y03543*
X05204Y03543*
X05204Y03543*
X05205Y03544*
X05205Y03544*
X05206Y03544*
X05206Y03545*
X05206Y03545*
X05207Y03546*
X05207Y03546*
X05207Y03547*
X05207Y03547*
X05207Y03548*
X05207Y03548*
X05207Y03549*
X05208Y03550*
X04648Y03460D02*
D01*
X04647Y03460*
X04647Y03461*
X04647Y03461*
X04647Y03462*
X04647Y03462*
X04647Y03463*
X04647Y03463*
X04646Y03464*
X04646Y03464*
X04646Y03465*
X04645Y03465*
X04645Y03465*
X04644Y03466*
X04644Y03466*
X04644Y03466*
X04643Y03467*
X04642Y03467*
X04642Y03467*
X04641Y03467*
X04641Y03467*
X04640Y03467*
X04640Y03467*
X04639*
X04639Y03467*
X04638Y03467*
X04638Y03467*
X04637Y03467*
X04637Y03467*
X04636Y03467*
X04636Y03466*
X04635Y03466*
X04635Y03466*
X04634Y03465*
X04634Y03465*
X04633Y03465*
X04633Y03464*
X04633Y03464*
X04632Y03463*
X04632Y03463*
X04632Y03462*
X04632Y03462*
X04632Y03461*
X04632Y03461*
X04632Y03460*
X04632Y03460*
X04632Y03459*
X04632Y03458*
X04632Y03458*
X04632Y03457*
X04632Y03457*
X04632Y03456*
X04632Y03456*
X04633Y03455*
X04633Y03455*
X04633Y03454*
X04634Y03454*
X04634Y03454*
X04635Y03453*
X04635Y03453*
X04636Y03453*
X04636Y03452*
X04637Y03452*
X04637Y03452*
X04638Y03452*
X04638Y03452*
X04639Y03452*
X04639Y03452*
X04640*
X04640Y03452*
X04641Y03452*
X04641Y03452*
X04642Y03452*
X04642Y03452*
X04643Y03452*
X04644Y03453*
X04644Y03453*
X04644Y03453*
X04645Y03454*
X04645Y03454*
X04646Y03454*
X04646Y03455*
X04646Y03455*
X04647Y03456*
X04647Y03456*
X04647Y03457*
X04647Y03457*
X04647Y03458*
X04647Y03458*
X04647Y03459*
X04648Y03460*
X04548D02*
D01*
X04547Y03460*
X04547Y03461*
X04547Y03461*
X04547Y03462*
X04547Y03462*
X04547Y03463*
X04547Y03463*
X04546Y03464*
X04546Y03464*
X04546Y03465*
X04545Y03465*
X04545Y03465*
X04544Y03466*
X04544Y03466*
X04544Y03466*
X04543Y03467*
X04542Y03467*
X04542Y03467*
X04541Y03467*
X04541Y03467*
X04540Y03467*
X04540Y03467*
X04539*
X04539Y03467*
X04538Y03467*
X04538Y03467*
X04537Y03467*
X04537Y03467*
X04536Y03467*
X04536Y03466*
X04535Y03466*
X04535Y03466*
X04534Y03465*
X04534Y03465*
X04533Y03465*
X04533Y03464*
X04533Y03464*
X04532Y03463*
X04532Y03463*
X04532Y03462*
X04532Y03462*
X04532Y03461*
X04532Y03461*
X04532Y03460*
X04532Y03460*
X04532Y03459*
X04532Y03458*
X04532Y03458*
X04532Y03457*
X04532Y03457*
X04532Y03456*
X04532Y03456*
X04533Y03455*
X04533Y03455*
X04533Y03454*
X04534Y03454*
X04534Y03454*
X04535Y03453*
X04535Y03453*
X04536Y03453*
X04536Y03452*
X04537Y03452*
X04537Y03452*
X04538Y03452*
X04538Y03452*
X04539Y03452*
X04539Y03452*
X04540*
X04540Y03452*
X04541Y03452*
X04541Y03452*
X04542Y03452*
X04542Y03452*
X04543Y03452*
X04544Y03453*
X04544Y03453*
X04544Y03453*
X04545Y03454*
X04545Y03454*
X04546Y03454*
X04546Y03455*
X04546Y03455*
X04547Y03456*
X04547Y03456*
X04547Y03457*
X04547Y03457*
X04547Y03458*
X04547Y03458*
X04547Y03459*
X04548Y03460*
X04448D02*
D01*
X04447Y03460*
X04447Y03461*
X04447Y03461*
X04447Y03462*
X04447Y03462*
X04447Y03463*
X04447Y03463*
X04446Y03464*
X04446Y03464*
X04446Y03465*
X04445Y03465*
X04445Y03465*
X04444Y03466*
X04444Y03466*
X04444Y03466*
X04443Y03467*
X04442Y03467*
X04442Y03467*
X04441Y03467*
X04441Y03467*
X04440Y03467*
X04440Y03467*
X04439*
X04439Y03467*
X04438Y03467*
X04438Y03467*
X04437Y03467*
X04437Y03467*
X04436Y03467*
X04436Y03466*
X04435Y03466*
X04435Y03466*
X04434Y03465*
X04434Y03465*
X04433Y03465*
X04433Y03464*
X04433Y03464*
X04432Y03463*
X04432Y03463*
X04432Y03462*
X04432Y03462*
X04432Y03461*
X04432Y03461*
X04432Y03460*
X04432Y03460*
X04432Y03459*
X04432Y03458*
X04432Y03458*
X04432Y03457*
X04432Y03457*
X04432Y03456*
X04432Y03456*
X04433Y03455*
X04433Y03455*
X04433Y03454*
X04434Y03454*
X04434Y03454*
X04435Y03453*
X04435Y03453*
X04436Y03453*
X04436Y03452*
X04437Y03452*
X04437Y03452*
X04438Y03452*
X04438Y03452*
X04439Y03452*
X04439Y03452*
X04440*
X04440Y03452*
X04441Y03452*
X04441Y03452*
X04442Y03452*
X04442Y03452*
X04443Y03452*
X04444Y03453*
X04444Y03453*
X04444Y03453*
X04445Y03454*
X04445Y03454*
X04446Y03454*
X04446Y03455*
X04446Y03455*
X04447Y03456*
X04447Y03456*
X04447Y03457*
X04447Y03457*
X04447Y03458*
X04447Y03458*
X04447Y03459*
X04448Y03460*
X04348D02*
D01*
X04347Y03460*
X04347Y03461*
X04347Y03461*
X04347Y03462*
X04347Y03462*
X04347Y03463*
X04347Y03463*
X04346Y03464*
X04346Y03464*
X04346Y03465*
X04345Y03465*
X04345Y03465*
X04344Y03466*
X04344Y03466*
X04344Y03466*
X04343Y03467*
X04342Y03467*
X04342Y03467*
X04341Y03467*
X04341Y03467*
X04340Y03467*
X04340Y03467*
X04339*
X04339Y03467*
X04338Y03467*
X04338Y03467*
X04337Y03467*
X04337Y03467*
X04336Y03467*
X04336Y03466*
X04335Y03466*
X04335Y03466*
X04334Y03465*
X04334Y03465*
X04333Y03465*
X04333Y03464*
X04333Y03464*
X04332Y03463*
X04332Y03463*
X04332Y03462*
X04332Y03462*
X04332Y03461*
X04332Y03461*
X04332Y03460*
X04332Y03460*
X04332Y03459*
X04332Y03458*
X04332Y03458*
X04332Y03457*
X04332Y03457*
X04332Y03456*
X04332Y03456*
X04333Y03455*
X04333Y03455*
X04333Y03454*
X04334Y03454*
X04334Y03454*
X04335Y03453*
X04335Y03453*
X04336Y03453*
X04336Y03452*
X04337Y03452*
X04337Y03452*
X04338Y03452*
X04338Y03452*
X04339Y03452*
X04339Y03452*
X04340*
X04340Y03452*
X04341Y03452*
X04341Y03452*
X04342Y03452*
X04342Y03452*
X04343Y03452*
X04344Y03453*
X04344Y03453*
X04344Y03453*
X04345Y03454*
X04345Y03454*
X04346Y03454*
X04346Y03455*
X04346Y03455*
X04347Y03456*
X04347Y03456*
X04347Y03457*
X04347Y03457*
X04347Y03458*
X04347Y03458*
X04347Y03459*
X04348Y03460*
X04248D02*
D01*
X04247Y03460*
X04247Y03461*
X04247Y03461*
X04247Y03462*
X04247Y03462*
X04247Y03463*
X04247Y03463*
X04246Y03464*
X04246Y03464*
X04246Y03465*
X04245Y03465*
X04245Y03465*
X04244Y03466*
X04244Y03466*
X04244Y03466*
X04243Y03467*
X04242Y03467*
X04242Y03467*
X04241Y03467*
X04241Y03467*
X04240Y03467*
X04240Y03467*
X04239*
X04239Y03467*
X04238Y03467*
X04238Y03467*
X04237Y03467*
X04237Y03467*
X04236Y03467*
X04236Y03466*
X04235Y03466*
X04235Y03466*
X04234Y03465*
X04234Y03465*
X04233Y03465*
X04233Y03464*
X04233Y03464*
X04232Y03463*
X04232Y03463*
X04232Y03462*
X04232Y03462*
X04232Y03461*
X04232Y03461*
X04232Y03460*
X04232Y03460*
X04232Y03459*
X04232Y03458*
X04232Y03458*
X04232Y03457*
X04232Y03457*
X04232Y03456*
X04232Y03456*
X04233Y03455*
X04233Y03455*
X04233Y03454*
X04234Y03454*
X04234Y03454*
X04235Y03453*
X04235Y03453*
X04236Y03453*
X04236Y03452*
X04237Y03452*
X04237Y03452*
X04238Y03452*
X04238Y03452*
X04239Y03452*
X04239Y03452*
X04240*
X04240Y03452*
X04241Y03452*
X04241Y03452*
X04242Y03452*
X04242Y03452*
X04243Y03452*
X04244Y03453*
X04244Y03453*
X04244Y03453*
X04245Y03454*
X04245Y03454*
X04246Y03454*
X04246Y03455*
X04246Y03455*
X04247Y03456*
X04247Y03456*
X04247Y03457*
X04247Y03457*
X04247Y03458*
X04247Y03458*
X04247Y03459*
X04248Y03460*
X04148D02*
D01*
X04147Y03460*
X04147Y03461*
X04147Y03461*
X04147Y03462*
X04147Y03462*
X04147Y03463*
X04147Y03463*
X04146Y03464*
X04146Y03464*
X04146Y03465*
X04145Y03465*
X04145Y03465*
X04144Y03466*
X04144Y03466*
X04144Y03466*
X04143Y03467*
X04142Y03467*
X04142Y03467*
X04141Y03467*
X04141Y03467*
X04140Y03467*
X04140Y03467*
X04139*
X04139Y03467*
X04138Y03467*
X04138Y03467*
X04137Y03467*
X04137Y03467*
X04136Y03467*
X04136Y03466*
X04135Y03466*
X04135Y03466*
X04134Y03465*
X04134Y03465*
X04133Y03465*
X04133Y03464*
X04133Y03464*
X04132Y03463*
X04132Y03463*
X04132Y03462*
X04132Y03462*
X04132Y03461*
X04132Y03461*
X04132Y03460*
X04132Y03460*
X04132Y03459*
X04132Y03458*
X04132Y03458*
X04132Y03457*
X04132Y03457*
X04132Y03456*
X04132Y03456*
X04133Y03455*
X04133Y03455*
X04133Y03454*
X04134Y03454*
X04134Y03454*
X04135Y03453*
X04135Y03453*
X04136Y03453*
X04136Y03452*
X04137Y03452*
X04137Y03452*
X04138Y03452*
X04138Y03452*
X04139Y03452*
X04139Y03452*
X04140*
X04140Y03452*
X04141Y03452*
X04141Y03452*
X04142Y03452*
X04142Y03452*
X04143Y03452*
X04144Y03453*
X04144Y03453*
X04144Y03453*
X04145Y03454*
X04145Y03454*
X04146Y03454*
X04146Y03455*
X04146Y03455*
X04147Y03456*
X04147Y03456*
X04147Y03457*
X04147Y03457*
X04147Y03458*
X04147Y03458*
X04147Y03459*
X04148Y03460*
X04048D02*
D01*
X04047Y03460*
X04047Y03461*
X04047Y03461*
X04047Y03462*
X04047Y03462*
X04047Y03463*
X04047Y03463*
X04046Y03464*
X04046Y03464*
X04046Y03465*
X04045Y03465*
X04045Y03465*
X04044Y03466*
X04044Y03466*
X04044Y03466*
X04043Y03467*
X04042Y03467*
X04042Y03467*
X04041Y03467*
X04041Y03467*
X04040Y03467*
X04040Y03467*
X04039*
X04039Y03467*
X04038Y03467*
X04038Y03467*
X04037Y03467*
X04037Y03467*
X04036Y03467*
X04036Y03466*
X04035Y03466*
X04035Y03466*
X04034Y03465*
X04034Y03465*
X04033Y03465*
X04033Y03464*
X04033Y03464*
X04032Y03463*
X04032Y03463*
X04032Y03462*
X04032Y03462*
X04032Y03461*
X04032Y03461*
X04032Y03460*
X04032Y03460*
X04032Y03459*
X04032Y03458*
X04032Y03458*
X04032Y03457*
X04032Y03457*
X04032Y03456*
X04032Y03456*
X04033Y03455*
X04033Y03455*
X04033Y03454*
X04034Y03454*
X04034Y03454*
X04035Y03453*
X04035Y03453*
X04036Y03453*
X04036Y03452*
X04037Y03452*
X04037Y03452*
X04038Y03452*
X04038Y03452*
X04039Y03452*
X04039Y03452*
X04040*
X04040Y03452*
X04041Y03452*
X04041Y03452*
X04042Y03452*
X04042Y03452*
X04043Y03452*
X04044Y03453*
X04044Y03453*
X04044Y03453*
X04045Y03454*
X04045Y03454*
X04046Y03454*
X04046Y03455*
X04046Y03455*
X04047Y03456*
X04047Y03456*
X04047Y03457*
X04047Y03457*
X04047Y03458*
X04047Y03458*
X04047Y03459*
X04048Y03460*
X03948D02*
D01*
X03947Y03460*
X03947Y03461*
X03947Y03461*
X03947Y03462*
X03947Y03462*
X03947Y03463*
X03947Y03463*
X03946Y03464*
X03946Y03464*
X03946Y03465*
X03945Y03465*
X03945Y03465*
X03944Y03466*
X03944Y03466*
X03944Y03466*
X03943Y03467*
X03942Y03467*
X03942Y03467*
X03941Y03467*
X03941Y03467*
X03940Y03467*
X03940Y03467*
X03939*
X03939Y03467*
X03938Y03467*
X03938Y03467*
X03937Y03467*
X03937Y03467*
X03936Y03467*
X03936Y03466*
X03935Y03466*
X03935Y03466*
X03934Y03465*
X03934Y03465*
X03933Y03465*
X03933Y03464*
X03933Y03464*
X03932Y03463*
X03932Y03463*
X03932Y03462*
X03932Y03462*
X03932Y03461*
X03932Y03461*
X03932Y03460*
X03932Y03460*
X03932Y03459*
X03932Y03458*
X03932Y03458*
X03932Y03457*
X03932Y03457*
X03932Y03456*
X03932Y03456*
X03933Y03455*
X03933Y03455*
X03933Y03454*
X03934Y03454*
X03934Y03454*
X03935Y03453*
X03935Y03453*
X03936Y03453*
X03936Y03452*
X03937Y03452*
X03937Y03452*
X03938Y03452*
X03938Y03452*
X03939Y03452*
X03939Y03452*
X03940*
X03940Y03452*
X03941Y03452*
X03941Y03452*
X03942Y03452*
X03942Y03452*
X03943Y03452*
X03944Y03453*
X03944Y03453*
X03944Y03453*
X03945Y03454*
X03945Y03454*
X03946Y03454*
X03946Y03455*
X03946Y03455*
X03947Y03456*
X03947Y03456*
X03947Y03457*
X03947Y03457*
X03947Y03458*
X03947Y03458*
X03947Y03459*
X03948Y03460*
X04648Y03160D02*
D01*
X04647Y03160*
X04647Y03161*
X04647Y03161*
X04647Y03162*
X04647Y03162*
X04647Y03163*
X04647Y03163*
X04646Y03164*
X04646Y03164*
X04646Y03165*
X04645Y03165*
X04645Y03165*
X04644Y03166*
X04644Y03166*
X04644Y03166*
X04643Y03167*
X04642Y03167*
X04642Y03167*
X04641Y03167*
X04641Y03167*
X04640Y03167*
X04640Y03167*
X04639*
X04639Y03167*
X04638Y03167*
X04638Y03167*
X04637Y03167*
X04637Y03167*
X04636Y03167*
X04636Y03166*
X04635Y03166*
X04635Y03166*
X04634Y03165*
X04634Y03165*
X04633Y03165*
X04633Y03164*
X04633Y03164*
X04632Y03163*
X04632Y03163*
X04632Y03162*
X04632Y03162*
X04632Y03161*
X04632Y03161*
X04632Y03160*
X04632Y03160*
X04632Y03159*
X04632Y03158*
X04632Y03158*
X04632Y03157*
X04632Y03157*
X04632Y03156*
X04632Y03156*
X04633Y03155*
X04633Y03155*
X04633Y03154*
X04634Y03154*
X04634Y03154*
X04635Y03153*
X04635Y03153*
X04636Y03153*
X04636Y03152*
X04637Y03152*
X04637Y03152*
X04638Y03152*
X04638Y03152*
X04639Y03152*
X04639Y03152*
X04640*
X04640Y03152*
X04641Y03152*
X04641Y03152*
X04642Y03152*
X04642Y03152*
X04643Y03152*
X04644Y03153*
X04644Y03153*
X04644Y03153*
X04645Y03154*
X04645Y03154*
X04646Y03154*
X04646Y03155*
X04646Y03155*
X04647Y03156*
X04647Y03156*
X04647Y03157*
X04647Y03157*
X04647Y03158*
X04647Y03158*
X04647Y03159*
X04648Y03160*
X04548D02*
D01*
X04547Y03160*
X04547Y03161*
X04547Y03161*
X04547Y03162*
X04547Y03162*
X04547Y03163*
X04547Y03163*
X04546Y03164*
X04546Y03164*
X04546Y03165*
X04545Y03165*
X04545Y03165*
X04544Y03166*
X04544Y03166*
X04544Y03166*
X04543Y03167*
X04542Y03167*
X04542Y03167*
X04541Y03167*
X04541Y03167*
X04540Y03167*
X04540Y03167*
X04539*
X04539Y03167*
X04538Y03167*
X04538Y03167*
X04537Y03167*
X04537Y03167*
X04536Y03167*
X04536Y03166*
X04535Y03166*
X04535Y03166*
X04534Y03165*
X04534Y03165*
X04533Y03165*
X04533Y03164*
X04533Y03164*
X04532Y03163*
X04532Y03163*
X04532Y03162*
X04532Y03162*
X04532Y03161*
X04532Y03161*
X04532Y03160*
X04532Y03160*
X04532Y03159*
X04532Y03158*
X04532Y03158*
X04532Y03157*
X04532Y03157*
X04532Y03156*
X04532Y03156*
X04533Y03155*
X04533Y03155*
X04533Y03154*
X04534Y03154*
X04534Y03154*
X04535Y03153*
X04535Y03153*
X04536Y03153*
X04536Y03152*
X04537Y03152*
X04537Y03152*
X04538Y03152*
X04538Y03152*
X04539Y03152*
X04539Y03152*
X04540*
X04540Y03152*
X04541Y03152*
X04541Y03152*
X04542Y03152*
X04542Y03152*
X04543Y03152*
X04544Y03153*
X04544Y03153*
X04544Y03153*
X04545Y03154*
X04545Y03154*
X04546Y03154*
X04546Y03155*
X04546Y03155*
X04547Y03156*
X04547Y03156*
X04547Y03157*
X04547Y03157*
X04547Y03158*
X04547Y03158*
X04547Y03159*
X04548Y03160*
X04448D02*
D01*
X04447Y03160*
X04447Y03161*
X04447Y03161*
X04447Y03162*
X04447Y03162*
X04447Y03163*
X04447Y03163*
X04446Y03164*
X04446Y03164*
X04446Y03165*
X04445Y03165*
X04445Y03165*
X04444Y03166*
X04444Y03166*
X04444Y03166*
X04443Y03167*
X04442Y03167*
X04442Y03167*
X04441Y03167*
X04441Y03167*
X04440Y03167*
X04440Y03167*
X04439*
X04439Y03167*
X04438Y03167*
X04438Y03167*
X04437Y03167*
X04437Y03167*
X04436Y03167*
X04436Y03166*
X04435Y03166*
X04435Y03166*
X04434Y03165*
X04434Y03165*
X04433Y03165*
X04433Y03164*
X04433Y03164*
X04432Y03163*
X04432Y03163*
X04432Y03162*
X04432Y03162*
X04432Y03161*
X04432Y03161*
X04432Y03160*
X04432Y03160*
X04432Y03159*
X04432Y03158*
X04432Y03158*
X04432Y03157*
X04432Y03157*
X04432Y03156*
X04432Y03156*
X04433Y03155*
X04433Y03155*
X04433Y03154*
X04434Y03154*
X04434Y03154*
X04435Y03153*
X04435Y03153*
X04436Y03153*
X04436Y03152*
X04437Y03152*
X04437Y03152*
X04438Y03152*
X04438Y03152*
X04439Y03152*
X04439Y03152*
X04440*
X04440Y03152*
X04441Y03152*
X04441Y03152*
X04442Y03152*
X04442Y03152*
X04443Y03152*
X04444Y03153*
X04444Y03153*
X04444Y03153*
X04445Y03154*
X04445Y03154*
X04446Y03154*
X04446Y03155*
X04446Y03155*
X04447Y03156*
X04447Y03156*
X04447Y03157*
X04447Y03157*
X04447Y03158*
X04447Y03158*
X04447Y03159*
X04448Y03160*
X04348D02*
D01*
X04347Y03160*
X04347Y03161*
X04347Y03161*
X04347Y03162*
X04347Y03162*
X04347Y03163*
X04347Y03163*
X04346Y03164*
X04346Y03164*
X04346Y03165*
X04345Y03165*
X04345Y03165*
X04344Y03166*
X04344Y03166*
X04344Y03166*
X04343Y03167*
X04342Y03167*
X04342Y03167*
X04341Y03167*
X04341Y03167*
X04340Y03167*
X04340Y03167*
X04339*
X04339Y03167*
X04338Y03167*
X04338Y03167*
X04337Y03167*
X04337Y03167*
X04336Y03167*
X04336Y03166*
X04335Y03166*
X04335Y03166*
X04334Y03165*
X04334Y03165*
X04333Y03165*
X04333Y03164*
X04333Y03164*
X04332Y03163*
X04332Y03163*
X04332Y03162*
X04332Y03162*
X04332Y03161*
X04332Y03161*
X04332Y03160*
X04332Y03160*
X04332Y03159*
X04332Y03158*
X04332Y03158*
X04332Y03157*
X04332Y03157*
X04332Y03156*
X04332Y03156*
X04333Y03155*
X04333Y03155*
X04333Y03154*
X04334Y03154*
X04334Y03154*
X04335Y03153*
X04335Y03153*
X04336Y03153*
X04336Y03152*
X04337Y03152*
X04337Y03152*
X04338Y03152*
X04338Y03152*
X04339Y03152*
X04339Y03152*
X04340*
X04340Y03152*
X04341Y03152*
X04341Y03152*
X04342Y03152*
X04342Y03152*
X04343Y03152*
X04344Y03153*
X04344Y03153*
X04344Y03153*
X04345Y03154*
X04345Y03154*
X04346Y03154*
X04346Y03155*
X04346Y03155*
X04347Y03156*
X04347Y03156*
X04347Y03157*
X04347Y03157*
X04347Y03158*
X04347Y03158*
X04347Y03159*
X04348Y03160*
X04248D02*
D01*
X04247Y03160*
X04247Y03161*
X04247Y03161*
X04247Y03162*
X04247Y03162*
X04247Y03163*
X04247Y03163*
X04246Y03164*
X04246Y03164*
X04246Y03165*
X04245Y03165*
X04245Y03165*
X04244Y03166*
X04244Y03166*
X04244Y03166*
X04243Y03167*
X04242Y03167*
X04242Y03167*
X04241Y03167*
X04241Y03167*
X04240Y03167*
X04240Y03167*
X04239*
X04239Y03167*
X04238Y03167*
X04238Y03167*
X04237Y03167*
X04237Y03167*
X04236Y03167*
X04236Y03166*
X04235Y03166*
X04235Y03166*
X04234Y03165*
X04234Y03165*
X04233Y03165*
X04233Y03164*
X04233Y03164*
X04232Y03163*
X04232Y03163*
X04232Y03162*
X04232Y03162*
X04232Y03161*
X04232Y03161*
X04232Y03160*
X04232Y03160*
X04232Y03159*
X04232Y03158*
X04232Y03158*
X04232Y03157*
X04232Y03157*
X04232Y03156*
X04232Y03156*
X04233Y03155*
X04233Y03155*
X04233Y03154*
X04234Y03154*
X04234Y03154*
X04235Y03153*
X04235Y03153*
X04236Y03153*
X04236Y03152*
X04237Y03152*
X04237Y03152*
X04238Y03152*
X04238Y03152*
X04239Y03152*
X04239Y03152*
X04240*
X04240Y03152*
X04241Y03152*
X04241Y03152*
X04242Y03152*
X04242Y03152*
X04243Y03152*
X04244Y03153*
X04244Y03153*
X04244Y03153*
X04245Y03154*
X04245Y03154*
X04246Y03154*
X04246Y03155*
X04246Y03155*
X04247Y03156*
X04247Y03156*
X04247Y03157*
X04247Y03157*
X04247Y03158*
X04247Y03158*
X04247Y03159*
X04248Y03160*
X04148D02*
D01*
X04147Y03160*
X04147Y03161*
X04147Y03161*
X04147Y03162*
X04147Y03162*
X04147Y03163*
X04147Y03163*
X04146Y03164*
X04146Y03164*
X04146Y03165*
X04145Y03165*
X04145Y03165*
X04144Y03166*
X04144Y03166*
X04144Y03166*
X04143Y03167*
X04142Y03167*
X04142Y03167*
X04141Y03167*
X04141Y03167*
X04140Y03167*
X04140Y03167*
X04139*
X04139Y03167*
X04138Y03167*
X04138Y03167*
X04137Y03167*
X04137Y03167*
X04136Y03167*
X04136Y03166*
X04135Y03166*
X04135Y03166*
X04134Y03165*
X04134Y03165*
X04133Y03165*
X04133Y03164*
X04133Y03164*
X04132Y03163*
X04132Y03163*
X04132Y03162*
X04132Y03162*
X04132Y03161*
X04132Y03161*
X04132Y03160*
X04132Y03160*
X04132Y03159*
X04132Y03158*
X04132Y03158*
X04132Y03157*
X04132Y03157*
X04132Y03156*
X04132Y03156*
X04133Y03155*
X04133Y03155*
X04133Y03154*
X04134Y03154*
X04134Y03154*
X04135Y03153*
X04135Y03153*
X04136Y03153*
X04136Y03152*
X04137Y03152*
X04137Y03152*
X04138Y03152*
X04138Y03152*
X04139Y03152*
X04139Y03152*
X04140*
X04140Y03152*
X04141Y03152*
X04141Y03152*
X04142Y03152*
X04142Y03152*
X04143Y03152*
X04144Y03153*
X04144Y03153*
X04144Y03153*
X04145Y03154*
X04145Y03154*
X04146Y03154*
X04146Y03155*
X04146Y03155*
X04147Y03156*
X04147Y03156*
X04147Y03157*
X04147Y03157*
X04147Y03158*
X04147Y03158*
X04147Y03159*
X04148Y03160*
X04048D02*
D01*
X04047Y03160*
X04047Y03161*
X04047Y03161*
X04047Y03162*
X04047Y03162*
X04047Y03163*
X04047Y03163*
X04046Y03164*
X04046Y03164*
X04046Y03165*
X04045Y03165*
X04045Y03165*
X04044Y03166*
X04044Y03166*
X04044Y03166*
X04043Y03167*
X04042Y03167*
X04042Y03167*
X04041Y03167*
X04041Y03167*
X04040Y03167*
X04040Y03167*
X04039*
X04039Y03167*
X04038Y03167*
X04038Y03167*
X04037Y03167*
X04037Y03167*
X04036Y03167*
X04036Y03166*
X04035Y03166*
X04035Y03166*
X04034Y03165*
X04034Y03165*
X04033Y03165*
X04033Y03164*
X04033Y03164*
X04032Y03163*
X04032Y03163*
X04032Y03162*
X04032Y03162*
X04032Y03161*
X04032Y03161*
X04032Y03160*
X04032Y03160*
X04032Y03159*
X04032Y03158*
X04032Y03158*
X04032Y03157*
X04032Y03157*
X04032Y03156*
X04032Y03156*
X04033Y03155*
X04033Y03155*
X04033Y03154*
X04034Y03154*
X04034Y03154*
X04035Y03153*
X04035Y03153*
X04036Y03153*
X04036Y03152*
X04037Y03152*
X04037Y03152*
X04038Y03152*
X04038Y03152*
X04039Y03152*
X04039Y03152*
X04040*
X04040Y03152*
X04041Y03152*
X04041Y03152*
X04042Y03152*
X04042Y03152*
X04043Y03152*
X04044Y03153*
X04044Y03153*
X04044Y03153*
X04045Y03154*
X04045Y03154*
X04046Y03154*
X04046Y03155*
X04046Y03155*
X04047Y03156*
X04047Y03156*
X04047Y03157*
X04047Y03157*
X04047Y03158*
X04047Y03158*
X04047Y03159*
X04048Y03160*
X03948D02*
D01*
X03947Y03160*
X03947Y03161*
X03947Y03161*
X03947Y03162*
X03947Y03162*
X03947Y03163*
X03947Y03163*
X03946Y03164*
X03946Y03164*
X03946Y03165*
X03945Y03165*
X03945Y03165*
X03944Y03166*
X03944Y03166*
X03944Y03166*
X03943Y03167*
X03942Y03167*
X03942Y03167*
X03941Y03167*
X03941Y03167*
X03940Y03167*
X03940Y03167*
X03939*
X03939Y03167*
X03938Y03167*
X03938Y03167*
X03937Y03167*
X03937Y03167*
X03936Y03167*
X03936Y03166*
X03935Y03166*
X03935Y03166*
X03934Y03165*
X03934Y03165*
X03933Y03165*
X03933Y03164*
X03933Y03164*
X03932Y03163*
X03932Y03163*
X03932Y03162*
X03932Y03162*
X03932Y03161*
X03932Y03161*
X03932Y03160*
X03932Y03160*
X03932Y03159*
X03932Y03158*
X03932Y03158*
X03932Y03157*
X03932Y03157*
X03932Y03156*
X03932Y03156*
X03933Y03155*
X03933Y03155*
X03933Y03154*
X03934Y03154*
X03934Y03154*
X03935Y03153*
X03935Y03153*
X03936Y03153*
X03936Y03152*
X03937Y03152*
X03937Y03152*
X03938Y03152*
X03938Y03152*
X03939Y03152*
X03939Y03152*
X03940*
X03940Y03152*
X03941Y03152*
X03941Y03152*
X03942Y03152*
X03942Y03152*
X03943Y03152*
X03944Y03153*
X03944Y03153*
X03944Y03153*
X03945Y03154*
X03945Y03154*
X03946Y03154*
X03946Y03155*
X03946Y03155*
X03947Y03156*
X03947Y03156*
X03947Y03157*
X03947Y03157*
X03947Y03158*
X03947Y03158*
X03947Y03159*
X03948Y03160*
X03348Y04608D02*
D01*
X03347Y04609*
X03347Y04610*
X03347Y04610*
X03347Y04611*
X03347Y04611*
X03347Y04612*
X03347Y04612*
X03346Y04613*
X03346Y04613*
X03346Y04614*
X03345Y04614*
X03345Y04614*
X03344Y04615*
X03344Y04615*
X03344Y04615*
X03343Y04616*
X03342Y04616*
X03342Y04616*
X03341Y04616*
X03341Y04616*
X03340Y04616*
X03340Y04616*
X03339*
X03339Y04616*
X03338Y04616*
X03338Y04616*
X03337Y04616*
X03337Y04616*
X03336Y04616*
X03336Y04615*
X03335Y04615*
X03335Y04615*
X03334Y04614*
X03334Y04614*
X03333Y04614*
X03333Y04613*
X03333Y04613*
X03332Y04612*
X03332Y04612*
X03332Y04611*
X03332Y04611*
X03332Y04610*
X03332Y04610*
X03332Y04609*
X03332Y04608*
X03332Y04608*
X03332Y04607*
X03332Y04607*
X03332Y04606*
X03332Y04606*
X03332Y04605*
X03332Y04605*
X03333Y04604*
X03333Y04604*
X03333Y04603*
X03334Y04603*
X03334Y04602*
X03335Y04602*
X03335Y04602*
X03336Y04601*
X03336Y04601*
X03337Y04601*
X03337Y04601*
X03338Y04601*
X03338Y04601*
X03339Y04600*
X03339Y04600*
X03340*
X03340Y04600*
X03341Y04601*
X03341Y04601*
X03342Y04601*
X03342Y04601*
X03343Y04601*
X03344Y04601*
X03344Y04602*
X03344Y04602*
X03345Y04602*
X03345Y04603*
X03346Y04603*
X03346Y04604*
X03346Y04604*
X03347Y04605*
X03347Y04605*
X03347Y04606*
X03347Y04606*
X03347Y04607*
X03347Y04607*
X03347Y04608*
X03348Y04608*
Y04471D02*
D01*
X03347Y04471*
X03347Y04472*
X03347Y04472*
X03347Y04473*
X03347Y04473*
X03347Y04474*
X03347Y04474*
X03346Y04475*
X03346Y04475*
X03346Y04476*
X03345Y04476*
X03345Y04477*
X03344Y04477*
X03344Y04477*
X03344Y04478*
X03343Y04478*
X03342Y04478*
X03342Y04478*
X03341Y04478*
X03341Y04478*
X03340Y04479*
X03340Y04479*
X03339*
X03339Y04479*
X03338Y04478*
X03338Y04478*
X03337Y04478*
X03337Y04478*
X03336Y04478*
X03336Y04478*
X03335Y04477*
X03335Y04477*
X03334Y04477*
X03334Y04476*
X03333Y04476*
X03333Y04475*
X03333Y04475*
X03332Y04474*
X03332Y04474*
X03332Y04473*
X03332Y04473*
X03332Y04472*
X03332Y04472*
X03332Y04471*
X03332Y04471*
X03332Y04470*
X03332Y04469*
X03332Y04469*
X03332Y04468*
X03332Y04468*
X03332Y04467*
X03332Y04467*
X03333Y04466*
X03333Y04466*
X03333Y04465*
X03334Y04465*
X03334Y04465*
X03335Y04464*
X03335Y04464*
X03336Y04464*
X03336Y04463*
X03337Y04463*
X03337Y04463*
X03338Y04463*
X03338Y04463*
X03339Y04463*
X03339Y04463*
X03340*
X03340Y04463*
X03341Y04463*
X03341Y04463*
X03342Y04463*
X03342Y04463*
X03343Y04463*
X03344Y04464*
X03344Y04464*
X03344Y04464*
X03345Y04465*
X03345Y04465*
X03346Y04465*
X03346Y04466*
X03346Y04466*
X03347Y04467*
X03347Y04467*
X03347Y04468*
X03347Y04468*
X03347Y04469*
X03347Y04469*
X03347Y04470*
X03348Y04471*
X03528Y04940D02*
D01*
X03527Y04940*
X03527Y04941*
X03527Y04941*
X03527Y04942*
X03527Y04942*
X03527Y04943*
X03527Y04943*
X03526Y04944*
X03526Y04944*
X03526Y04945*
X03525Y04945*
X03525Y04945*
X03524Y04946*
X03524Y04946*
X03524Y04946*
X03523Y04947*
X03522Y04947*
X03522Y04947*
X03521Y04947*
X03521Y04947*
X03520Y04947*
X03520Y04947*
X03519*
X03519Y04947*
X03518Y04947*
X03518Y04947*
X03517Y04947*
X03517Y04947*
X03516Y04947*
X03516Y04946*
X03515Y04946*
X03515Y04946*
X03514Y04945*
X03514Y04945*
X03513Y04945*
X03513Y04944*
X03513Y04944*
X03512Y04943*
X03512Y04943*
X03512Y04942*
X03512Y04942*
X03512Y04941*
X03512Y04941*
X03512Y04940*
X03512Y04940*
X03512Y04939*
X03512Y04938*
X03512Y04938*
X03512Y04937*
X03512Y04937*
X03512Y04936*
X03512Y04936*
X03513Y04935*
X03513Y04935*
X03513Y04934*
X03514Y04934*
X03514Y04934*
X03515Y04933*
X03515Y04933*
X03516Y04933*
X03516Y04932*
X03517Y04932*
X03517Y04932*
X03518Y04932*
X03518Y04932*
X03519Y04932*
X03519Y04932*
X03520*
X03520Y04932*
X03521Y04932*
X03521Y04932*
X03522Y04932*
X03522Y04932*
X03523Y04932*
X03524Y04933*
X03524Y04933*
X03524Y04933*
X03525Y04934*
X03525Y04934*
X03526Y04934*
X03526Y04935*
X03526Y04935*
X03527Y04936*
X03527Y04936*
X03527Y04937*
X03527Y04937*
X03527Y04938*
X03527Y04938*
X03527Y04939*
X03528Y04940*
X03628D02*
D01*
X03627Y04940*
X03627Y04941*
X03627Y04941*
X03627Y04942*
X03627Y04942*
X03627Y04943*
X03627Y04943*
X03626Y04944*
X03626Y04944*
X03626Y04945*
X03625Y04945*
X03625Y04945*
X03624Y04946*
X03624Y04946*
X03624Y04946*
X03623Y04947*
X03622Y04947*
X03622Y04947*
X03621Y04947*
X03621Y04947*
X03620Y04947*
X03620Y04947*
X03619*
X03619Y04947*
X03618Y04947*
X03618Y04947*
X03617Y04947*
X03617Y04947*
X03616Y04947*
X03616Y04946*
X03615Y04946*
X03615Y04946*
X03614Y04945*
X03614Y04945*
X03613Y04945*
X03613Y04944*
X03613Y04944*
X03612Y04943*
X03612Y04943*
X03612Y04942*
X03612Y04942*
X03612Y04941*
X03612Y04941*
X03612Y04940*
X03612Y04940*
X03612Y04939*
X03612Y04938*
X03612Y04938*
X03612Y04937*
X03612Y04937*
X03612Y04936*
X03612Y04936*
X03613Y04935*
X03613Y04935*
X03613Y04934*
X03614Y04934*
X03614Y04934*
X03615Y04933*
X03615Y04933*
X03616Y04933*
X03616Y04932*
X03617Y04932*
X03617Y04932*
X03618Y04932*
X03618Y04932*
X03619Y04932*
X03619Y04932*
X03620*
X03620Y04932*
X03621Y04932*
X03621Y04932*
X03622Y04932*
X03622Y04932*
X03623Y04932*
X03624Y04933*
X03624Y04933*
X03624Y04933*
X03625Y04934*
X03625Y04934*
X03626Y04934*
X03626Y04935*
X03626Y04935*
X03627Y04936*
X03627Y04936*
X03627Y04937*
X03627Y04937*
X03627Y04938*
X03627Y04938*
X03627Y04939*
X03628Y04940*
X04648Y04120D02*
D01*
X04647Y04120*
X04647Y04121*
X04647Y04121*
X04647Y04122*
X04647Y04122*
X04647Y04123*
X04647Y04123*
X04646Y04124*
X04646Y04124*
X04646Y04125*
X04645Y04125*
X04645Y04125*
X04644Y04126*
X04644Y04126*
X04644Y04126*
X04643Y04127*
X04642Y04127*
X04642Y04127*
X04641Y04127*
X04641Y04127*
X04640Y04127*
X04640Y04127*
X04639*
X04639Y04127*
X04638Y04127*
X04638Y04127*
X04637Y04127*
X04637Y04127*
X04636Y04127*
X04636Y04126*
X04635Y04126*
X04635Y04126*
X04634Y04125*
X04634Y04125*
X04633Y04125*
X04633Y04124*
X04633Y04124*
X04632Y04123*
X04632Y04123*
X04632Y04122*
X04632Y04122*
X04632Y04121*
X04632Y04121*
X04632Y04120*
X04632Y04120*
X04632Y04119*
X04632Y04118*
X04632Y04118*
X04632Y04117*
X04632Y04117*
X04632Y04116*
X04632Y04116*
X04633Y04115*
X04633Y04115*
X04633Y04114*
X04634Y04114*
X04634Y04114*
X04635Y04113*
X04635Y04113*
X04636Y04113*
X04636Y04112*
X04637Y04112*
X04637Y04112*
X04638Y04112*
X04638Y04112*
X04639Y04112*
X04639Y04112*
X04640*
X04640Y04112*
X04641Y04112*
X04641Y04112*
X04642Y04112*
X04642Y04112*
X04643Y04112*
X04644Y04113*
X04644Y04113*
X04644Y04113*
X04645Y04114*
X04645Y04114*
X04646Y04114*
X04646Y04115*
X04646Y04115*
X04647Y04116*
X04647Y04116*
X04647Y04117*
X04647Y04117*
X04647Y04118*
X04647Y04118*
X04647Y04119*
X04648Y04120*
X04548D02*
D01*
X04547Y04120*
X04547Y04121*
X04547Y04121*
X04547Y04122*
X04547Y04122*
X04547Y04123*
X04547Y04123*
X04546Y04124*
X04546Y04124*
X04546Y04125*
X04545Y04125*
X04545Y04125*
X04544Y04126*
X04544Y04126*
X04544Y04126*
X04543Y04127*
X04542Y04127*
X04542Y04127*
X04541Y04127*
X04541Y04127*
X04540Y04127*
X04540Y04127*
X04539*
X04539Y04127*
X04538Y04127*
X04538Y04127*
X04537Y04127*
X04537Y04127*
X04536Y04127*
X04536Y04126*
X04535Y04126*
X04535Y04126*
X04534Y04125*
X04534Y04125*
X04533Y04125*
X04533Y04124*
X04533Y04124*
X04532Y04123*
X04532Y04123*
X04532Y04122*
X04532Y04122*
X04532Y04121*
X04532Y04121*
X04532Y04120*
X04532Y04120*
X04532Y04119*
X04532Y04118*
X04532Y04118*
X04532Y04117*
X04532Y04117*
X04532Y04116*
X04532Y04116*
X04533Y04115*
X04533Y04115*
X04533Y04114*
X04534Y04114*
X04534Y04114*
X04535Y04113*
X04535Y04113*
X04536Y04113*
X04536Y04112*
X04537Y04112*
X04537Y04112*
X04538Y04112*
X04538Y04112*
X04539Y04112*
X04539Y04112*
X04540*
X04540Y04112*
X04541Y04112*
X04541Y04112*
X04542Y04112*
X04542Y04112*
X04543Y04112*
X04544Y04113*
X04544Y04113*
X04544Y04113*
X04545Y04114*
X04545Y04114*
X04546Y04114*
X04546Y04115*
X04546Y04115*
X04547Y04116*
X04547Y04116*
X04547Y04117*
X04547Y04117*
X04547Y04118*
X04547Y04118*
X04547Y04119*
X04548Y04120*
X04448D02*
D01*
X04447Y04120*
X04447Y04121*
X04447Y04121*
X04447Y04122*
X04447Y04122*
X04447Y04123*
X04447Y04123*
X04446Y04124*
X04446Y04124*
X04446Y04125*
X04445Y04125*
X04445Y04125*
X04444Y04126*
X04444Y04126*
X04444Y04126*
X04443Y04127*
X04442Y04127*
X04442Y04127*
X04441Y04127*
X04441Y04127*
X04440Y04127*
X04440Y04127*
X04439*
X04439Y04127*
X04438Y04127*
X04438Y04127*
X04437Y04127*
X04437Y04127*
X04436Y04127*
X04436Y04126*
X04435Y04126*
X04435Y04126*
X04434Y04125*
X04434Y04125*
X04433Y04125*
X04433Y04124*
X04433Y04124*
X04432Y04123*
X04432Y04123*
X04432Y04122*
X04432Y04122*
X04432Y04121*
X04432Y04121*
X04432Y04120*
X04432Y04120*
X04432Y04119*
X04432Y04118*
X04432Y04118*
X04432Y04117*
X04432Y04117*
X04432Y04116*
X04432Y04116*
X04433Y04115*
X04433Y04115*
X04433Y04114*
X04434Y04114*
X04434Y04114*
X04435Y04113*
X04435Y04113*
X04436Y04113*
X04436Y04112*
X04437Y04112*
X04437Y04112*
X04438Y04112*
X04438Y04112*
X04439Y04112*
X04439Y04112*
X04440*
X04440Y04112*
X04441Y04112*
X04441Y04112*
X04442Y04112*
X04442Y04112*
X04443Y04112*
X04444Y04113*
X04444Y04113*
X04444Y04113*
X04445Y04114*
X04445Y04114*
X04446Y04114*
X04446Y04115*
X04446Y04115*
X04447Y04116*
X04447Y04116*
X04447Y04117*
X04447Y04117*
X04447Y04118*
X04447Y04118*
X04447Y04119*
X04448Y04120*
X04348D02*
D01*
X04347Y04120*
X04347Y04121*
X04347Y04121*
X04347Y04122*
X04347Y04122*
X04347Y04123*
X04347Y04123*
X04346Y04124*
X04346Y04124*
X04346Y04125*
X04345Y04125*
X04345Y04125*
X04344Y04126*
X04344Y04126*
X04344Y04126*
X04343Y04127*
X04342Y04127*
X04342Y04127*
X04341Y04127*
X04341Y04127*
X04340Y04127*
X04340Y04127*
X04339*
X04339Y04127*
X04338Y04127*
X04338Y04127*
X04337Y04127*
X04337Y04127*
X04336Y04127*
X04336Y04126*
X04335Y04126*
X04335Y04126*
X04334Y04125*
X04334Y04125*
X04333Y04125*
X04333Y04124*
X04333Y04124*
X04332Y04123*
X04332Y04123*
X04332Y04122*
X04332Y04122*
X04332Y04121*
X04332Y04121*
X04332Y04120*
X04332Y04120*
X04332Y04119*
X04332Y04118*
X04332Y04118*
X04332Y04117*
X04332Y04117*
X04332Y04116*
X04332Y04116*
X04333Y04115*
X04333Y04115*
X04333Y04114*
X04334Y04114*
X04334Y04114*
X04335Y04113*
X04335Y04113*
X04336Y04113*
X04336Y04112*
X04337Y04112*
X04337Y04112*
X04338Y04112*
X04338Y04112*
X04339Y04112*
X04339Y04112*
X04340*
X04340Y04112*
X04341Y04112*
X04341Y04112*
X04342Y04112*
X04342Y04112*
X04343Y04112*
X04344Y04113*
X04344Y04113*
X04344Y04113*
X04345Y04114*
X04345Y04114*
X04346Y04114*
X04346Y04115*
X04346Y04115*
X04347Y04116*
X04347Y04116*
X04347Y04117*
X04347Y04117*
X04347Y04118*
X04347Y04118*
X04347Y04119*
X04348Y04120*
X04248D02*
D01*
X04247Y04120*
X04247Y04121*
X04247Y04121*
X04247Y04122*
X04247Y04122*
X04247Y04123*
X04247Y04123*
X04246Y04124*
X04246Y04124*
X04246Y04125*
X04245Y04125*
X04245Y04125*
X04244Y04126*
X04244Y04126*
X04244Y04126*
X04243Y04127*
X04242Y04127*
X04242Y04127*
X04241Y04127*
X04241Y04127*
X04240Y04127*
X04240Y04127*
X04239*
X04239Y04127*
X04238Y04127*
X04238Y04127*
X04237Y04127*
X04237Y04127*
X04236Y04127*
X04236Y04126*
X04235Y04126*
X04235Y04126*
X04234Y04125*
X04234Y04125*
X04233Y04125*
X04233Y04124*
X04233Y04124*
X04232Y04123*
X04232Y04123*
X04232Y04122*
X04232Y04122*
X04232Y04121*
X04232Y04121*
X04232Y04120*
X04232Y04120*
X04232Y04119*
X04232Y04118*
X04232Y04118*
X04232Y04117*
X04232Y04117*
X04232Y04116*
X04232Y04116*
X04233Y04115*
X04233Y04115*
X04233Y04114*
X04234Y04114*
X04234Y04114*
X04235Y04113*
X04235Y04113*
X04236Y04113*
X04236Y04112*
X04237Y04112*
X04237Y04112*
X04238Y04112*
X04238Y04112*
X04239Y04112*
X04239Y04112*
X04240*
X04240Y04112*
X04241Y04112*
X04241Y04112*
X04242Y04112*
X04242Y04112*
X04243Y04112*
X04244Y04113*
X04244Y04113*
X04244Y04113*
X04245Y04114*
X04245Y04114*
X04246Y04114*
X04246Y04115*
X04246Y04115*
X04247Y04116*
X04247Y04116*
X04247Y04117*
X04247Y04117*
X04247Y04118*
X04247Y04118*
X04247Y04119*
X04248Y04120*
X04148D02*
D01*
X04147Y04120*
X04147Y04121*
X04147Y04121*
X04147Y04122*
X04147Y04122*
X04147Y04123*
X04147Y04123*
X04146Y04124*
X04146Y04124*
X04146Y04125*
X04145Y04125*
X04145Y04125*
X04144Y04126*
X04144Y04126*
X04144Y04126*
X04143Y04127*
X04142Y04127*
X04142Y04127*
X04141Y04127*
X04141Y04127*
X04140Y04127*
X04140Y04127*
X04139*
X04139Y04127*
X04138Y04127*
X04138Y04127*
X04137Y04127*
X04137Y04127*
X04136Y04127*
X04136Y04126*
X04135Y04126*
X04135Y04126*
X04134Y04125*
X04134Y04125*
X04133Y04125*
X04133Y04124*
X04133Y04124*
X04132Y04123*
X04132Y04123*
X04132Y04122*
X04132Y04122*
X04132Y04121*
X04132Y04121*
X04132Y04120*
X04132Y04120*
X04132Y04119*
X04132Y04118*
X04132Y04118*
X04132Y04117*
X04132Y04117*
X04132Y04116*
X04132Y04116*
X04133Y04115*
X04133Y04115*
X04133Y04114*
X04134Y04114*
X04134Y04114*
X04135Y04113*
X04135Y04113*
X04136Y04113*
X04136Y04112*
X04137Y04112*
X04137Y04112*
X04138Y04112*
X04138Y04112*
X04139Y04112*
X04139Y04112*
X04140*
X04140Y04112*
X04141Y04112*
X04141Y04112*
X04142Y04112*
X04142Y04112*
X04143Y04112*
X04144Y04113*
X04144Y04113*
X04144Y04113*
X04145Y04114*
X04145Y04114*
X04146Y04114*
X04146Y04115*
X04146Y04115*
X04147Y04116*
X04147Y04116*
X04147Y04117*
X04147Y04117*
X04147Y04118*
X04147Y04118*
X04147Y04119*
X04148Y04120*
X04048D02*
D01*
X04047Y04120*
X04047Y04121*
X04047Y04121*
X04047Y04122*
X04047Y04122*
X04047Y04123*
X04047Y04123*
X04046Y04124*
X04046Y04124*
X04046Y04125*
X04045Y04125*
X04045Y04125*
X04044Y04126*
X04044Y04126*
X04044Y04126*
X04043Y04127*
X04042Y04127*
X04042Y04127*
X04041Y04127*
X04041Y04127*
X04040Y04127*
X04040Y04127*
X04039*
X04039Y04127*
X04038Y04127*
X04038Y04127*
X04037Y04127*
X04037Y04127*
X04036Y04127*
X04036Y04126*
X04035Y04126*
X04035Y04126*
X04034Y04125*
X04034Y04125*
X04033Y04125*
X04033Y04124*
X04033Y04124*
X04032Y04123*
X04032Y04123*
X04032Y04122*
X04032Y04122*
X04032Y04121*
X04032Y04121*
X04032Y04120*
X04032Y04120*
X04032Y04119*
X04032Y04118*
X04032Y04118*
X04032Y04117*
X04032Y04117*
X04032Y04116*
X04032Y04116*
X04033Y04115*
X04033Y04115*
X04033Y04114*
X04034Y04114*
X04034Y04114*
X04035Y04113*
X04035Y04113*
X04036Y04113*
X04036Y04112*
X04037Y04112*
X04037Y04112*
X04038Y04112*
X04038Y04112*
X04039Y04112*
X04039Y04112*
X04040*
X04040Y04112*
X04041Y04112*
X04041Y04112*
X04042Y04112*
X04042Y04112*
X04043Y04112*
X04044Y04113*
X04044Y04113*
X04044Y04113*
X04045Y04114*
X04045Y04114*
X04046Y04114*
X04046Y04115*
X04046Y04115*
X04047Y04116*
X04047Y04116*
X04047Y04117*
X04047Y04117*
X04047Y04118*
X04047Y04118*
X04047Y04119*
X04048Y04120*
X03948D02*
D01*
X03947Y04120*
X03947Y04121*
X03947Y04121*
X03947Y04122*
X03947Y04122*
X03947Y04123*
X03947Y04123*
X03946Y04124*
X03946Y04124*
X03946Y04125*
X03945Y04125*
X03945Y04125*
X03944Y04126*
X03944Y04126*
X03944Y04126*
X03943Y04127*
X03942Y04127*
X03942Y04127*
X03941Y04127*
X03941Y04127*
X03940Y04127*
X03940Y04127*
X03939*
X03939Y04127*
X03938Y04127*
X03938Y04127*
X03937Y04127*
X03937Y04127*
X03936Y04127*
X03936Y04126*
X03935Y04126*
X03935Y04126*
X03934Y04125*
X03934Y04125*
X03933Y04125*
X03933Y04124*
X03933Y04124*
X03932Y04123*
X03932Y04123*
X03932Y04122*
X03932Y04122*
X03932Y04121*
X03932Y04121*
X03932Y04120*
X03932Y04120*
X03932Y04119*
X03932Y04118*
X03932Y04118*
X03932Y04117*
X03932Y04117*
X03932Y04116*
X03932Y04116*
X03933Y04115*
X03933Y04115*
X03933Y04114*
X03934Y04114*
X03934Y04114*
X03935Y04113*
X03935Y04113*
X03936Y04113*
X03936Y04112*
X03937Y04112*
X03937Y04112*
X03938Y04112*
X03938Y04112*
X03939Y04112*
X03939Y04112*
X03940*
X03940Y04112*
X03941Y04112*
X03941Y04112*
X03942Y04112*
X03942Y04112*
X03943Y04112*
X03944Y04113*
X03944Y04113*
X03944Y04113*
X03945Y04114*
X03945Y04114*
X03946Y04114*
X03946Y04115*
X03946Y04115*
X03947Y04116*
X03947Y04116*
X03947Y04117*
X03947Y04117*
X03947Y04118*
X03947Y04118*
X03947Y04119*
X03948Y04120*
X04648Y03820D02*
D01*
X04647Y03820*
X04647Y03821*
X04647Y03821*
X04647Y03822*
X04647Y03822*
X04647Y03823*
X04647Y03823*
X04646Y03824*
X04646Y03824*
X04646Y03825*
X04645Y03825*
X04645Y03825*
X04644Y03826*
X04644Y03826*
X04644Y03826*
X04643Y03827*
X04642Y03827*
X04642Y03827*
X04641Y03827*
X04641Y03827*
X04640Y03827*
X04640Y03827*
X04639*
X04639Y03827*
X04638Y03827*
X04638Y03827*
X04637Y03827*
X04637Y03827*
X04636Y03827*
X04636Y03826*
X04635Y03826*
X04635Y03826*
X04634Y03825*
X04634Y03825*
X04633Y03825*
X04633Y03824*
X04633Y03824*
X04632Y03823*
X04632Y03823*
X04632Y03822*
X04632Y03822*
X04632Y03821*
X04632Y03821*
X04632Y03820*
X04632Y03820*
X04632Y03819*
X04632Y03818*
X04632Y03818*
X04632Y03817*
X04632Y03817*
X04632Y03816*
X04632Y03816*
X04633Y03815*
X04633Y03815*
X04633Y03814*
X04634Y03814*
X04634Y03814*
X04635Y03813*
X04635Y03813*
X04636Y03813*
X04636Y03812*
X04637Y03812*
X04637Y03812*
X04638Y03812*
X04638Y03812*
X04639Y03812*
X04639Y03812*
X04640*
X04640Y03812*
X04641Y03812*
X04641Y03812*
X04642Y03812*
X04642Y03812*
X04643Y03812*
X04644Y03813*
X04644Y03813*
X04644Y03813*
X04645Y03814*
X04645Y03814*
X04646Y03814*
X04646Y03815*
X04646Y03815*
X04647Y03816*
X04647Y03816*
X04647Y03817*
X04647Y03817*
X04647Y03818*
X04647Y03818*
X04647Y03819*
X04648Y03820*
X04548D02*
D01*
X04547Y03820*
X04547Y03821*
X04547Y03821*
X04547Y03822*
X04547Y03822*
X04547Y03823*
X04547Y03823*
X04546Y03824*
X04546Y03824*
X04546Y03825*
X04545Y03825*
X04545Y03825*
X04544Y03826*
X04544Y03826*
X04544Y03826*
X04543Y03827*
X04542Y03827*
X04542Y03827*
X04541Y03827*
X04541Y03827*
X04540Y03827*
X04540Y03827*
X04539*
X04539Y03827*
X04538Y03827*
X04538Y03827*
X04537Y03827*
X04537Y03827*
X04536Y03827*
X04536Y03826*
X04535Y03826*
X04535Y03826*
X04534Y03825*
X04534Y03825*
X04533Y03825*
X04533Y03824*
X04533Y03824*
X04532Y03823*
X04532Y03823*
X04532Y03822*
X04532Y03822*
X04532Y03821*
X04532Y03821*
X04532Y03820*
X04532Y03820*
X04532Y03819*
X04532Y03818*
X04532Y03818*
X04532Y03817*
X04532Y03817*
X04532Y03816*
X04532Y03816*
X04533Y03815*
X04533Y03815*
X04533Y03814*
X04534Y03814*
X04534Y03814*
X04535Y03813*
X04535Y03813*
X04536Y03813*
X04536Y03812*
X04537Y03812*
X04537Y03812*
X04538Y03812*
X04538Y03812*
X04539Y03812*
X04539Y03812*
X04540*
X04540Y03812*
X04541Y03812*
X04541Y03812*
X04542Y03812*
X04542Y03812*
X04543Y03812*
X04544Y03813*
X04544Y03813*
X04544Y03813*
X04545Y03814*
X04545Y03814*
X04546Y03814*
X04546Y03815*
X04546Y03815*
X04547Y03816*
X04547Y03816*
X04547Y03817*
X04547Y03817*
X04547Y03818*
X04547Y03818*
X04547Y03819*
X04548Y03820*
X04448D02*
D01*
X04447Y03820*
X04447Y03821*
X04447Y03821*
X04447Y03822*
X04447Y03822*
X04447Y03823*
X04447Y03823*
X04446Y03824*
X04446Y03824*
X04446Y03825*
X04445Y03825*
X04445Y03825*
X04444Y03826*
X04444Y03826*
X04444Y03826*
X04443Y03827*
X04442Y03827*
X04442Y03827*
X04441Y03827*
X04441Y03827*
X04440Y03827*
X04440Y03827*
X04439*
X04439Y03827*
X04438Y03827*
X04438Y03827*
X04437Y03827*
X04437Y03827*
X04436Y03827*
X04436Y03826*
X04435Y03826*
X04435Y03826*
X04434Y03825*
X04434Y03825*
X04433Y03825*
X04433Y03824*
X04433Y03824*
X04432Y03823*
X04432Y03823*
X04432Y03822*
X04432Y03822*
X04432Y03821*
X04432Y03821*
X04432Y03820*
X04432Y03820*
X04432Y03819*
X04432Y03818*
X04432Y03818*
X04432Y03817*
X04432Y03817*
X04432Y03816*
X04432Y03816*
X04433Y03815*
X04433Y03815*
X04433Y03814*
X04434Y03814*
X04434Y03814*
X04435Y03813*
X04435Y03813*
X04436Y03813*
X04436Y03812*
X04437Y03812*
X04437Y03812*
X04438Y03812*
X04438Y03812*
X04439Y03812*
X04439Y03812*
X04440*
X04440Y03812*
X04441Y03812*
X04441Y03812*
X04442Y03812*
X04442Y03812*
X04443Y03812*
X04444Y03813*
X04444Y03813*
X04444Y03813*
X04445Y03814*
X04445Y03814*
X04446Y03814*
X04446Y03815*
X04446Y03815*
X04447Y03816*
X04447Y03816*
X04447Y03817*
X04447Y03817*
X04447Y03818*
X04447Y03818*
X04447Y03819*
X04448Y03820*
X04348D02*
D01*
X04347Y03820*
X04347Y03821*
X04347Y03821*
X04347Y03822*
X04347Y03822*
X04347Y03823*
X04347Y03823*
X04346Y03824*
X04346Y03824*
X04346Y03825*
X04345Y03825*
X04345Y03825*
X04344Y03826*
X04344Y03826*
X04344Y03826*
X04343Y03827*
X04342Y03827*
X04342Y03827*
X04341Y03827*
X04341Y03827*
X04340Y03827*
X04340Y03827*
X04339*
X04339Y03827*
X04338Y03827*
X04338Y03827*
X04337Y03827*
X04337Y03827*
X04336Y03827*
X04336Y03826*
X04335Y03826*
X04335Y03826*
X04334Y03825*
X04334Y03825*
X04333Y03825*
X04333Y03824*
X04333Y03824*
X04332Y03823*
X04332Y03823*
X04332Y03822*
X04332Y03822*
X04332Y03821*
X04332Y03821*
X04332Y03820*
X04332Y03820*
X04332Y03819*
X04332Y03818*
X04332Y03818*
X04332Y03817*
X04332Y03817*
X04332Y03816*
X04332Y03816*
X04333Y03815*
X04333Y03815*
X04333Y03814*
X04334Y03814*
X04334Y03814*
X04335Y03813*
X04335Y03813*
X04336Y03813*
X04336Y03812*
X04337Y03812*
X04337Y03812*
X04338Y03812*
X04338Y03812*
X04339Y03812*
X04339Y03812*
X04340*
X04340Y03812*
X04341Y03812*
X04341Y03812*
X04342Y03812*
X04342Y03812*
X04343Y03812*
X04344Y03813*
X04344Y03813*
X04344Y03813*
X04345Y03814*
X04345Y03814*
X04346Y03814*
X04346Y03815*
X04346Y03815*
X04347Y03816*
X04347Y03816*
X04347Y03817*
X04347Y03817*
X04347Y03818*
X04347Y03818*
X04347Y03819*
X04348Y03820*
X04248D02*
D01*
X04247Y03820*
X04247Y03821*
X04247Y03821*
X04247Y03822*
X04247Y03822*
X04247Y03823*
X04247Y03823*
X04246Y03824*
X04246Y03824*
X04246Y03825*
X04245Y03825*
X04245Y03825*
X04244Y03826*
X04244Y03826*
X04244Y03826*
X04243Y03827*
X04242Y03827*
X04242Y03827*
X04241Y03827*
X04241Y03827*
X04240Y03827*
X04240Y03827*
X04239*
X04239Y03827*
X04238Y03827*
X04238Y03827*
X04237Y03827*
X04237Y03827*
X04236Y03827*
X04236Y03826*
X04235Y03826*
X04235Y03826*
X04234Y03825*
X04234Y03825*
X04233Y03825*
X04233Y03824*
X04233Y03824*
X04232Y03823*
X04232Y03823*
X04232Y03822*
X04232Y03822*
X04232Y03821*
X04232Y03821*
X04232Y03820*
X04232Y03820*
X04232Y03819*
X04232Y03818*
X04232Y03818*
X04232Y03817*
X04232Y03817*
X04232Y03816*
X04232Y03816*
X04233Y03815*
X04233Y03815*
X04233Y03814*
X04234Y03814*
X04234Y03814*
X04235Y03813*
X04235Y03813*
X04236Y03813*
X04236Y03812*
X04237Y03812*
X04237Y03812*
X04238Y03812*
X04238Y03812*
X04239Y03812*
X04239Y03812*
X04240*
X04240Y03812*
X04241Y03812*
X04241Y03812*
X04242Y03812*
X04242Y03812*
X04243Y03812*
X04244Y03813*
X04244Y03813*
X04244Y03813*
X04245Y03814*
X04245Y03814*
X04246Y03814*
X04246Y03815*
X04246Y03815*
X04247Y03816*
X04247Y03816*
X04247Y03817*
X04247Y03817*
X04247Y03818*
X04247Y03818*
X04247Y03819*
X04248Y03820*
X04148D02*
D01*
X04147Y03820*
X04147Y03821*
X04147Y03821*
X04147Y03822*
X04147Y03822*
X04147Y03823*
X04147Y03823*
X04146Y03824*
X04146Y03824*
X04146Y03825*
X04145Y03825*
X04145Y03825*
X04144Y03826*
X04144Y03826*
X04144Y03826*
X04143Y03827*
X04142Y03827*
X04142Y03827*
X04141Y03827*
X04141Y03827*
X04140Y03827*
X04140Y03827*
X04139*
X04139Y03827*
X04138Y03827*
X04138Y03827*
X04137Y03827*
X04137Y03827*
X04136Y03827*
X04136Y03826*
X04135Y03826*
X04135Y03826*
X04134Y03825*
X04134Y03825*
X04133Y03825*
X04133Y03824*
X04133Y03824*
X04132Y03823*
X04132Y03823*
X04132Y03822*
X04132Y03822*
X04132Y03821*
X04132Y03821*
X04132Y03820*
X04132Y03820*
X04132Y03819*
X04132Y03818*
X04132Y03818*
X04132Y03817*
X04132Y03817*
X04132Y03816*
X04132Y03816*
X04133Y03815*
X04133Y03815*
X04133Y03814*
X04134Y03814*
X04134Y03814*
X04135Y03813*
X04135Y03813*
X04136Y03813*
X04136Y03812*
X04137Y03812*
X04137Y03812*
X04138Y03812*
X04138Y03812*
X04139Y03812*
X04139Y03812*
X04140*
X04140Y03812*
X04141Y03812*
X04141Y03812*
X04142Y03812*
X04142Y03812*
X04143Y03812*
X04144Y03813*
X04144Y03813*
X04144Y03813*
X04145Y03814*
X04145Y03814*
X04146Y03814*
X04146Y03815*
X04146Y03815*
X04147Y03816*
X04147Y03816*
X04147Y03817*
X04147Y03817*
X04147Y03818*
X04147Y03818*
X04147Y03819*
X04148Y03820*
X04048D02*
D01*
X04047Y03820*
X04047Y03821*
X04047Y03821*
X04047Y03822*
X04047Y03822*
X04047Y03823*
X04047Y03823*
X04046Y03824*
X04046Y03824*
X04046Y03825*
X04045Y03825*
X04045Y03825*
X04044Y03826*
X04044Y03826*
X04044Y03826*
X04043Y03827*
X04042Y03827*
X04042Y03827*
X04041Y03827*
X04041Y03827*
X04040Y03827*
X04040Y03827*
X04039*
X04039Y03827*
X04038Y03827*
X04038Y03827*
X04037Y03827*
X04037Y03827*
X04036Y03827*
X04036Y03826*
X04035Y03826*
X04035Y03826*
X04034Y03825*
X04034Y03825*
X04033Y03825*
X04033Y03824*
X04033Y03824*
X04032Y03823*
X04032Y03823*
X04032Y03822*
X04032Y03822*
X04032Y03821*
X04032Y03821*
X04032Y03820*
X04032Y03820*
X04032Y03819*
X04032Y03818*
X04032Y03818*
X04032Y03817*
X04032Y03817*
X04032Y03816*
X04032Y03816*
X04033Y03815*
X04033Y03815*
X04033Y03814*
X04034Y03814*
X04034Y03814*
X04035Y03813*
X04035Y03813*
X04036Y03813*
X04036Y03812*
X04037Y03812*
X04037Y03812*
X04038Y03812*
X04038Y03812*
X04039Y03812*
X04039Y03812*
X04040*
X04040Y03812*
X04041Y03812*
X04041Y03812*
X04042Y03812*
X04042Y03812*
X04043Y03812*
X04044Y03813*
X04044Y03813*
X04044Y03813*
X04045Y03814*
X04045Y03814*
X04046Y03814*
X04046Y03815*
X04046Y03815*
X04047Y03816*
X04047Y03816*
X04047Y03817*
X04047Y03817*
X04047Y03818*
X04047Y03818*
X04047Y03819*
X04048Y03820*
X03948D02*
D01*
X03947Y03820*
X03947Y03821*
X03947Y03821*
X03947Y03822*
X03947Y03822*
X03947Y03823*
X03947Y03823*
X03946Y03824*
X03946Y03824*
X03946Y03825*
X03945Y03825*
X03945Y03825*
X03944Y03826*
X03944Y03826*
X03944Y03826*
X03943Y03827*
X03942Y03827*
X03942Y03827*
X03941Y03827*
X03941Y03827*
X03940Y03827*
X03940Y03827*
X03939*
X03939Y03827*
X03938Y03827*
X03938Y03827*
X03937Y03827*
X03937Y03827*
X03936Y03827*
X03936Y03826*
X03935Y03826*
X03935Y03826*
X03934Y03825*
X03934Y03825*
X03933Y03825*
X03933Y03824*
X03933Y03824*
X03932Y03823*
X03932Y03823*
X03932Y03822*
X03932Y03822*
X03932Y03821*
X03932Y03821*
X03932Y03820*
X03932Y03820*
X03932Y03819*
X03932Y03818*
X03932Y03818*
X03932Y03817*
X03932Y03817*
X03932Y03816*
X03932Y03816*
X03933Y03815*
X03933Y03815*
X03933Y03814*
X03934Y03814*
X03934Y03814*
X03935Y03813*
X03935Y03813*
X03936Y03813*
X03936Y03812*
X03937Y03812*
X03937Y03812*
X03938Y03812*
X03938Y03812*
X03939Y03812*
X03939Y03812*
X03940*
X03940Y03812*
X03941Y03812*
X03941Y03812*
X03942Y03812*
X03942Y03812*
X03943Y03812*
X03944Y03813*
X03944Y03813*
X03944Y03813*
X03945Y03814*
X03945Y03814*
X03946Y03814*
X03946Y03815*
X03946Y03815*
X03947Y03816*
X03947Y03816*
X03947Y03817*
X03947Y03817*
X03947Y03818*
X03947Y03818*
X03947Y03819*
X03948Y03820*
X02278Y03848D02*
D01*
X02277Y03848*
X02277Y03849*
X02277Y03850*
X02277Y03850*
X02277Y03851*
X02277Y03851*
X02277Y03852*
X02276Y03852*
X02276Y03853*
X02276Y03853*
X02275Y03853*
X02275Y03854*
X02274Y03854*
X02274Y03855*
X02274Y03855*
X02273Y03855*
X02272Y03855*
X02272Y03856*
X02271Y03856*
X02271Y03856*
X02270Y03856*
X02270Y03856*
X02269*
X02269Y03856*
X02268Y03856*
X02268Y03856*
X02267Y03856*
X02267Y03855*
X02266Y03855*
X02266Y03855*
X02265Y03855*
X02265Y03854*
X02264Y03854*
X02264Y03853*
X02263Y03853*
X02263Y03853*
X02263Y03852*
X02262Y03852*
X02262Y03851*
X02262Y03851*
X02262Y03850*
X02262Y03850*
X02262Y03849*
X02262Y03848*
X02262Y03848*
X02262Y03847*
X02262Y03847*
X02262Y03846*
X02262Y03846*
X02262Y03845*
X02262Y03845*
X02262Y03844*
X02263Y03844*
X02263Y03843*
X02263Y03843*
X02264Y03842*
X02264Y03842*
X02265Y03842*
X02265Y03841*
X02266Y03841*
X02266Y03841*
X02267Y03840*
X02267Y03840*
X02268Y03840*
X02268Y03840*
X02269Y03840*
X02269Y03840*
X02270*
X02270Y03840*
X02271Y03840*
X02271Y03840*
X02272Y03840*
X02272Y03840*
X02273Y03841*
X02274Y03841*
X02274Y03841*
X02274Y03842*
X02275Y03842*
X02275Y03842*
X02276Y03843*
X02276Y03843*
X02276Y03844*
X02277Y03844*
X02277Y03845*
X02277Y03845*
X02277Y03846*
X02277Y03846*
X02277Y03847*
X02277Y03847*
X02278Y03848*
Y03651D02*
D01*
X02277Y03652*
X02277Y03652*
X02277Y03653*
X02277Y03653*
X02277Y03654*
X02277Y03654*
X02277Y03655*
X02276Y03655*
X02276Y03656*
X02276Y03656*
X02275Y03657*
X02275Y03657*
X02274Y03657*
X02274Y03658*
X02274Y03658*
X02273Y03658*
X02272Y03659*
X02272Y03659*
X02271Y03659*
X02271Y03659*
X02270Y03659*
X02270Y03659*
X02269*
X02269Y03659*
X02268Y03659*
X02268Y03659*
X02267Y03659*
X02267Y03659*
X02266Y03658*
X02266Y03658*
X02265Y03658*
X02265Y03657*
X02264Y03657*
X02264Y03657*
X02263Y03656*
X02263Y03656*
X02263Y03655*
X02262Y03655*
X02262Y03654*
X02262Y03654*
X02262Y03653*
X02262Y03653*
X02262Y03652*
X02262Y03652*
X02262Y03651*
X02262Y03651*
X02262Y03650*
X02262Y03649*
X02262Y03649*
X02262Y03648*
X02262Y03648*
X02262Y03647*
X02263Y03647*
X02263Y03646*
X02263Y03646*
X02264Y03646*
X02264Y03645*
X02265Y03645*
X02265Y03644*
X02266Y03644*
X02266Y03644*
X02267Y03644*
X02267Y03643*
X02268Y03643*
X02268Y03643*
X02269Y03643*
X02269Y03643*
X02270*
X02270Y03643*
X02271Y03643*
X02271Y03643*
X02272Y03643*
X02272Y03644*
X02273Y03644*
X02274Y03644*
X02274Y03644*
X02274Y03645*
X02275Y03645*
X02275Y03646*
X02276Y03646*
X02276Y03646*
X02276Y03647*
X02277Y03647*
X02277Y03648*
X02277Y03648*
X02277Y03649*
X02277Y03649*
X02277Y03650*
X02277Y03651*
X02278Y03651*
Y04368D02*
D01*
X02277Y04368*
X02277Y04369*
X02277Y04370*
X02277Y04370*
X02277Y04371*
X02277Y04371*
X02277Y04372*
X02276Y04372*
X02276Y04373*
X02276Y04373*
X02275Y04373*
X02275Y04374*
X02274Y04374*
X02274Y04375*
X02274Y04375*
X02273Y04375*
X02272Y04375*
X02272Y04376*
X02271Y04376*
X02271Y04376*
X02270Y04376*
X02270Y04376*
X02269*
X02269Y04376*
X02268Y04376*
X02268Y04376*
X02267Y04376*
X02267Y04375*
X02266Y04375*
X02266Y04375*
X02265Y04375*
X02265Y04374*
X02264Y04374*
X02264Y04373*
X02263Y04373*
X02263Y04373*
X02263Y04372*
X02262Y04372*
X02262Y04371*
X02262Y04371*
X02262Y04370*
X02262Y04370*
X02262Y04369*
X02262Y04368*
X02262Y04368*
X02262Y04367*
X02262Y04367*
X02262Y04366*
X02262Y04366*
X02262Y04365*
X02262Y04365*
X02262Y04364*
X02263Y04364*
X02263Y04363*
X02263Y04363*
X02264Y04362*
X02264Y04362*
X02265Y04362*
X02265Y04361*
X02266Y04361*
X02266Y04361*
X02267Y04360*
X02267Y04360*
X02268Y04360*
X02268Y04360*
X02269Y04360*
X02269Y04360*
X02270*
X02270Y04360*
X02271Y04360*
X02271Y04360*
X02272Y04360*
X02272Y04360*
X02273Y04361*
X02274Y04361*
X02274Y04361*
X02274Y04362*
X02275Y04362*
X02275Y04362*
X02276Y04363*
X02276Y04363*
X02276Y04364*
X02277Y04364*
X02277Y04365*
X02277Y04365*
X02277Y04366*
X02277Y04366*
X02277Y04367*
X02277Y04367*
X02278Y04368*
Y04171D02*
D01*
X02277Y04172*
X02277Y04172*
X02277Y04173*
X02277Y04173*
X02277Y04174*
X02277Y04174*
X02277Y04175*
X02276Y04175*
X02276Y04176*
X02276Y04176*
X02275Y04177*
X02275Y04177*
X02274Y04177*
X02274Y04178*
X02274Y04178*
X02273Y04178*
X02272Y04179*
X02272Y04179*
X02271Y04179*
X02271Y04179*
X02270Y04179*
X02270Y04179*
X02269*
X02269Y04179*
X02268Y04179*
X02268Y04179*
X02267Y04179*
X02267Y04179*
X02266Y04178*
X02266Y04178*
X02265Y04178*
X02265Y04177*
X02264Y04177*
X02264Y04177*
X02263Y04176*
X02263Y04176*
X02263Y04175*
X02262Y04175*
X02262Y04174*
X02262Y04174*
X02262Y04173*
X02262Y04173*
X02262Y04172*
X02262Y04172*
X02262Y04171*
X02262Y04171*
X02262Y04170*
X02262Y04169*
X02262Y04169*
X02262Y04168*
X02262Y04168*
X02262Y04167*
X02263Y04167*
X02263Y04166*
X02263Y04166*
X02264Y04166*
X02264Y04165*
X02265Y04165*
X02265Y04164*
X02266Y04164*
X02266Y04164*
X02267Y04164*
X02267Y04163*
X02268Y04163*
X02268Y04163*
X02269Y04163*
X02269Y04163*
X02270*
X02270Y04163*
X02271Y04163*
X02271Y04163*
X02272Y04163*
X02272Y04164*
X02273Y04164*
X02274Y04164*
X02274Y04164*
X02274Y04165*
X02275Y04165*
X02275Y04166*
X02276Y04166*
X02276Y04166*
X02276Y04167*
X02277Y04167*
X02277Y04168*
X02277Y04168*
X02277Y04169*
X02277Y04169*
X02277Y04170*
X02277Y04171*
X02278Y04171*
X03808Y04608D02*
D01*
X03807Y04609*
X03807Y04610*
X03807Y04610*
X03807Y04611*
X03807Y04611*
X03807Y04612*
X03807Y04612*
X03806Y04613*
X03806Y04613*
X03806Y04614*
X03805Y04614*
X03805Y04614*
X03804Y04615*
X03804Y04615*
X03804Y04615*
X03803Y04616*
X03802Y04616*
X03802Y04616*
X03801Y04616*
X03801Y04616*
X03800Y04616*
X03800Y04616*
X03799*
X03799Y04616*
X03798Y04616*
X03798Y04616*
X03797Y04616*
X03797Y04616*
X03796Y04616*
X03796Y04615*
X03795Y04615*
X03795Y04615*
X03794Y04614*
X03794Y04614*
X03793Y04614*
X03793Y04613*
X03793Y04613*
X03792Y04612*
X03792Y04612*
X03792Y04611*
X03792Y04611*
X03792Y04610*
X03792Y04610*
X03792Y04609*
X03792Y04608*
X03792Y04608*
X03792Y04607*
X03792Y04607*
X03792Y04606*
X03792Y04606*
X03792Y04605*
X03792Y04605*
X03793Y04604*
X03793Y04604*
X03793Y04603*
X03794Y04603*
X03794Y04602*
X03795Y04602*
X03795Y04602*
X03796Y04601*
X03796Y04601*
X03797Y04601*
X03797Y04601*
X03798Y04601*
X03798Y04601*
X03799Y04600*
X03799Y04600*
X03800*
X03800Y04600*
X03801Y04601*
X03801Y04601*
X03802Y04601*
X03802Y04601*
X03803Y04601*
X03804Y04601*
X03804Y04602*
X03804Y04602*
X03805Y04602*
X03805Y04603*
X03806Y04603*
X03806Y04604*
X03806Y04604*
X03807Y04605*
X03807Y04605*
X03807Y04606*
X03807Y04606*
X03807Y04607*
X03807Y04607*
X03807Y04608*
X03808Y04608*
Y04471D02*
D01*
X03807Y04471*
X03807Y04472*
X03807Y04472*
X03807Y04473*
X03807Y04473*
X03807Y04474*
X03807Y04474*
X03806Y04475*
X03806Y04475*
X03806Y04476*
X03805Y04476*
X03805Y04477*
X03804Y04477*
X03804Y04477*
X03804Y04478*
X03803Y04478*
X03802Y04478*
X03802Y04478*
X03801Y04478*
X03801Y04478*
X03800Y04479*
X03800Y04479*
X03799*
X03799Y04479*
X03798Y04478*
X03798Y04478*
X03797Y04478*
X03797Y04478*
X03796Y04478*
X03796Y04478*
X03795Y04477*
X03795Y04477*
X03794Y04477*
X03794Y04476*
X03793Y04476*
X03793Y04475*
X03793Y04475*
X03792Y04474*
X03792Y04474*
X03792Y04473*
X03792Y04473*
X03792Y04472*
X03792Y04472*
X03792Y04471*
X03792Y04471*
X03792Y04470*
X03792Y04469*
X03792Y04469*
X03792Y04468*
X03792Y04468*
X03792Y04467*
X03792Y04467*
X03793Y04466*
X03793Y04466*
X03793Y04465*
X03794Y04465*
X03794Y04465*
X03795Y04464*
X03795Y04464*
X03796Y04464*
X03796Y04463*
X03797Y04463*
X03797Y04463*
X03798Y04463*
X03798Y04463*
X03799Y04463*
X03799Y04463*
X03800*
X03800Y04463*
X03801Y04463*
X03801Y04463*
X03802Y04463*
X03802Y04463*
X03803Y04463*
X03804Y04464*
X03804Y04464*
X03804Y04464*
X03805Y04465*
X03805Y04465*
X03806Y04465*
X03806Y04466*
X03806Y04466*
X03807Y04467*
X03807Y04467*
X03807Y04468*
X03807Y04468*
X03807Y04469*
X03807Y04469*
X03807Y04470*
X03808Y04471*
M02*