%FSDAX23Y23*%
%MOIN*%
%SFA1B1*%

%IPPOS*%
%ADD10R,0.039400X0.043300*%
%ADD11R,0.059100X0.051200*%
%ADD12R,0.051200X0.059100*%
%ADD13R,0.043300X0.039400*%
%ADD14O,0.090600X0.023600*%
%ADD15R,0.049200X0.066900*%
%ADD16O,0.086600X0.023600*%
%ADD17R,0.063000X0.070900*%
%ADD18R,0.135800X0.061000*%
%ADD19R,0.043300X0.061000*%
%ADD20R,0.043300X0.061000*%
%ADD21R,0.114200X0.072800*%
%ADD22R,0.033500X0.027600*%
%ADD23C,0.019700*%
%ADD24C,0.078700*%
%ADD25C,0.039400*%
%ADD26C,0.023600*%
%ADD27C,0.060000*%
%ADD28C,0.059100*%
%ADD29R,0.059100X0.059100*%
%ADD30C,0.020600*%
%ADD31R,0.059100X0.059100*%
%ADD32C,0.059100*%
%ADD33R,0.059100X0.059100*%
%ADD34R,0.053100X0.053100*%
%ADD35C,0.053100*%
%ADD36C,0.049200*%
%ADD37R,0.049200X0.049200*%
%ADD38C,0.065000*%
%ADD39C,0.050000*%
%LNde-160516-1*%
%LPD*%
G36*
X03714Y05235D02*
X03797Y05228D01*
X03880Y05217*
X03962Y05203*
X04044Y05185*
X04124Y05163*
X04203Y05138*
X04282Y05110*
X04359Y05078*
X04434Y05042*
X04508Y05004*
X04580Y04962*
X04651Y04918*
X04719Y04870*
X04785Y04819*
X04849Y04765*
X04910Y04709*
X04969Y04650*
X05025Y04589*
X05079Y04525*
X05130Y04459*
X05178Y04391*
X05222Y04320*
X05264Y04248*
X05302Y04174*
X05338Y04099*
X05370Y04022*
X05398Y03943*
X05423Y03864*
X05445Y03784*
X05463Y03702*
X05477Y03620*
X05488Y03537*
X05495Y03454*
X05499Y03371*
Y03330*
Y03288*
X05495Y03205*
X05488Y03122*
X05477Y03039*
X05463Y02957*
X05445Y02876*
X05423Y02795*
X05398Y02716*
X05370Y02637*
X05338Y02560*
X05302Y02485*
X05264Y02411*
X05222Y02339*
X05178Y02268*
X05130Y02200*
X05079Y02134*
X05025Y02070*
X04969Y02009*
X04910Y01950*
X04849Y01894*
X04785Y01840*
X04719Y01789*
X04651Y01742*
X04580Y01697*
X04508Y01655*
X04434Y01617*
X04359Y01581*
X04282Y01550*
X04203Y01521*
X04124Y01496*
X04044Y01474*
X03962Y01456*
X03880Y01442*
X03797Y01431*
X03714Y01424*
X03631Y01420*
X03548*
X03465Y01424*
X03382Y01431*
X03299Y01442*
X03217Y01456*
X03136Y01474*
X03055Y01496*
X02976Y01521*
X02897Y01550*
X02820Y01581*
X02745Y01617*
X02671Y01655*
X02599Y01697*
X02528Y01742*
X02460Y01789*
X02394Y01840*
X02330Y01894*
X02269Y01950*
X02210Y02009*
X02154Y02070*
X02100Y02134*
X02049Y02200*
X02002Y02268*
X01957Y02339*
X01915Y02411*
X01877Y02485*
X01841Y02560*
X01810Y02637*
X01781Y02716*
X01756Y02795*
X01734Y02876*
X01716Y02957*
X01702Y03039*
X01691Y03122*
X01684Y03205*
X01680Y03288*
Y03330*
Y03371*
X01684Y03454*
X01691Y03537*
X01702Y03620*
X01716Y03702*
X01734Y03784*
X01756Y03864*
X01781Y03943*
X01810Y04022*
X01841Y04099*
X01877Y04174*
X01915Y04248*
X01957Y04320*
X02002Y04391*
X02049Y04459*
X02100Y04525*
X02154Y04589*
X02210Y04650*
X02269Y04709*
X02330Y04765*
X02394Y04819*
X02460Y04870*
X02528Y04918*
X02599Y04962*
X02671Y05004*
X02745Y05042*
X02820Y05078*
X02897Y05110*
X02976Y05138*
X03055Y05163*
X03136Y05185*
X03217Y05203*
X03299Y05217*
X03382Y05228*
X03465Y05235*
X03548Y05239*
X03631*
X03714Y05235*
G37*
%LNde-160516-2*%
%LPC*%
G36*
X03084Y03343D02*
X03054D01*
X03054Y03339*
X03058Y03330*
X03064Y03323*
X03071Y03317*
X03080Y03313*
X03084Y03313*
Y03343*
G37*
G36*
X02774D02*
X02744D01*
X02744Y03339*
X02748Y03330*
X02754Y03323*
X02761Y03317*
X02770Y03313*
X02774Y03313*
Y03343*
G37*
G36*
X02319Y03324D02*
X02291D01*
Y03287*
X02319*
Y03324*
G37*
G36*
X02816Y03343D02*
X02785D01*
Y03313*
X02789Y03313*
X02798Y03317*
X02806Y03323*
X02811Y03330*
X02815Y03339*
X02816Y03343*
G37*
G36*
X02279Y03372D02*
X02252D01*
Y03335*
X02279*
Y03372*
G37*
G36*
X02586Y03344D02*
X02555D01*
Y03313*
X02559Y03314*
X02568Y03317*
X02576Y03323*
X02582Y03331*
X02585Y03340*
X02586Y03344*
G37*
G36*
X03126Y03343D02*
X03095D01*
Y03313*
X03099Y03313*
X03108Y03317*
X03116Y03323*
X03121Y03330*
X03125Y03339*
X03126Y03343*
G37*
G36*
X02279Y03324D02*
X02252D01*
Y03287*
X02279*
Y03324*
G37*
G36*
X01869Y03424D02*
X01851Y03423D01*
X01833Y03417*
X01816Y03408*
X01802Y03397*
X01790Y03382*
X01781Y03366*
X01776Y03348*
X01774Y03330*
X01776Y03311*
X01781Y03293*
X01790Y03277*
X01802Y03262*
X01816Y03251*
X01833Y03242*
X01851Y03236*
X01869Y03235*
X01888Y03236*
X01905Y03242*
X01922Y03251*
X01936Y03262*
X01948Y03277*
X01957Y03293*
X01962Y03311*
X01964Y03330*
X01962Y03348*
X01957Y03366*
X01948Y03382*
X01936Y03397*
X01922Y03408*
X01905Y03417*
X01888Y03423*
X01869Y03424*
G37*
G36*
X04345Y03200D02*
Y03165D01*
X04380*
X04380Y03170*
X04376Y03180*
X04369Y03189*
X04360Y03196*
X04350Y03200*
X04345Y03200*
G37*
G36*
X04245D02*
Y03165D01*
X04280*
X04280Y03170*
X04276Y03180*
X04269Y03189*
X04260Y03196*
X04250Y03200*
X04245Y03200*
G37*
G36*
X02554Y03287D02*
X02518D01*
Y03255*
X02554*
Y03287*
G37*
G36*
X02508Y03326D02*
X02445D01*
Y03284*
X02508*
Y03326*
G37*
G36*
X02434D02*
X02371D01*
Y03284*
X02434*
Y03326*
G37*
G36*
X02601Y03287D02*
X02565D01*
Y03255*
X02601*
Y03287*
G37*
G36*
X02319Y03372D02*
X02291D01*
Y03335*
X02319*
Y03372*
G37*
G36*
X04334Y03454D02*
X04299D01*
X04299Y03449*
X04303Y03439*
X04310Y03430*
X04319Y03423*
X04329Y03419*
X04334Y03419*
Y03454*
G37*
G36*
X04234D02*
X04199D01*
X04199Y03449*
X04203Y03439*
X04210Y03430*
X04219Y03423*
X04229Y03419*
X04234Y03419*
Y03454*
G37*
G36*
X02264Y03436D02*
X02233D01*
Y03400*
X02264*
Y03436*
G37*
G36*
X04280Y03454D02*
X04245D01*
Y03419*
X04250Y03419*
X04260Y03423*
X04269Y03430*
X04276Y03439*
X04280Y03449*
X04280Y03454*
G37*
G36*
X04334Y03500D02*
X04329Y03500D01*
X04319Y03496*
X04310Y03489*
X04303Y03480*
X04299Y03470*
X04299Y03465*
X04334*
Y03500*
G37*
G36*
X02264Y03483D02*
X02233D01*
Y03448*
X02264*
Y03483*
G37*
G36*
X04380Y03454D02*
X04345D01*
Y03419*
X04350Y03419*
X04360Y03423*
X04369Y03430*
X04376Y03439*
X04380Y03449*
X04380Y03454*
G37*
G36*
X02100Y03561D02*
X02089Y03559D01*
X02079Y03555*
X02070Y03549*
X02064Y03540*
X02060Y03530*
X02058Y03520*
X02060Y03509*
X02064Y03499*
X02068Y03493*
Y03394*
Y03376*
X02067*
Y03283*
X02141*
Y03376*
X02142Y03381*
X02157Y03396*
X02193*
Y03400*
X02221*
Y03442*
Y03483*
X02193*
Y03487*
X02140*
Y03513*
X02141Y03520*
X02139Y03530*
X02135Y03540*
X02129Y03549*
X02120Y03555*
X02110Y03559*
X02100Y03561*
G37*
G36*
X03084Y03385D02*
X03080Y03384D01*
X03071Y03381*
X03064Y03375*
X03058Y03367*
X03054Y03358*
X03054Y03355*
X03084*
Y03385*
G37*
G36*
X02774D02*
X02770Y03384D01*
X02761Y03381*
X02754Y03375*
X02748Y03367*
X02744Y03358*
X02744Y03355*
X02774*
Y03385*
G37*
G36*
X02434Y03380D02*
X02371D01*
Y03338*
X02434*
Y03380*
G37*
G36*
X02785Y03385D02*
Y03355D01*
X02816*
X02815Y03358*
X02811Y03367*
X02806Y03375*
X02798Y03381*
X02789Y03384*
X02785Y03385*
G37*
G36*
X02544Y03386D02*
X02540Y03385D01*
X02531Y03382*
X02523Y03376*
X02517Y03368*
X02514Y03359*
X02513Y03357*
X02508Y03358*
Y03380*
X02445*
Y03338*
X02508*
Y03341*
X02513Y03342*
X02514Y03340*
X02517Y03331*
X02523Y03323*
X02531Y03317*
X02540Y03314*
X02544Y03313*
Y03350*
Y03386*
G37*
G36*
X02555D02*
Y03355D01*
X02586*
X02585Y03359*
X02582Y03368*
X02576Y03376*
X02568Y03382*
X02559Y03385*
X02555Y03386*
G37*
G36*
X03095Y03385D02*
Y03355D01*
X03126*
X03125Y03358*
X03121Y03367*
X03116Y03375*
X03108Y03381*
X03099Y03384*
X03095Y03385*
G37*
G36*
X04334Y03200D02*
X04329Y03200D01*
X04319Y03196*
X04310Y03189*
X04303Y03180*
X04299Y03170*
X04299Y03165*
X04334*
Y03200*
G37*
G36*
X04640Y02545D02*
X04628Y02544D01*
X04617Y02539*
X04607Y02532*
X04600Y02522*
X04595Y02511*
X04594Y02500*
X04595Y02488*
X04600Y02477*
X04604Y02472*
Y02435*
X04536*
Y02431*
X04508*
Y02390*
Y02348*
X04536*
Y02344*
X04618*
Y02354*
X04620*
X04629Y02355*
X04637Y02359*
X04645Y02364*
X04665Y02384*
X04671Y02392*
X04674Y02400*
X04675Y02410*
Y02472*
X04679Y02477*
X04684Y02488*
X04685Y02500*
X04684Y02511*
X04679Y02522*
X04672Y02532*
X04662Y02539*
X04651Y02544*
X04640Y02545*
G37*
G36*
X03490Y01971D02*
X03479Y01969D01*
X03469Y01965*
X03460Y01959*
X03454Y01950*
X03450Y01940*
X03448Y01930*
X03450Y01919*
X03454Y01909*
Y01853*
X03454Y01851*
Y01822*
X03418*
X03361Y01878*
X03354Y01884*
X03345Y01888*
X03336Y01889*
X03303*
X03298Y01893*
X03287Y01898*
X03275Y01899*
X03263Y01898*
X03252Y01893*
X03242Y01886*
X03235Y01876*
X03230Y01865*
X03228Y01853*
X03230Y01841*
X03235Y01830*
X03242Y01821*
X03252Y01813*
X03263Y01809*
X03275Y01807*
X03287Y01809*
X03298Y01813*
X03303Y01817*
X03321*
X03378Y01761*
X03385Y01755*
X03394Y01752*
X03403Y01750*
X03454*
Y01749*
X03525*
Y01784*
X03525Y01786*
X03525Y01788*
Y01816*
Y01851*
X03525Y01853*
Y01909*
X03529Y01919*
X03531Y01930*
X03529Y01940*
X03525Y01950*
X03519Y01959*
X03510Y01965*
X03500Y01969*
X03490Y01971*
G37*
G36*
X03280Y01776D02*
Y01741D01*
X03316*
X03315Y01746*
X03311Y01756*
X03304Y01765*
X03296Y01772*
X03286Y01776*
X03280Y01776*
G37*
G36*
X04496Y02384D02*
X04465D01*
Y02348*
X04496*
Y02384*
G37*
G36*
X03225Y02426D02*
Y02395D01*
X03256*
X03255Y02399*
X03252Y02408*
X03246Y02416*
X03238Y02422*
X03229Y02425*
X03225Y02426*
G37*
G36*
X03214D02*
X03210Y02425D01*
X03201Y02422*
X03193Y02416*
X03187Y02408*
X03184Y02399*
X03183Y02395*
X03214*
Y02426*
G37*
G36*
X04496Y02431D02*
X04465D01*
Y02395*
X04496*
Y02431*
G37*
G36*
X03269Y01776D02*
X03264Y01776D01*
X03254Y01772*
X03245Y01765*
X03238Y01756*
X03234Y01746*
X03233Y01741*
X03269*
Y01776*
G37*
G36*
X03316Y01729D02*
X03280D01*
Y01694*
X03286Y01694*
X03296Y01699*
X03304Y01705*
X03311Y01714*
X03315Y01724*
X03316Y01729*
G37*
G36*
X03269D02*
X03233D01*
X03234Y01724*
X03238Y01714*
X03245Y01705*
X03254Y01699*
X03264Y01694*
X03269Y01694*
Y01729*
G37*
G36*
X03899D02*
X03863D01*
X03864Y01724*
X03868Y01714*
X03875Y01705*
X03883Y01699*
X03894Y01694*
X03899Y01694*
Y01729*
G37*
G36*
X03946D02*
X03910D01*
Y01694*
X03915Y01694*
X03926Y01699*
X03934Y01705*
X03941Y01714*
X03945Y01724*
X03946Y01729*
G37*
G36*
X03910Y01776D02*
Y01741D01*
X03946*
X03945Y01746*
X03941Y01756*
X03934Y01765*
X03926Y01772*
X03915Y01776*
X03910Y01776*
G37*
G36*
X03899D02*
X03894Y01776D01*
X03883Y01772*
X03875Y01765*
X03868Y01756*
X03864Y01746*
X03863Y01741*
X03899*
Y01776*
G37*
G36*
X04450Y01929D02*
X04431Y01928D01*
X04413Y01922*
X04397Y01913*
X04382Y01902*
X04371Y01887*
X04362Y01871*
X04356Y01853*
X04355Y01835*
X04356Y01816*
X04362Y01798*
X04371Y01782*
X04382Y01767*
X04397Y01756*
X04413Y01747*
X04431Y01741*
X04450Y01740*
X04468Y01741*
X04486Y01747*
X04502Y01756*
X04517Y01767*
X04528Y01782*
X04537Y01798*
X04543Y01816*
X04544Y01835*
X04543Y01853*
X04537Y01871*
X04528Y01887*
X04517Y01902*
X04502Y01913*
X04486Y01922*
X04468Y01928*
X04450Y01929*
G37*
G36*
X04234Y02494D02*
X04199D01*
X04199Y02489*
X04203Y02479*
X04210Y02470*
X04219Y02463*
X04229Y02459*
X04234Y02459*
Y02494*
G37*
G36*
Y03154D02*
X04199D01*
X04199Y03149*
X04203Y03139*
X04210Y03130*
X04219Y03123*
X04229Y03119*
X04234Y03119*
Y03154*
G37*
G36*
X04040Y03205D02*
X04028Y03204D01*
X04017Y03199*
X04007Y03192*
X04000Y03182*
X03995Y03171*
X03994Y03160*
X03995Y03148*
X04000Y03137*
X04007Y03127*
X04017Y03120*
X04028Y03115*
X04040Y03114*
X04051Y03115*
X04062Y03120*
X04072Y03127*
X04079Y03137*
X04084Y03148*
X04085Y03160*
X04084Y03171*
X04079Y03182*
X04072Y03192*
X04062Y03199*
X04051Y03204*
X04040Y03205*
G37*
G36*
X04496Y03091D02*
X04465D01*
Y03055*
X04496*
Y03091*
G37*
G36*
X04334Y03154D02*
X04299D01*
X04299Y03149*
X04303Y03139*
X04310Y03130*
X04319Y03123*
X04329Y03119*
X04334Y03119*
Y03154*
G37*
G36*
X04234Y03200D02*
X04229Y03200D01*
X04219Y03196*
X04210Y03189*
X04203Y03180*
X04199Y03170*
X04199Y03165*
X04234*
Y03200*
G37*
G36*
X04380Y03154D02*
X04345D01*
Y03119*
X04350Y03119*
X04360Y03123*
X04369Y03130*
X04376Y03139*
X04380Y03149*
X04380Y03154*
G37*
G36*
X04280D02*
X04245D01*
Y03119*
X04250Y03119*
X04260Y03123*
X04269Y03130*
X04276Y03139*
X04280Y03149*
X04280Y03154*
G37*
G36*
X04496Y03044D02*
X04465D01*
Y03008*
X04496*
Y03044*
G37*
G36*
X04380Y02494D02*
X04345D01*
Y02459*
X04350Y02459*
X04360Y02463*
X04369Y02470*
X04376Y02479*
X04380Y02489*
X04380Y02494*
G37*
G36*
X04280D02*
X04245D01*
Y02459*
X04250Y02459*
X04260Y02463*
X04269Y02470*
X04276Y02479*
X04280Y02489*
X04280Y02494*
G37*
G36*
X04334D02*
X04299D01*
X04299Y02489*
X04303Y02479*
X04310Y02470*
X04319Y02463*
X04329Y02459*
X04334Y02459*
Y02494*
G37*
G36*
X02294Y02604D02*
X02259D01*
X02259Y02599*
X02263Y02589*
X02270Y02580*
X02279Y02573*
X02289Y02569*
X02294Y02569*
Y02604*
G37*
G36*
X02305Y02650D02*
Y02615D01*
X02340*
X02340Y02620*
X02336Y02630*
X02329Y02639*
X02320Y02646*
X02310Y02650*
X02305Y02650*
G37*
G36*
X02294D02*
X02289Y02650D01*
X02279Y02646*
X02270Y02639*
X02263Y02630*
X02259Y02620*
X02259Y02615*
X02294*
Y02650*
G37*
G36*
X02340Y02604D02*
X02305D01*
Y02569*
X02310Y02569*
X02320Y02573*
X02329Y02580*
X02336Y02589*
X02340Y02599*
X02340Y02604*
G37*
G36*
X03638Y04805D02*
X03556D01*
Y04801*
X03528*
Y04760*
Y04718*
X03556*
Y04714*
X03638*
Y04724*
X04042*
X04045Y04720*
X04044Y04710*
Y04545*
X04025Y04526*
X03340*
X03325Y04524*
X03312Y04519*
X03308Y04516*
X03294*
Y04502*
X03291Y04498*
X03286Y04485*
X03284Y04471*
X03286Y04456*
X03291Y04443*
X03294Y04439*
Y04425*
X03304*
Y04244*
X03290Y04230*
X03285Y04232*
Y04308*
X03114*
Y04292*
X02834*
X02826Y04291*
X02820Y04289*
X02814Y04284*
X02809Y04278*
X02807Y04272*
X02806Y04265*
X02807Y04257*
X02809Y04251*
X02812Y04247*
X02810Y04242*
X02796*
X02749Y04289*
X02751Y04292*
X02754Y04300*
X02755Y04310*
Y04450*
X02760*
Y04549*
X02679*
Y04450*
X02684*
Y04324*
X02566Y04207*
X02297*
X02292Y04211*
X02281Y04215*
X02270Y04217*
X02258Y04215*
X02247Y04211*
X02237Y04203*
X02230Y04194*
X02225Y04183*
X02224Y04171*
X02225Y04159*
X02230Y04148*
X02237Y04139*
X02247Y04132*
X02258Y04127*
X02270Y04125*
X02281Y04127*
X02292Y04132*
X02297Y04135*
X02581*
X02590Y04137*
X02599Y04140*
X02607Y04146*
X02710Y04250*
X02757Y04203*
X02755Y04198*
X02714*
Y04116*
X02718*
Y04088*
X02760*
X02801*
Y04112*
X02805Y04115*
X02810Y04113*
X02810Y04112*
X02810Y04112*
X02811Y04105*
X02817Y04098*
X02824Y04092*
X02834Y04090*
X02859*
Y04115*
X02865*
Y04120*
X02919*
X02919Y04124*
X02914Y04132*
X02909Y04135*
X02910Y04140*
X02910Y04140*
X02916Y04145*
X02921Y04151*
X02923Y04157*
X02924Y04165*
X02923Y04172*
X02921Y04178*
X02916Y04184*
X02913Y04186*
Y04193*
X02916Y04195*
X02921Y04201*
X02923Y04207*
X02924Y04215*
X02923Y04222*
X02921Y04228*
X02918Y04232*
X02921Y04237*
X02999*
X03001Y04232*
X02998Y04228*
X02996Y04222*
X02995Y04215*
X02996Y04207*
X02998Y04201*
X03003Y04195*
X03006Y04193*
Y04186*
X03003Y04184*
X02998Y04178*
X02996Y04172*
X02995Y04165*
X02996Y04157*
X02998Y04151*
X03003Y04145*
X03006Y04143*
Y04136*
X03003Y04134*
X02998Y04128*
X02996Y04122*
X02995Y04115*
X02996Y04107*
X02998Y04101*
X02999Y04099*
X02977Y04077*
X02976Y04075*
X02956*
Y04071*
X02928*
Y04030*
X02922*
Y04024*
X02885*
Y03995*
X02881*
Y03985*
X02730*
X02720Y03984*
X02712Y03981*
X02704Y03975*
X02644Y03915*
X02639Y03907*
X02635Y03899*
X02634Y03890*
Y03636*
X02335*
X02314Y03657*
X02314Y03663*
X02309Y03674*
X02302Y03683*
X02292Y03691*
X02281Y03695*
X02270Y03697*
X02258Y03695*
X02247Y03691*
X02242Y03687*
X02233*
X02155Y03764*
Y04255*
X02233Y04332*
X02242*
X02247Y04328*
X02258Y04324*
X02270Y04322*
X02281Y04324*
X02292Y04328*
X02302Y04336*
X02309Y04345*
X02314Y04356*
X02315Y04368*
X02314Y04380*
X02309Y04391*
X02302Y04400*
X02292Y04408*
X02281Y04412*
X02270Y04414*
X02258Y04412*
X02247Y04408*
X02242Y04404*
X02218*
X02209Y04402*
X02200Y04399*
X02193Y04393*
X02094Y04295*
X02089Y04287*
X02085Y04279*
X02084Y04270*
Y03750*
X02085Y03740*
X02089Y03732*
X02094Y03724*
X02193Y03626*
X02200Y03620*
X02209Y03617*
X02218Y03615*
X02242*
X02247Y03612*
X02258Y03607*
X02264Y03606*
X02295Y03575*
X02302Y03569*
X02311Y03566*
X02320Y03565*
X02737*
Y03558*
X02822*
Y03643*
X02737*
Y03636*
X02705*
Y03875*
X02744Y03914*
X02881*
Y03904*
X03038*
Y03984*
Y04059*
X03066Y04087*
X03086*
X03093Y04088*
X03099Y04090*
X03105Y04095*
X03110Y04101*
X03112Y04107*
X03113Y04115*
X03112Y04122*
X03110Y04128*
X03107Y04132*
X03110Y04137*
X03132*
X03139Y04138*
X03146Y04140*
X03152Y04145*
X03158Y04151*
X03192*
X03197Y04151*
Y04048*
X03292*
Y04151*
X03290*
X03285Y04151*
Y04156*
X03302*
X03311Y04158*
X03320Y04161*
X03327Y04167*
X03365Y04204*
X03371Y04212*
X03374Y04220*
X03375Y04230*
Y04415*
X03904*
Y04147*
X03900Y04142*
X03895Y04131*
X03894Y04120*
X03895Y04108*
X03900Y04097*
X03907Y04087*
X03917Y04080*
X03928Y04075*
X03940Y04074*
X03951Y04075*
X03959Y04079*
X03964Y04075*
Y04001*
X03921Y03958*
X03917Y03952*
X03915Y03946*
X03914Y03940*
Y03857*
X03907Y03852*
X03900Y03842*
X03895Y03831*
X03894Y03820*
X03895Y03808*
X03900Y03797*
X03905Y03790*
X03902Y03785*
X03638*
X03631Y03784*
X03625Y03782*
X03619Y03778*
X03421Y03580*
X03417Y03574*
X03415Y03568*
X03414Y03562*
Y03538*
X03409Y03536*
X03400Y03539*
X03390Y03541*
X03379Y03539*
X03369Y03535*
X03360Y03529*
X03354Y03520*
X03350Y03510*
X03348Y03500*
X03350Y03489*
X03354Y03479*
X03360Y03470*
X03364Y03468*
Y03227*
X03359Y03226*
X03359Y03226*
X03350Y03233*
X03340Y03237*
X03330Y03238*
X03319Y03237*
X03309Y03233*
X03158*
X03130Y03261*
Y03291*
X03049*
Y03286*
X02820*
Y03291*
X02739*
Y03261*
X02689Y03210*
X02605*
Y03216*
X02601*
Y03243*
X02518*
Y03216*
X02514*
Y03208*
X02512Y03203*
X02367*
Y03129*
X02337Y03100*
X02278*
Y03110*
X02230*
Y03283*
X02232*
Y03376*
X02157*
Y03283*
X02159*
Y03110*
X02111*
Y03100*
X02084*
X02075Y03098*
X02066Y03095*
X02059Y03089*
X02014Y03045*
X02009Y03037*
X02005Y03029*
X02004Y03020*
Y02790*
X02005Y02780*
X02009Y02772*
X02014Y02764*
X02058Y02721*
X02065Y02715*
X02074Y02712*
X02083Y02710*
X02124*
Y02709*
X02146*
X02171Y02684*
X02178Y02679*
X02187Y02675*
X02196Y02674*
X02272*
X02277Y02670*
X02288Y02665*
X02300Y02664*
X02311Y02665*
X02322Y02670*
X02327Y02674*
X02375*
X02447Y02602*
X02444Y02598*
X02440Y02599*
X02430Y02601*
X02419Y02599*
X02409Y02595*
X02400Y02589*
X02394Y02580*
X02390Y02570*
X02388Y02560*
X02390Y02549*
X02394Y02539*
X02400Y02530*
X02409Y02524*
X02419Y02520*
X02430Y02518*
X02440Y02520*
X02450Y02524*
X02459Y02530*
X02461Y02534*
X02559*
X02576Y02516*
X02578Y02515*
X02576Y02510*
X02535*
X02528Y02509*
X02522Y02507*
X02516Y02503*
X02451Y02438*
X02447Y02432*
X02445Y02426*
X02444Y02420*
Y02401*
X02440Y02399*
X02434Y02390*
X02430Y02380*
X02428Y02370*
X02430Y02359*
X02432Y02353*
X02428Y02350*
X02349Y02429*
X02343Y02434*
X02337Y02436*
X02336Y02437*
X02332Y02442*
X02322Y02449*
X02311Y02454*
X02300Y02455*
X02288Y02454*
X02277Y02449*
X02267Y02442*
X02260Y02432*
X02255Y02421*
X02254Y02410*
X02255Y02398*
X02260Y02387*
X02267Y02377*
X02277Y02370*
X02288Y02365*
X02300Y02364*
X02311Y02365*
X02322Y02370*
X02327Y02373*
X02432Y02267*
X02430Y02262*
X02317*
X02316Y02267*
X02322Y02270*
X02332Y02277*
X02339Y02287*
X02344Y02298*
X02345Y02310*
X02344Y02321*
X02339Y02332*
X02332Y02342*
X02322Y02349*
X02311Y02354*
X02300Y02355*
X02288Y02354*
X02277Y02349*
X02267Y02342*
X02260Y02332*
X02255Y02321*
X02254Y02310*
X02255Y02298*
X02260Y02287*
X02267Y02277*
X02277Y02270*
X02283Y02267*
X02282Y02262*
X02266*
X02247Y02281*
Y02468*
X02259Y02480*
X02265Y02480*
X02267Y02477*
X02277Y02470*
X02288Y02465*
X02300Y02464*
X02311Y02465*
X02322Y02470*
X02332Y02477*
X02339Y02487*
X02344Y02498*
X02345Y02510*
X02344Y02521*
X02339Y02532*
X02332Y02542*
X02322Y02549*
X02311Y02554*
X02300Y02555*
X02288Y02554*
X02277Y02549*
X02267Y02542*
X02264Y02537*
X02250*
X02242Y02536*
X02236Y02534*
X02230Y02529*
X02200Y02499*
X02195Y02493*
X02193Y02487*
X02192Y02480*
Y02270*
X02193Y02262*
X02195Y02256*
X02200Y02250*
X02235Y02215*
X02241Y02210*
X02247Y02208*
X02255Y02207*
X02663*
Y02139*
X02664Y02131*
X02666Y02125*
X02671Y02119*
X02760Y02030*
X02766Y02025*
X02772Y02023*
X02780Y02022*
X02799*
Y02014*
X02940*
Y02022*
X02958*
X03000Y01980*
X03006Y01975*
X03012Y01973*
X03020Y01972*
X03420*
X03427Y01973*
X03433Y01975*
X03439Y01980*
X03579Y02120*
X03584Y02126*
X03586Y02132*
X03587Y02140*
Y02180*
X03589Y02180*
X03595Y02189*
X03599Y02199*
X03601Y02210*
X03599Y02220*
X03597Y02225*
X03600Y02229*
X03895*
X03902Y02230*
X03908Y02233*
X03913Y02237*
X04108Y02432*
X04109Y02432*
X04114Y02431*
Y02220*
X03989Y02095*
X03780*
X03773Y02094*
X03767Y02092*
X03761Y02088*
X03611Y01938*
X03607Y01932*
X03605Y01926*
X03604Y01920*
Y01890*
X03594*
Y01816*
Y01788*
X03594Y01786*
X03594Y01784*
Y01749*
X03665*
Y01750*
X03736*
X03745Y01752*
X03754Y01755*
X03761Y01761*
X03818Y01817*
X03876*
X03881Y01813*
X03893Y01809*
X03905Y01807*
X03916Y01809*
X03928Y01813*
X03937Y01821*
X03944Y01830*
X03949Y01841*
X03951Y01853*
X03949Y01865*
X03944Y01876*
X03937Y01886*
X03928Y01893*
X03916Y01898*
X03905Y01899*
X03893Y01898*
X03881Y01893*
X03876Y01889*
X03803*
X03794Y01888*
X03785Y01884*
X03778Y01878*
X03721Y01822*
X03665*
Y01890*
X03655*
Y01909*
X03790Y02044*
X04000*
X04006Y02045*
X04012Y02047*
X04018Y02051*
X04158Y02191*
X04162Y02197*
X04164Y02203*
X04165Y02210*
Y02462*
X04172Y02467*
X04179Y02477*
X04184Y02488*
X04185Y02500*
X04184Y02511*
X04179Y02522*
X04172Y02532*
X04163Y02539*
Y02540*
X04164Y02544*
X04225*
X04226Y02539*
X04219Y02536*
X04210Y02529*
X04203Y02520*
X04199Y02510*
X04199Y02505*
X04240*
X04280*
X04280Y02510*
X04276Y02520*
X04269Y02529*
X04260Y02536*
X04253Y02539*
X04254Y02544*
X04325*
X04326Y02539*
X04319Y02536*
X04310Y02529*
X04303Y02520*
X04299Y02510*
X04299Y02505*
X04340*
X04380*
X04380Y02510*
X04376Y02520*
X04369Y02529*
X04360Y02536*
X04353Y02539*
X04354Y02544*
X04415*
X04416Y02540*
Y02539*
X04407Y02532*
X04400Y02522*
X04395Y02511*
X04394Y02500*
X04395Y02488*
X04400Y02477*
X04407Y02467*
X04417Y02460*
X04428Y02455*
X04440Y02454*
X04451Y02455*
X04462Y02460*
X04472Y02467*
X04479Y02477*
X04484Y02488*
X04485Y02500*
X04484Y02511*
X04479Y02522*
X04472Y02532*
X04463Y02539*
Y02540*
X04464Y02544*
X04514*
Y02537*
X04507Y02532*
X04500Y02522*
X04495Y02511*
X04494Y02500*
X04495Y02488*
X04500Y02477*
X04507Y02467*
X04517Y02460*
X04528Y02455*
X04540Y02454*
X04551Y02455*
X04562Y02460*
X04572Y02467*
X04579Y02477*
X04584Y02488*
X04585Y02500*
X04584Y02511*
X04579Y02522*
X04572Y02532*
X04565Y02537*
Y02560*
X04564Y02566*
X04562Y02572*
X04558Y02578*
X04548Y02588*
X04542Y02592*
X04536Y02594*
X04530Y02595*
X04140*
X04133Y02594*
X04127Y02592*
X04121Y02588*
X04072Y02538*
X04069Y02534*
X04062Y02539*
X04051Y02544*
X04040Y02545*
X04028Y02544*
X04017Y02539*
X04007Y02532*
X04000Y02522*
X03995Y02511*
X03994Y02500*
X03995Y02491*
X03988Y02484*
X03983Y02487*
X03984Y02488*
X03985Y02500*
X03984Y02511*
X03979Y02522*
X03972Y02532*
X03962Y02539*
X03951Y02544*
X03940Y02545*
X03928Y02544*
X03917Y02539*
X03907Y02532*
X03900Y02522*
X03895Y02511*
X03894Y02500*
X03895Y02491*
X03764Y02360*
X03250*
X03247Y02365*
X03252Y02371*
X03255Y02380*
X03256Y02384*
X03183*
X03184Y02380*
X03187Y02371*
X03192Y02365*
X03189Y02360*
X03104*
X03103Y02363*
X03102Y02365*
X03106Y02371*
X03109Y02377*
X03110Y02385*
X03109Y02392*
X03106Y02398*
X03102Y02404*
X03099Y02406*
Y02413*
X03102Y02415*
X03106Y02421*
X03109Y02427*
X03110Y02435*
X03109Y02442*
X03106Y02448*
X03102Y02454*
X03099Y02456*
Y02463*
X03102Y02465*
X03106Y02471*
X03109Y02477*
X03110Y02485*
X03109Y02492*
X03106Y02498*
X03102Y02504*
X03099Y02506*
Y02513*
X03102Y02515*
X03106Y02521*
X03109Y02527*
X03110Y02535*
X03109Y02542*
X03106Y02548*
X03102Y02554*
X03096Y02559*
X03095Y02559*
X03095Y02565*
X03099Y02568*
X03104Y02575*
X03105Y02579*
X03049*
X02992*
X02993Y02575*
X02998Y02568*
X03003Y02565*
X03002Y02559*
X03001Y02559*
X02996Y02554*
X02991Y02548*
X02988Y02542*
X02987Y02535*
X02988Y02527*
X02991Y02521*
X02996Y02515*
X02998Y02513*
Y02506*
X02996Y02504*
X02991Y02498*
X02988Y02492*
X02987Y02485*
X02988Y02477*
X02991Y02471*
X02996Y02465*
X02998Y02463*
Y02456*
X02996Y02454*
X02991Y02448*
X02988Y02442*
X02987Y02435*
X02988Y02427*
X02991Y02421*
X02995Y02415*
X02995Y02413*
X02993Y02410*
X02975*
X02968Y02409*
X02962Y02407*
X02956Y02403*
X02921Y02368*
X02917Y02362*
X02915Y02356*
X02914Y02350*
Y02220*
X02915Y02213*
X02917Y02207*
X02921Y02201*
X02973Y02150*
X02970Y02145*
X02970Y02145*
X02940*
Y02155*
X02864*
Y02223*
X02863Y02230*
X02860Y02237*
X02856Y02243*
X02794Y02304*
X02788Y02309*
X02782Y02311*
X02775Y02312*
X02748*
X02745Y02317*
X02748Y02321*
X02751Y02327*
X02752Y02335*
X02751Y02342*
X02748Y02348*
X02744Y02354*
X02744Y02356*
X02746Y02359*
X02775*
X02781Y02360*
X02787Y02362*
X02793Y02366*
X02867Y02441*
X02871Y02446*
X02874Y02452*
X02875Y02459*
Y02969*
X02880Y02970*
X02880Y02969*
X02884Y02959*
X02890Y02950*
X02894Y02948*
Y02660*
X02895Y02653*
X02897Y02647*
X02901Y02641*
X02926Y02616*
X02932Y02612*
X02938Y02610*
X02945Y02609*
X03000*
X03001Y02604*
X02998Y02602*
X02993Y02594*
X02992Y02590*
X03049*
X03105*
X03104Y02594*
X03099Y02602*
X03095Y02605*
X03095Y02610*
X03096Y02610*
X03102Y02615*
X03106Y02621*
X03109Y02627*
X03110Y02635*
X03109Y02642*
X03106Y02648*
X03102Y02654*
X03103Y02656*
X03104Y02659*
X03244*
X03291Y02611*
X03292Y02608*
X03269Y02585*
X03241*
X03239Y02589*
X03230Y02595*
X03220Y02599*
X03210Y02601*
X03199Y02599*
X03189Y02595*
X03180Y02589*
X03174Y02580*
X03170Y02570*
X03168Y02560*
X03170Y02549*
X03174Y02539*
X03180Y02530*
X03189Y02524*
X03199Y02520*
X03210Y02518*
X03220Y02520*
X03230Y02524*
X03239Y02530*
X03241Y02534*
X03280*
X03286Y02535*
X03292Y02537*
X03298Y02541*
X03331Y02574*
X03702*
X03709Y02575*
X03715Y02578*
X03720Y02582*
X03903Y02765*
X03907Y02767*
X03917Y02760*
X03928Y02755*
X03940Y02754*
X03949Y02755*
X03951Y02750*
X03698Y02497*
X03590*
X03589Y02499*
X03580Y02505*
X03570Y02509*
X03560Y02511*
X03549Y02509*
X03539Y02505*
X03530Y02499*
X03524Y02490*
X03520Y02480*
X03519Y02475*
X03514Y02472*
X03510Y02475*
X03500Y02479*
X03490Y02481*
X03479Y02479*
X03469Y02475*
X03460Y02469*
X03454Y02460*
X03450Y02450*
X03448Y02440*
X03450Y02429*
X03454Y02419*
X03460Y02410*
X03469Y02404*
X03479Y02400*
X03490Y02398*
X03499Y02400*
X03504Y02399*
X03755*
X03761Y02400*
X03768Y02402*
X03773Y02406*
X04108Y02742*
X04109Y02742*
X04114Y02741*
Y02740*
X04115Y02733*
X04117Y02727*
X04121Y02721*
X04151Y02691*
X04157Y02687*
X04163Y02685*
X04170Y02684*
X04792*
X04798Y02685*
X04804Y02687*
X04810Y02691*
X04942Y02823*
X04947Y02822*
Y02820*
X05073*
Y02824*
X05162*
X05167Y02817*
X05177Y02810*
X05188Y02805*
X05200Y02804*
X05211Y02805*
X05222Y02810*
X05232Y02817*
X05239Y02827*
X05244Y02838*
X05245Y02850*
X05244Y02861*
X05239Y02872*
X05232Y02882*
X05222Y02889*
X05211Y02894*
X05200Y02895*
X05188Y02894*
X05177Y02889*
X05167Y02882*
X05162Y02875*
X05073*
Y02879*
X04947*
Y02875*
X04935*
Y02919*
X04940Y02924*
X04947*
Y02920*
X05073*
Y02924*
X05162*
X05167Y02917*
X05177Y02910*
X05188Y02905*
X05200Y02904*
X05211Y02905*
X05222Y02910*
X05232Y02917*
X05239Y02927*
X05244Y02938*
X05245Y02950*
X05244Y02961*
X05239Y02972*
X05232Y02982*
X05222Y02989*
X05211Y02994*
X05200Y02995*
X05188Y02994*
X05177Y02989*
X05167Y02982*
X05162Y02975*
X05073*
Y02979*
X04947*
Y02975*
X04930*
X04923Y02974*
X04917Y02972*
X04911Y02968*
X04891Y02948*
X04887Y02942*
X04885Y02936*
X04884Y02930*
Y02880*
X04769Y02765*
X04685*
Y02845*
X04594*
Y02765*
X04577*
X04574Y02770*
X04579Y02777*
X04584Y02788*
X04585Y02800*
X04584Y02811*
X04579Y02822*
X04572Y02832*
X04564Y02838*
X04562Y02842*
X04558Y02848*
X04518Y02888*
X04512Y02892*
X04506Y02894*
X04500Y02895*
X04140*
X04133Y02894*
X04127Y02892*
X04121Y02888*
X04072Y02838*
X04069Y02834*
X04062Y02839*
X04051Y02844*
X04040Y02845*
X04028Y02844*
X04017Y02839*
X04007Y02832*
X04000Y02822*
X03995Y02811*
X03994Y02800*
X03995Y02794*
X03989Y02788*
X03984Y02790*
X03985Y02800*
X03984Y02811*
X03979Y02822*
X03972Y02832*
X03962Y02839*
X03951Y02844*
X03940Y02845*
X03928Y02844*
X03917Y02839*
X03917Y02839*
X03912Y02841*
Y03118*
X03917Y03120*
X03917Y03120*
X03928Y03115*
X03940Y03114*
X03951Y03115*
X03962Y03120*
X03972Y03127*
X03979Y03137*
X03984Y03148*
X03985Y03160*
X03984Y03171*
X03979Y03182*
X03972Y03192*
X03962Y03199*
X03951Y03204*
X03940Y03205*
X03928Y03204*
X03917Y03199*
X03917Y03199*
X03912Y03201*
Y03418*
X03917Y03420*
X03917Y03420*
X03928Y03415*
X03940Y03414*
X03951Y03415*
X03962Y03420*
X03972Y03427*
X03979Y03437*
X03984Y03448*
X03985Y03460*
X03984Y03471*
X03979Y03482*
X03972Y03492*
X03963Y03499*
Y03500*
X03964Y03504*
X04015*
X04016Y03500*
Y03499*
X04007Y03492*
X04000Y03482*
X03995Y03471*
X03994Y03460*
X03995Y03448*
X04000Y03437*
X04007Y03427*
X04017Y03420*
X04028Y03415*
X04040Y03414*
X04051Y03415*
X04062Y03420*
X04072Y03427*
X04079Y03437*
X04084Y03448*
X04085Y03460*
X04084Y03471*
X04079Y03482*
X04072Y03492*
X04063Y03499*
Y03500*
X04064Y03504*
X04115*
X04116Y03500*
Y03499*
X04107Y03492*
X04100Y03482*
X04095Y03471*
X04094Y03460*
X04095Y03448*
X04100Y03437*
X04107Y03427*
X04114Y03422*
Y03390*
X04115Y03383*
X04117Y03377*
X04121Y03371*
X04171Y03321*
X04177Y03317*
X04183Y03315*
X04190Y03314*
X04789*
X04803Y03300*
X04800Y03295*
X04800Y03295*
X04190*
X04183Y03294*
X04177Y03292*
X04171Y03288*
X04121Y03238*
X04117Y03232*
X04115Y03226*
X04114Y03220*
Y03197*
X04107Y03192*
X04100Y03182*
X04095Y03171*
X04094Y03160*
X04095Y03148*
X04100Y03137*
X04107Y03127*
X04117Y03120*
X04128Y03115*
X04140Y03114*
X04151Y03115*
X04162Y03120*
X04172Y03127*
X04179Y03137*
X04184Y03148*
X04185Y03160*
X04184Y03171*
X04179Y03182*
X04172Y03192*
X04165Y03197*
Y03209*
X04200Y03244*
X04441*
X04442Y03239*
X04441Y03238*
X04421Y03218*
X04417Y03213*
X04415Y03207*
X04414Y03200*
Y03197*
X04407Y03192*
X04400Y03182*
X04395Y03171*
X04394Y03160*
X04395Y03148*
X04400Y03137*
X04407Y03127*
X04417Y03120*
X04428Y03115*
X04440Y03114*
X04451Y03115*
X04462Y03120*
X04472Y03127*
X04479Y03137*
X04484Y03148*
X04485Y03160*
X04484Y03171*
X04479Y03182*
X04474Y03189*
X04477Y03194*
X04502*
X04505Y03189*
X04500Y03182*
X04495Y03171*
X04494Y03160*
X04495Y03148*
X04500Y03137*
X04507Y03127*
X04517Y03120*
X04528Y03115*
X04540Y03114*
X04551Y03115*
X04562Y03120*
X04572Y03127*
X04579Y03137*
X04584Y03148*
X04585Y03160*
X04584Y03171*
X04579Y03182*
X04574Y03189*
X04577Y03194*
X04602*
X04605Y03189*
X04600Y03182*
X04595Y03171*
X04594Y03160*
X04595Y03148*
X04600Y03137*
X04604Y03132*
Y03095*
X04536*
Y03091*
X04508*
Y03050*
Y03008*
X04536*
Y03004*
X04618*
Y03014*
X04620*
X04629Y03015*
X04637Y03019*
X04645Y03024*
X04665Y03044*
X04671Y03052*
X04674Y03060*
X04675Y03070*
Y03132*
X04679Y03137*
X04684Y03148*
X04685Y03160*
X04684Y03171*
X04679Y03182*
X04674Y03189*
X04677Y03194*
X04769*
X04884Y03079*
Y03070*
X04885Y03063*
X04887Y03057*
X04891Y03051*
X04911Y03031*
X04917Y03027*
X04923Y03025*
X04930Y03024*
X04947*
Y03020*
X05073*
Y03024*
X05162*
X05167Y03017*
X05177Y03010*
X05188Y03005*
X05200Y03004*
X05211Y03005*
X05222Y03010*
X05232Y03017*
X05239Y03027*
X05244Y03038*
X05245Y03050*
X05244Y03061*
X05239Y03072*
X05232Y03082*
X05222Y03089*
X05211Y03094*
X05200Y03095*
X05188Y03094*
X05177Y03089*
X05167Y03082*
X05162Y03075*
X05073*
Y03079*
X04947*
Y03075*
X04940*
X04935Y03080*
Y03090*
X04934Y03096*
X04932Y03102*
X04928Y03108*
X04917Y03119*
X04919Y03124*
X04920Y03124*
X04947*
Y03120*
X05073*
Y03124*
X05162*
X05167Y03117*
X05177Y03110*
X05188Y03105*
X05200Y03104*
X05211Y03105*
X05222Y03110*
X05232Y03117*
X05239Y03127*
X05244Y03138*
X05245Y03150*
X05244Y03161*
X05239Y03172*
X05232Y03182*
X05222Y03189*
X05211Y03194*
X05200Y03195*
X05188Y03194*
X05177Y03189*
X05167Y03182*
X05162Y03175*
X05073*
Y03179*
X04947*
Y03175*
X04930*
X04887Y03219*
X04889Y03224*
X04890Y03224*
X04947*
Y03220*
X05073*
Y03224*
X05162*
X05167Y03217*
X05177Y03210*
X05188Y03205*
X05200Y03204*
X05211Y03205*
X05222Y03210*
X05232Y03217*
X05239Y03227*
X05244Y03238*
X05245Y03250*
X05244Y03261*
X05239Y03272*
X05232Y03282*
X05222Y03289*
X05211Y03294*
X05200Y03295*
X05188Y03294*
X05177Y03289*
X05167Y03282*
X05162Y03275*
X05073*
Y03279*
X04947*
Y03275*
X04900*
X04856Y03319*
X04858Y03324*
X04947*
Y03320*
X05073*
Y03324*
X05162*
X05167Y03317*
X05177Y03310*
X05188Y03305*
X05200Y03304*
X05211Y03305*
X05222Y03310*
X05232Y03317*
X05239Y03327*
X05244Y03338*
X05245Y03350*
X05244Y03361*
X05239Y03372*
X05232Y03382*
X05222Y03389*
X05211Y03394*
X05200Y03395*
X05188Y03394*
X05177Y03389*
X05167Y03382*
X05162Y03375*
X05073*
Y03379*
X04947*
Y03375*
X04862*
X04830Y03407*
X04825Y03412*
X04819Y03414*
X04812Y03415*
X04685*
Y03505*
X04594*
Y03415*
X04563*
X04562Y03420*
Y03420*
X04572Y03427*
X04579Y03437*
X04584Y03448*
X04585Y03460*
X04584Y03471*
X04579Y03482*
X04572Y03492*
X04562Y03499*
X04551Y03504*
X04540Y03505*
X04528Y03504*
X04517Y03499*
X04507Y03492*
X04500Y03482*
X04495Y03471*
X04494Y03460*
X04495Y03448*
X04500Y03437*
X04507Y03427*
X04517Y03420*
Y03420*
X04516Y03415*
X04481*
X04472Y03424*
X04472Y03427*
X04479Y03437*
X04484Y03448*
X04485Y03460*
X04484Y03471*
X04479Y03482*
X04472Y03492*
X04462Y03499*
X04451Y03504*
X04440Y03505*
X04428Y03504*
X04417Y03499*
X04407Y03492*
X04400Y03482*
X04395Y03471*
X04394Y03460*
X04395Y03448*
X04400Y03437*
X04407Y03427*
X04414Y03422*
Y03420*
X04415Y03413*
X04417Y03407*
X04421Y03401*
X04452Y03371*
X04452Y03370*
X04451Y03365*
X04200*
X04165Y03400*
Y03422*
X04172Y03427*
X04179Y03437*
X04184Y03448*
X04185Y03460*
X04184Y03471*
X04179Y03482*
X04172Y03492*
X04163Y03499*
Y03500*
X04164Y03504*
X04225*
X04226Y03499*
X04219Y03496*
X04210Y03489*
X04203Y03480*
X04199Y03470*
X04199Y03465*
X04240*
X04280*
X04280Y03470*
X04276Y03480*
X04269Y03489*
X04260Y03496*
X04250Y03500*
X04241Y03501*
X04239Y03506*
X04242Y03507*
X04248Y03511*
X04370Y03634*
X04640*
X04646Y03635*
X04652Y03637*
X04658Y03641*
X04748Y03731*
X04752Y03737*
X04754Y03743*
X04755Y03750*
Y03821*
X04760Y03823*
X04764Y03819*
Y03570*
X04765Y03563*
X04767Y03557*
X04771Y03551*
X04891Y03431*
X04897Y03427*
X04903Y03425*
X04910Y03424*
X04947*
Y03420*
X05073*
Y03424*
X05162*
X05167Y03417*
X05177Y03410*
X05188Y03405*
X05200Y03404*
X05211Y03405*
X05222Y03410*
X05232Y03417*
X05239Y03427*
X05244Y03438*
X05245Y03450*
X05244Y03461*
X05239Y03472*
X05232Y03482*
X05222Y03489*
X05211Y03494*
X05200Y03495*
X05188Y03494*
X05177Y03489*
X05167Y03482*
X05162Y03475*
X05073*
Y03479*
X04947*
Y03475*
X04920*
X04815Y03580*
Y03601*
X04820Y03602*
X04821Y03601*
X04891Y03531*
X04896Y03527*
X04903Y03525*
X04909Y03524*
X04947*
Y03520*
X05073*
Y03524*
X05162*
X05167Y03517*
X05177Y03510*
X05188Y03505*
X05200Y03504*
X05211Y03505*
X05222Y03510*
X05232Y03517*
X05239Y03527*
X05244Y03538*
X05245Y03550*
X05244Y03561*
X05239Y03572*
X05232Y03582*
X05222Y03589*
X05211Y03594*
X05200Y03595*
X05188Y03594*
X05177Y03589*
X05167Y03582*
X05162Y03575*
X05073*
Y03579*
X04947*
Y03575*
X04920*
X04865Y03630*
Y03681*
X04870Y03683*
X04921Y03631*
X04927Y03627*
X04933Y03625*
X04940Y03624*
X04947*
Y03620*
X05073*
Y03624*
X05162*
X05167Y03617*
X05177Y03610*
X05188Y03605*
X05200Y03604*
X05211Y03605*
X05222Y03610*
X05232Y03617*
X05239Y03627*
X05244Y03638*
X05245Y03650*
X05244Y03661*
X05239Y03672*
X05232Y03682*
X05222Y03689*
X05211Y03694*
X05200Y03695*
X05188Y03694*
X05177Y03689*
X05167Y03682*
X05162Y03675*
X05073*
Y03679*
X04947*
X04943Y03682*
X04905Y03720*
Y03740*
X04910Y03742*
X04921Y03731*
X04926Y03727*
X04933Y03725*
X04939Y03724*
X04947*
Y03720*
X05073*
Y03724*
X05154*
Y03704*
X05245*
Y03795*
X05154*
Y03775*
X05073*
Y03779*
X04947*
X04945Y03783*
Y03910*
X04944Y03917*
X04942Y03923*
X04937Y03928*
X04808Y04058*
X04802Y04062*
X04796Y04064*
X04790Y04065*
X04490*
X04472Y04084*
X04472Y04087*
X04479Y04097*
X04484Y04108*
X04485Y04120*
X04484Y04131*
X04479Y04142*
X04472Y04152*
X04462Y04159*
X04451Y04164*
X04440Y04165*
X04428Y04164*
X04417Y04159*
X04407Y04152*
X04400Y04142*
X04395Y04131*
X04394Y04120*
X04395Y04108*
X04400Y04097*
X04407Y04087*
X04414Y04082*
Y04080*
X04415Y04073*
X04417Y04067*
X04421Y04061*
X04453Y04030*
X04451Y04025*
X04210*
X04165Y04070*
Y04082*
X04172Y04087*
X04179Y04097*
X04184Y04108*
X04185Y04120*
X04184Y04131*
X04179Y04142*
X04172Y04152*
X04162Y04159*
X04151Y04164*
X04148Y04164*
X04147Y04169*
X04162Y04184*
X04499*
X04514Y04169*
Y04157*
X04507Y04152*
X04500Y04142*
X04495Y04131*
X04494Y04120*
X04495Y04108*
X04500Y04097*
X04507Y04087*
X04517Y04080*
X04528Y04075*
X04540Y04074*
X04551Y04075*
X04562Y04080*
X04572Y04087*
X04579Y04097*
X04584Y04108*
X04585Y04120*
X04584Y04131*
X04579Y04142*
X04572Y04152*
X04565Y04157*
Y04180*
X04564Y04186*
X04562Y04192*
X04558Y04198*
X04536Y04219*
X04538Y04224*
X04579*
X04614Y04189*
Y04165*
X04594*
Y04074*
X04685*
Y04165*
X04665*
Y04200*
X04664Y04206*
X04662Y04212*
X04658Y04218*
X04608Y04268*
X04602Y04272*
X04596Y04274*
X04590Y04275*
X04070*
X04063Y04274*
X04057Y04272*
X04051Y04268*
X03980Y04196*
X03975Y04198*
Y04415*
X04048*
X04063Y04417*
X04076Y04423*
X04088Y04431*
X04139Y04483*
X04148Y04494*
X04153Y04507*
X04155Y04522*
Y04710*
X04153Y04724*
X04148Y04737*
X04139Y04749*
X04132Y04754*
X04131Y04757*
X04125Y04765*
X04105Y04785*
X04097Y04791*
X04089Y04794*
X04080Y04795*
X03638*
Y04805*
G37*
G36*
X02854Y04494D02*
X02823D01*
Y04454*
X02854*
Y04494*
G37*
G36*
X04245Y04160D02*
Y04125D01*
X04280*
X04280Y04130*
X04276Y04140*
X04269Y04149*
X04260Y04156*
X04250Y04160*
X04245Y04160*
G37*
G36*
X04345D02*
Y04125D01*
X04380*
X04380Y04130*
X04376Y04140*
X04369Y04149*
X04360Y04156*
X04350Y04160*
X04345Y04160*
G37*
G36*
X03054Y04516D02*
X03016D01*
X03016Y04510*
X03021Y04500*
X03028Y04490*
X03037Y04483*
X03048Y04479*
X03054Y04478*
Y04516*
G37*
G36*
X02854Y04545D02*
X02823D01*
Y04505*
X02854*
Y04545*
G37*
G36*
X02896Y04494D02*
X02865D01*
Y04454*
X02896*
Y04494*
G37*
G36*
X03103Y04516D02*
X03065D01*
Y04478*
X03071Y04479*
X03082Y04483*
X03091Y04490*
X03098Y04500*
X03103Y04510*
X03103Y04516*
G37*
G36*
X04380Y04114D02*
X04345D01*
Y04079*
X04350Y04079*
X04360Y04083*
X04369Y04090*
X04376Y04099*
X04380Y04109*
X04380Y04114*
G37*
G36*
X02919Y04109D02*
X02871D01*
Y04090*
X02897*
X02906Y04092*
X02914Y04098*
X02919Y04105*
X02919Y04109*
G37*
G36*
X04334Y04114D02*
X04299D01*
X04299Y04109*
X04303Y04099*
X04310Y04090*
X04319Y04083*
X04329Y04079*
X04334Y04079*
Y04114*
G37*
G36*
X04280D02*
X04245D01*
Y04079*
X04250Y04079*
X04260Y04083*
X04269Y04090*
X04276Y04099*
X04280Y04109*
X04280Y04114*
G37*
G36*
X04234Y04160D02*
X04229Y04160D01*
X04219Y04156*
X04210Y04149*
X04203Y04140*
X04199Y04130*
X04199Y04125*
X04234*
Y04160*
G37*
G36*
X04334D02*
X04329Y04160D01*
X04319Y04156*
X04310Y04149*
X04303Y04140*
X04299Y04130*
X04299Y04125*
X04334*
Y04160*
G37*
G36*
X03349Y04147D02*
X03311D01*
Y04105*
X03349*
Y04147*
G37*
G36*
X03398D02*
X03361D01*
Y04105*
X03398*
Y04147*
G37*
G36*
X03805Y04649D02*
Y04614D01*
X03840*
X03840Y04619*
X03836Y04629*
X03829Y04638*
X03820Y04645*
X03810Y04649*
X03805Y04649*
G37*
G36*
X03516Y04754D02*
X03485D01*
Y04718*
X03516*
Y04754*
G37*
G36*
X03794Y04649D02*
X03789Y04649D01*
X03779Y04645*
X03770Y04638*
X03763Y04629*
X03759Y04619*
X03759Y04614*
X03794*
Y04649*
G37*
G36*
X03345D02*
Y04614D01*
X03380*
X03380Y04619*
X03376Y04629*
X03369Y04638*
X03360Y04645*
X03350Y04649*
X03345Y04649*
G37*
G36*
X03060Y04986D02*
X03047Y04984D01*
X03035Y04979*
X03025Y04972*
X03017Y04962*
X03013Y04950*
X03011Y04937*
X03013Y04925*
X03017Y04913*
X03025Y04903*
X03035Y04895*
X03047Y04890*
X03060Y04889*
X03072Y04890*
X03084Y04895*
X03092Y04901*
X03495*
X03497Y04900*
X03508Y04895*
X03520Y04894*
X03531Y04895*
X03542Y04900*
X03552Y04907*
X03559Y04917*
X03564Y04928*
X03565Y04940*
X03564Y04951*
X03559Y04962*
X03552Y04972*
X03542Y04979*
X03531Y04984*
X03520Y04985*
X03508Y04984*
X03497Y04979*
X03489Y04973*
X03092*
X03084Y04979*
X03072Y04984*
X03060Y04986*
G37*
G36*
X04100D02*
X04087Y04984D01*
X04075Y04979*
X04070Y04975*
X03665*
Y04985*
X03574*
Y04894*
X03665*
Y04904*
X04064*
X04065Y04903*
X04075Y04895*
X04087Y04890*
X04100Y04889*
X04112Y04890*
X04124Y04895*
X04134Y04903*
X04142Y04913*
X04147Y04925*
X04148Y04937*
X04147Y04950*
X04142Y04962*
X04134Y04972*
X04124Y04979*
X04112Y04984*
X04100Y04986*
G37*
G36*
X04452Y04917D02*
X04433Y04915D01*
X04415Y04909*
X04399Y04901*
X04385Y04889*
X04373Y04874*
X04364Y04858*
X04359Y04840*
X04357Y04822*
X04359Y04803*
X04364Y04785*
X04373Y04769*
X04385Y04755*
X04399Y04743*
X04415Y04734*
X04433Y04729*
X04452Y04727*
X04470Y04729*
X04488Y04734*
X04505Y04743*
X04519Y04755*
X04531Y04769*
X04539Y04785*
X04545Y04803*
X04547Y04822*
X04545Y04840*
X04539Y04858*
X04531Y04874*
X04519Y04889*
X04505Y04901*
X04488Y04909*
X04470Y04915*
X04452Y04917*
G37*
G36*
X03516Y04801D02*
X03485D01*
Y04765*
X03516*
Y04801*
G37*
G36*
X03065Y04566D02*
Y04528D01*
X03103*
X03103Y04533*
X03098Y04544*
X03091Y04553*
X03082Y04561*
X03071Y04565*
X03065Y04566*
G37*
G36*
X03334Y04603D02*
X03299D01*
X03299Y04598*
X03303Y04588*
X03310Y04579*
X03319Y04572*
X03329Y04568*
X03334Y04568*
Y04603*
G37*
G36*
X02896Y04545D02*
X02865D01*
Y04505*
X02896*
Y04545*
G37*
G36*
X03054Y04566D02*
X03048Y04565D01*
X03037Y04561*
X03028Y04553*
X03021Y04544*
X03016Y04533*
X03016Y04528*
X03054*
Y04566*
G37*
G36*
X03840Y04603D02*
X03805D01*
Y04568*
X03810Y04568*
X03820Y04572*
X03829Y04579*
X03836Y04588*
X03840Y04598*
X03840Y04603*
G37*
G36*
X03334Y04649D02*
X03329Y04649D01*
X03319Y04645*
X03310Y04638*
X03303Y04629*
X03299Y04619*
X03299Y04614*
X03334*
Y04649*
G37*
G36*
X03794Y04603D02*
X03759D01*
X03759Y04598*
X03763Y04588*
X03770Y04579*
X03779Y04572*
X03789Y04568*
X03794Y04568*
Y04603*
G37*
G36*
X03380D02*
X03345D01*
Y04568*
X03350Y04568*
X03360Y04572*
X03369Y04579*
X03376Y04588*
X03380Y04598*
X03380Y04603*
G37*
G36*
X03105Y03737D02*
Y03705D01*
X03137*
X03137Y03709*
X03133Y03718*
X03127Y03726*
X03119Y03732*
X03110Y03736*
X03105Y03737*
G37*
G36*
X02785D02*
Y03705D01*
X02817*
X02817Y03709*
X02813Y03718*
X02807Y03726*
X02799Y03732*
X02790Y03736*
X02785Y03737*
G37*
G36*
X03094D02*
X03090Y03736D01*
X03080Y03732*
X03072Y03726*
X03066Y03718*
X03062Y03709*
X03062Y03705*
X03094*
Y03737*
G37*
G36*
X02686Y04064D02*
X02655D01*
Y04033*
X02659Y04034*
X02668Y04037*
X02676Y04043*
X02682Y04051*
X02685Y04060*
X02686Y04064*
G37*
G36*
X02644D02*
X02613D01*
X02614Y04060*
X02617Y04051*
X02623Y04043*
X02631Y04037*
X02640Y04034*
X02644Y04033*
Y04064*
G37*
G36*
X02270Y03894D02*
X02258Y03892D01*
X02247Y03888*
X02237Y03880*
X02230Y03871*
X02225Y03860*
X02224Y03848*
X02225Y03836*
X02230Y03825*
X02237Y03816*
X02247Y03808*
X02258Y03804*
X02270Y03802*
X02281Y03804*
X02292Y03808*
X02302Y03816*
X02309Y03825*
X02314Y03836*
X02315Y03848*
X02314Y03860*
X02309Y03871*
X02302Y03880*
X02292Y03888*
X02281Y03892*
X02270Y03894*
G37*
G36*
X02774Y03737D02*
X02770Y03736D01*
X02760Y03732*
X02752Y03726*
X02746Y03718*
X02742Y03709*
X02742Y03705*
X02774*
Y03737*
G37*
G36*
Y03693D02*
X02742D01*
X02742Y03689*
X02746Y03679*
X02752Y03671*
X02760Y03665*
X02770Y03661*
X02774Y03661*
Y03693*
G37*
G36*
X03142Y03643D02*
X03057D01*
Y03558*
X03142*
Y03643*
G37*
G36*
X04345Y03500D02*
Y03465D01*
X04380*
X04380Y03470*
X04376Y03480*
X04369Y03489*
X04360Y03496*
X04350Y03500*
X04345Y03500*
G37*
G36*
X03137Y03693D02*
X03105D01*
Y03661*
X03110Y03661*
X03119Y03665*
X03127Y03671*
X03133Y03679*
X03137Y03689*
X03137Y03693*
G37*
G36*
X02817D02*
X02785D01*
Y03661*
X02790Y03661*
X02799Y03665*
X02807Y03671*
X02813Y03679*
X02817Y03689*
X02817Y03693*
G37*
G36*
X03094D02*
X03062D01*
X03062Y03689*
X03066Y03679*
X03072Y03671*
X03080Y03665*
X03090Y03661*
X03094Y03661*
Y03693*
G37*
G36*
X03349Y04094D02*
X03311D01*
Y04052*
X03349*
Y04094*
G37*
G36*
X03398D02*
X03361D01*
Y04052*
X03398*
Y04094*
G37*
G36*
X02801Y04076D02*
X02765D01*
Y04045*
X02801*
Y04076*
G37*
G36*
X02916Y04071D02*
X02885D01*
Y04035*
X02916*
Y04071*
G37*
G36*
X02754Y04076D02*
X02718D01*
Y04045*
X02754*
Y04076*
G37*
G36*
X04234Y04114D02*
X04199D01*
X04199Y04109*
X04203Y04099*
X04210Y04090*
X04219Y04083*
X04229Y04079*
X04234Y04079*
Y04114*
G37*
G36*
X02655Y04106D02*
Y04075D01*
X02686*
X02685Y04079*
X02682Y04088*
X02676Y04096*
X02668Y04102*
X02659Y04105*
X02655Y04106*
G37*
G36*
X02644D02*
X02640Y04105D01*
X02631Y04102*
X02623Y04096*
X02617Y04088*
X02614Y04079*
X02613Y04075*
X02644*
Y04106*
G37*
%LNde-160516-3*%
%LPD*%
G36*
X04416Y02840D02*
Y02839D01*
X04407Y02832*
X04400Y02822*
X04395Y02811*
X04394Y02800*
X04395Y02788*
X04400Y02777*
X04407Y02767*
X04414Y02762*
Y02760*
X04415Y02753*
X04417Y02747*
X04421Y02741*
X04423Y02740*
X04421Y02735*
X04180*
X04165Y02750*
Y02762*
X04172Y02767*
X04179Y02777*
X04184Y02788*
X04185Y02800*
X04184Y02811*
X04179Y02822*
X04172Y02832*
X04163Y02839*
Y02840*
X04164Y02844*
X04225*
X04226Y02839*
X04219Y02836*
X04210Y02829*
X04203Y02820*
X04199Y02810*
X04199Y02805*
X04240*
X04280*
X04280Y02810*
X04276Y02820*
X04269Y02829*
X04260Y02836*
X04253Y02839*
X04254Y02844*
X04325*
X04326Y02839*
X04319Y02836*
X04310Y02829*
X04303Y02820*
X04299Y02810*
X04299Y02805*
X04340*
X04380*
X04380Y02810*
X04376Y02820*
X04369Y02829*
X04360Y02836*
X04353Y02839*
X04354Y02844*
X04415*
X04416Y02840*
G37*
G36*
X03049Y03210D02*
X03079D01*
X03118Y03172*
X03125Y03166*
X03134Y03162*
X03143Y03161*
X03306*
X03307Y03160*
X03305Y03155*
X02810*
X02803Y03154*
X02797Y03152*
X02791Y03148*
X02672Y03029*
X02668Y03023*
X02665Y03017*
X02665Y03010*
Y02912*
X02657*
X02650Y02911*
X02643Y02909*
X02637Y02904*
X02633Y02898*
X02630Y02892*
X02629Y02885*
X02630Y02877*
X02633Y02871*
X02637Y02865*
X02640Y02863*
Y02856*
X02637Y02854*
X02633Y02848*
X02630Y02842*
X02629Y02835*
X02630Y02827*
X02633Y02821*
X02637Y02815*
X02640Y02813*
Y02806*
X02637Y02804*
X02633Y02798*
X02630Y02792*
X02629Y02785*
X02630Y02777*
X02633Y02771*
X02637Y02765*
X02640Y02763*
Y02756*
X02637Y02754*
X02633Y02748*
X02630Y02742*
X02629Y02735*
X02630Y02727*
X02633Y02721*
X02637Y02715*
X02643Y02710*
X02644Y02710*
X02644Y02705*
X02640Y02702*
X02635Y02694*
X02634Y02690*
X02690*
Y02679*
X02634*
X02635Y02675*
X02640Y02668*
X02643Y02665*
X02642Y02660*
X02595*
Y02663*
X02591*
Y02691*
X02508*
Y02663*
X02504*
Y02658*
X02492*
X02415Y02735*
X02407Y02741*
X02399Y02744*
X02390Y02745*
X02327*
X02322Y02749*
X02311Y02754*
X02300Y02755*
X02288Y02754*
X02277Y02749*
X02272Y02745*
X02211*
X02195Y02761*
Y02777*
X02254*
Y02764*
X02345*
Y02855*
X02254*
Y02849*
X02195*
Y02850*
X02124*
Y02815*
X02124Y02813*
X02124Y02811*
Y02782*
X02098*
X02075Y02804*
Y03005*
X02099Y03028*
X02111*
Y03018*
X02278*
Y03028*
X02352*
X02361Y03029*
X02370Y03033*
X02377Y03039*
X02438Y03099*
X02512*
Y03115*
X02536*
X02546Y03117*
X02554Y03120*
X02562Y03126*
X02569Y03133*
X02605*
Y03139*
X02704*
X02713Y03140*
X02721Y03143*
X02729Y03149*
X02790Y03210*
X02820*
Y03215*
X03049*
Y03210*
G37*
G36*
X04463Y03919D02*
X04421Y03878D01*
X04417Y03872*
X04415Y03866*
X04414Y03860*
Y03857*
X04407Y03852*
X04400Y03842*
X04395Y03831*
X04394Y03820*
X04395Y03808*
X04400Y03797*
X04407Y03787*
X04417Y03780*
X04428Y03775*
X04440Y03774*
X04451Y03775*
X04462Y03780*
X04472Y03787*
X04479Y03797*
X04484Y03808*
X04485Y03820*
X04484Y03831*
X04479Y03842*
X04472Y03852*
X04472Y03855*
X04500Y03884*
X04531*
X04533Y03879*
X04521Y03868*
X04517Y03862*
X04515Y03858*
X04507Y03852*
X04500Y03842*
X04495Y03831*
X04494Y03820*
X04495Y03808*
X04500Y03797*
X04507Y03787*
X04517Y03780*
X04528Y03775*
X04540Y03774*
X04551Y03775*
X04562Y03780*
X04572Y03787*
X04579Y03797*
X04584Y03808*
X04585Y03820*
X04584Y03831*
X04581Y03839*
X04584Y03844*
X04595*
X04598Y03839*
X04595Y03831*
X04594Y03820*
X04595Y03808*
X04600Y03797*
X04604Y03792*
Y03765*
X04536*
Y03761*
X04508*
Y03720*
X04502*
Y03714*
X04465*
Y03685*
X04360*
X04353Y03684*
X04347Y03682*
X04341Y03678*
X04219Y03555*
X04148*
X04146Y03560*
X04168Y03581*
X04172Y03587*
X04174Y03593*
X04175Y03600*
Y03740*
X04174Y03746*
X04172Y03753*
X04168Y03758*
X04154Y03771*
X04156Y03777*
X04162Y03780*
X04172Y03787*
X04179Y03797*
X04184Y03808*
X04185Y03820*
X04184Y03831*
X04179Y03842*
X04172Y03852*
X04165Y03857*
Y03869*
X04220Y03924*
X04461*
X04463Y03919*
G37*
G36*
X04060Y03620D02*
X04069Y03614D01*
X04079Y03610*
X04090Y03608*
X04100Y03610*
X04110Y03614*
X04119Y03620*
X04119Y03621*
X04124Y03619*
Y03610*
X04099Y03585*
X03910*
X03903Y03584*
X03897Y03582*
X03891Y03578*
X03831Y03518*
X03827Y03512*
X03825Y03506*
X03824Y03500*
Y02800*
X03689Y02666*
X03685Y02668*
Y02735*
X03665*
Y02749*
X03675*
Y02760*
X03696*
X03703Y02761*
X03709Y02764*
X03714Y02768*
X03788Y02841*
X03792Y02847*
X03794Y02853*
X03795Y02860*
Y03251*
X03799Y03254*
X03805Y03262*
X03809Y03272*
X03811Y03283*
X03809Y03294*
X03805Y03304*
X03799Y03312*
X03790Y03319*
X03780Y03323*
X03770Y03324*
X03759Y03323*
X03749Y03319*
X03740Y03312*
X03734Y03304*
X03730Y03294*
X03728Y03283*
X03730Y03272*
X03734Y03262*
X03740Y03254*
X03744Y03251*
Y02894*
X03739Y02892*
X03736Y02896*
X03728Y02902*
X03719Y02905*
X03715Y02906*
Y02870*
X03704*
Y02906*
X03700Y02905*
X03691Y02902*
X03683Y02896*
X03677Y02888*
X03676Y02885*
X03671Y02886*
Y02886*
X03645*
Y02853*
X03640*
Y02847*
X03608*
Y02823*
X03604*
Y02749*
X03614*
Y02735*
X03594*
Y02655*
X03577*
X03574Y02660*
X03579Y02667*
X03584Y02678*
X03585Y02690*
X03584Y02701*
X03579Y02712*
X03572Y02722*
X03565Y02727*
Y02749*
X03575*
Y02816*
Y02890*
X03565*
Y02967*
X03648Y03049*
X03652Y03055*
X03654Y03061*
X03655Y03068*
Y03419*
X03705Y03469*
X03710Y03468*
X03720Y03470*
X03730Y03474*
X03739Y03480*
X03745Y03489*
X03749Y03499*
X03751Y03510*
X03749Y03520*
X03745Y03530*
X03739Y03539*
X03730Y03545*
X03720Y03549*
X03710Y03551*
X03699Y03549*
X03689Y03545*
X03680Y03539*
X03674Y03530*
X03670Y03520*
X03668Y03510*
X03669Y03505*
X03620Y03456*
X03615Y03458*
Y03478*
X03619Y03480*
X03625Y03489*
X03629Y03499*
X03631Y03510*
X03629Y03520*
X03625Y03530*
X03619Y03539*
X03610Y03545*
X03600Y03549*
X03590Y03551*
X03579Y03549*
X03569Y03545*
X03560Y03539*
X03554Y03530*
X03550Y03520*
X03548Y03510*
X03550Y03499*
X03554Y03489*
X03560Y03480*
X03564Y03478*
Y03080*
X03394Y02910*
X03092*
X03089Y02911*
X03082Y02912*
X03015*
X03008Y02911*
X03001Y02909*
X02996Y02904*
X02991Y02898*
X02988Y02892*
X02987Y02885*
X02988Y02877*
X02991Y02871*
X02996Y02865*
X02998Y02863*
Y02856*
X02996Y02854*
X02991Y02848*
X02988Y02842*
X02987Y02835*
X02988Y02827*
X02991Y02821*
X02996Y02815*
X02998Y02813*
Y02806*
X02996Y02804*
X02991Y02798*
X02988Y02792*
X02987Y02785*
X02988Y02777*
X02991Y02771*
X02996Y02765*
X02998Y02763*
Y02756*
X02996Y02754*
X02991Y02748*
X02988Y02742*
X02987Y02735*
X02988Y02727*
X02991Y02721*
X02996Y02715*
X02998Y02713*
Y02706*
X02996Y02704*
X02991Y02698*
X02988Y02692*
X02987Y02685*
X02988Y02677*
X02991Y02671*
X02995Y02665*
X02995Y02663*
X02993Y02660*
X02955*
X02945Y02670*
Y02948*
X02949Y02950*
X02955Y02959*
X02959Y02969*
X02961Y02980*
X02959Y02990*
X02955Y03000*
X02949Y03009*
X02948Y03009*
X02950Y03014*
X03380*
X03386Y03015*
X03392Y03017*
X03398Y03021*
X03517Y03141*
X03521Y03146*
X03524Y03152*
X03525Y03159*
Y03518*
X03630Y03624*
X04058*
X04060Y03620*
G37*
%LNde-160516-4*%
%LPC*%
G36*
X04234Y02794D02*
X04199D01*
X04199Y02789*
X04203Y02779*
X04210Y02770*
X04219Y02763*
X04229Y02759*
X04234Y02759*
Y02794*
G37*
G36*
X04380D02*
X04345D01*
Y02759*
X04350Y02759*
X04360Y02763*
X04369Y02770*
X04376Y02779*
X04380Y02789*
X04380Y02794*
G37*
G36*
X04280D02*
X04245D01*
Y02759*
X04250Y02759*
X04260Y02763*
X04269Y02770*
X04276Y02779*
X04280Y02789*
X04280Y02794*
G37*
G36*
X04334D02*
X04299D01*
X04299Y02789*
X04303Y02779*
X04310Y02770*
X04319Y02763*
X04329Y02759*
X04334Y02759*
Y02794*
G37*
G36*
X02586Y02774D02*
X02555D01*
Y02743*
X02559Y02744*
X02568Y02747*
X02576Y02753*
X02582Y02761*
X02585Y02770*
X02586Y02774*
G37*
G36*
X02544D02*
X02513D01*
X02514Y02770*
X02517Y02761*
X02523Y02753*
X02531Y02747*
X02540Y02744*
X02544Y02743*
Y02774*
G37*
G36*
X02591Y02734D02*
X02555D01*
Y02703*
X02591*
Y02734*
G37*
G36*
X02544D02*
X02508D01*
Y02703*
X02544*
Y02734*
G37*
G36*
Y02816D02*
X02540Y02815D01*
X02531Y02812*
X02523Y02806*
X02517Y02798*
X02514Y02789*
X02513Y02785*
X02544*
Y02816*
G37*
G36*
X02555D02*
Y02785D01*
X02586*
X02585Y02789*
X02582Y02798*
X02576Y02806*
X02568Y02812*
X02559Y02815*
X02555Y02816*
G37*
G36*
X04334Y03814D02*
X04299D01*
X04299Y03809*
X04303Y03799*
X04310Y03790*
X04319Y03783*
X04329Y03779*
X04334Y03779*
Y03814*
G37*
G36*
X04234D02*
X04199D01*
X04199Y03809*
X04203Y03799*
X04210Y03790*
X04219Y03783*
X04229Y03779*
X04234Y03779*
Y03814*
G37*
G36*
X04496Y03761D02*
X04465D01*
Y03725*
X04496*
Y03761*
G37*
G36*
X04280Y03814D02*
X04245D01*
Y03779*
X04250Y03779*
X04260Y03783*
X04269Y03790*
X04276Y03799*
X04280Y03809*
X04280Y03814*
G37*
G36*
X04334Y03860D02*
X04329Y03860D01*
X04319Y03856*
X04310Y03849*
X04303Y03840*
X04299Y03830*
X04299Y03825*
X04334*
Y03860*
G37*
G36*
X04234D02*
X04229Y03860D01*
X04219Y03856*
X04210Y03849*
X04203Y03840*
X04199Y03830*
X04199Y03825*
X04234*
Y03860*
G37*
G36*
X04380Y03814D02*
X04345D01*
Y03779*
X04350Y03779*
X04360Y03783*
X04369Y03790*
X04376Y03799*
X04380Y03809*
X04380Y03814*
G37*
G36*
X04245Y03860D02*
Y03825D01*
X04280*
X04280Y03830*
X04276Y03840*
X04269Y03849*
X04260Y03856*
X04250Y03860*
X04245Y03860*
G37*
G36*
X04345D02*
Y03825D01*
X04380*
X04380Y03830*
X04376Y03840*
X04369Y03849*
X04360Y03856*
X04350Y03860*
X04345Y03860*
G37*
G36*
X03634Y02886D02*
X03608D01*
Y02859*
X03634*
Y02886*
G37*
%LNde-160516-5*%
%LPD*%
G54D10*
X03490Y01786D03*
Y01853D03*
X02160Y02746D03*
Y02813D03*
X03640Y02786D03*
Y02853D03*
X03540Y02786D03*
Y02853D03*
X03630Y01786D03*
Y01853D03*
G54D11*
X02560Y03249D03*
Y03174D03*
X02550Y02697D03*
Y02622D03*
X02760Y04082D03*
Y04157D03*
X03160Y04192D03*
Y04267D03*
X03240Y04192D03*
Y04267D03*
G54D12*
X04577Y02390D03*
X04502D03*
X02227Y03442D03*
X02152D03*
X02997Y03950D03*
X02922D03*
Y04030D03*
X02997D03*
X03522Y04760D03*
X03597D03*
X04577Y03050D03*
X04502D03*
X04577Y03720D03*
X04502D03*
G54D13*
X02836Y02120D03*
X02903D03*
X02836Y02050D03*
X02903D03*
G54D14*
X03049Y02235D03*
Y02285D03*
Y02335D03*
Y02385D03*
Y02435D03*
Y02485D03*
Y02535D03*
Y02585D03*
Y02635D03*
Y02685D03*
Y02735D03*
Y02785D03*
Y02835D03*
Y02885D03*
X02690Y02235D03*
Y02285D03*
Y02335D03*
Y02385D03*
Y02435D03*
Y02485D03*
Y02535D03*
Y02585D03*
Y02635D03*
Y02685D03*
Y02735D03*
Y02785D03*
Y02835D03*
Y02885D03*
G54D15*
X02859Y04500D03*
X02720D03*
G54D16*
X02865Y04265D03*
Y04215D03*
Y04165D03*
Y04115D03*
X03054Y04265D03*
Y04215D03*
Y04165D03*
Y04115D03*
G54D17*
X03355Y04100D03*
X03244D03*
G54D18*
X02195Y03064D03*
G54D19*
X02104Y03330D03*
X02195D03*
G54D20*
X02285Y03330D03*
G54D21*
X02440Y03151D03*
Y03332D03*
G54D22*
X05040Y03750D03*
X04979D03*
X05040Y03650D03*
X04979D03*
X05040Y03550D03*
X04979D03*
X05040Y03450D03*
X04979D03*
X05040Y03350D03*
X04979D03*
X05040Y03250D03*
X04979D03*
X05040Y03150D03*
X04979D03*
X05040Y03050D03*
X04979D03*
X05040Y02950D03*
X04979D03*
X05040Y02850D03*
X04979D03*
G54D23*
X03620Y03650D02*
X04090D01*
X03499Y03529D02*
X03620Y03650D01*
X03499Y03159D02*
Y03529D01*
X03638Y03760D02*
X03980D01*
X03440Y03184D02*
Y03562D01*
X03638Y03760*
X03640Y03720D02*
X04030D01*
X03469Y03549D02*
X03640Y03720D01*
X03469Y03171D02*
Y03549D01*
X03590Y03070D02*
Y03510D01*
X03405Y02885D02*
X03590Y03070D01*
X03049Y02885D02*
X03405D01*
X03453Y02853D02*
X03540D01*
X03435Y02835D02*
X03453Y02853D01*
X03049Y02835D02*
X03435D01*
X03356Y03100D02*
X03440Y03184D01*
X02838Y03100D02*
X03356D01*
X03390Y03175D02*
Y03500D01*
X03344Y03130D02*
X03390Y03175D01*
X03368Y03070D02*
X03469Y03171D01*
X03380Y03040D02*
X03499Y03159D01*
X03980Y03760D02*
X04040Y03820D01*
X04750Y04000D02*
X04880Y03870D01*
X04200Y04000D02*
X04750D01*
X04140Y04060D02*
X04200Y04000D01*
X04732Y03950D02*
X04840Y03842D01*
X04210Y03950D02*
X04732D01*
X04140Y03880D02*
X04210Y03950D01*
X04710Y03910D02*
X04790Y03830D01*
X04490Y03910D02*
X04710D01*
X04440Y03860D02*
X04490Y03910D01*
X04880Y03710D02*
Y03870D01*
Y03710D02*
X04940Y03650D01*
X04840Y03619D02*
Y03842D01*
Y03619D02*
X04909Y03550D01*
X04790Y03570D02*
Y03830D01*
Y03570D02*
X04910Y03450D01*
X04919Y03770D02*
Y03910D01*
X04790Y04040D02*
X04919Y03910D01*
X04480Y04040D02*
X04790D01*
X04440Y04080D02*
X04480Y04040D01*
X04440Y04080D02*
Y04120D01*
X04800Y03270D02*
X04920Y03150D01*
X04190Y03270D02*
X04800D01*
X04140Y03220D02*
X04190Y03270D01*
X04910Y03070D02*
Y03090D01*
X04780Y03220D02*
X04910Y03090D01*
X04459Y03220D02*
X04780D01*
X04890Y03250D02*
X04979D01*
X04800Y03340D02*
X04890Y03250D01*
X04190Y03340D02*
X04800D01*
X04140Y03390D02*
X04190Y03340D01*
X02920Y02660D02*
Y02980D01*
Y02660D02*
X02945Y02635D01*
X03049*
X02690Y02585D02*
X02735D01*
X03049Y02685D02*
X03255D01*
X03310Y02630*
X03049Y02735D02*
X03305D01*
X03320Y02720*
X03049Y02785D02*
X03415D01*
X03504Y02425D02*
X03755D01*
X03210Y02560D02*
X03280D01*
X03320Y02600*
X03220Y02390D02*
Y02480D01*
X03115Y02585D02*
X03220Y02480D01*
X03049Y02585D02*
X03115D01*
X03220Y02380D02*
Y02390D01*
X04070Y04250D02*
X04590D01*
X03990Y04170D02*
X04070Y04250D01*
X03990Y03990D02*
Y04170D01*
X03940Y03820D02*
Y03940D01*
X03990Y03990*
X04590Y04250D02*
X04640Y04200D01*
Y04120D02*
Y04200D01*
X04090Y04149D02*
X04151Y04210D01*
X04510*
X04090Y03799D02*
Y04149D01*
X04150Y03600D02*
Y03740D01*
X04110Y03560D02*
X04150Y03600D01*
X03910Y03560D02*
X04110D01*
X04090Y03799D02*
X04150Y03740D01*
X02690Y02385D02*
X02775D01*
X03850Y03500D02*
X03910Y03560D01*
X03933Y03530D02*
X04230D01*
X03886Y03483D02*
X03933Y03530D01*
X03850Y02790D02*
Y03500D01*
X03886Y02784D02*
Y03483D01*
X04360Y03660D02*
X04640D01*
X04230Y03530D02*
X04360Y03660D01*
X02690Y02435D02*
X02755D01*
X03630Y03068D02*
Y03430D01*
X03540Y02978D02*
X03630Y03068D01*
X03540Y02853D02*
Y02978D01*
X02430Y02560D02*
X02570D01*
X02595Y02535*
X02690*
X03320Y02600D02*
X03702D01*
X03886Y02784*
X04640Y03660D02*
X04730Y03750D01*
Y03830*
X04690Y03870D02*
X04730Y03830D01*
X04560Y03870D02*
X04690D01*
X04540Y03850D02*
X04560Y03870D01*
X04540Y03820D02*
Y03850D01*
X02975Y02385D02*
X03049D01*
X02940Y02350D02*
X02975Y02385D01*
X02940Y02220D02*
Y02350D01*
Y02220D02*
X03050Y02110D01*
X03300*
X03445Y02255*
X03895*
X04090Y02450*
Y02520*
X04140Y02570*
X04530*
X04540Y02560*
Y02500D02*
Y02560D01*
X04140Y02210D02*
Y02500D01*
X04000Y02070D02*
X04140Y02210D01*
X03780Y02070D02*
X04000D01*
X03630Y01920D02*
X03780Y02070D01*
X03630Y01853D02*
Y01920D01*
X03490Y02120D02*
Y02170D01*
X03410Y02040D02*
X03490Y02120D01*
X03050Y02040D02*
X03410D01*
X02970Y02120D02*
X03050Y02040D01*
X02903Y02120D02*
X02970D01*
X03690Y02630D02*
X03850Y02790D01*
X03775Y02335D02*
X03940Y02500D01*
X03049Y02335D02*
X03775D01*
X03049Y02285D02*
X03825D01*
X03310Y02630D02*
X03690D01*
X03630Y03430D02*
X03710Y03510D01*
X02470Y02370D02*
Y02420D01*
X02535Y02485*
X02690*
X02530Y02370D02*
X02565Y02335D01*
X02690*
X03490Y02440D02*
X03504Y02425D01*
X04510Y04210D02*
X04540Y04180D01*
Y04120D02*
Y04180D01*
X03696Y02786D02*
X03770Y02860D01*
Y03283*
X03415Y02785D02*
X03420Y02780D01*
X03320Y02720D02*
X03420D01*
X03490Y02170D02*
Y02180D01*
X03755Y02425D02*
X04090Y02760D01*
Y02820*
X04140Y02870*
X04500*
X04540Y02830*
Y02800D02*
Y02830D01*
X03640Y02786D02*
X03696D01*
X03540Y02690D02*
Y02786D01*
X03825Y02285D02*
X04040Y02500D01*
X03640Y02690D02*
Y02786D01*
X02550Y02697D02*
X02562Y02685D01*
X02690*
X02550Y02622D02*
X02562Y02635D01*
X02690*
X04939Y03750D02*
X04979D01*
X04919Y03770D02*
X04939Y03750D01*
X04940Y03650D02*
X04979D01*
X04140Y04060D02*
Y04120D01*
X04909Y03550D02*
X04979D01*
X04140Y03820D02*
Y03880D01*
X04910Y03450D02*
X04979D01*
X04440Y03820D02*
Y03860D01*
X04470Y03389D02*
X04812D01*
X04440Y03420D02*
X04470Y03389D01*
X04440Y03420D02*
Y03460D01*
X04852Y03350D02*
X04979D01*
X04812Y03389D02*
X04852Y03350D01*
X04140Y03390D02*
Y03460D01*
X04792Y02710D02*
X04932Y02850D01*
X04170Y02710D02*
X04792D01*
X04140Y02740D02*
X04170Y02710D01*
X04780Y02740D02*
X04910Y02870D01*
X04460Y02740D02*
X04780D01*
X04440Y02760D02*
X04460Y02740D01*
X04440Y03200D02*
X04459Y03220D01*
X04932Y02850D02*
X04979D01*
X04910Y02870D02*
Y02930D01*
X04930Y03050D02*
X04979D01*
X04910Y03070D02*
X04930Y03050D01*
X04440Y03160D02*
Y03200D01*
X04920Y03150D02*
X04979D01*
X04140Y03160D02*
Y03220D01*
X04930Y02950D02*
X04979D01*
X04910Y02930D02*
X04930Y02950D01*
X04440Y02760D02*
Y02800D01*
X04140Y02740D02*
Y02800D01*
X05040Y02850D02*
X05200D01*
X05040Y02950D02*
X05200D01*
X05040Y03050D02*
X05200D01*
X05040Y03150D02*
X05200D01*
X05040Y03250D02*
X05200D01*
X05040Y03350D02*
X05200D01*
X05040Y03450D02*
X05200D01*
X05040Y03550D02*
X05200D01*
X05040Y03650D02*
X05200D01*
X05040Y03750D02*
X05200D01*
X02900Y03040D02*
X03380D01*
X02870Y03070D02*
X03368D01*
X02775Y02385D02*
X02849Y02459D01*
Y02989*
X02900Y03040*
X02755Y02435D02*
X02810Y02490D01*
Y03010*
X02870Y03070*
X02735Y02585D02*
X02770Y02620D01*
Y03032*
X02838Y03100*
X02690Y02885D02*
Y03010D01*
X02810Y03130*
X03344*
G54D24*
X03940Y04471D02*
X04048D01*
X03800D02*
X03940D01*
X04100Y04522D02*
Y04710D01*
X03370Y03830D02*
Y04090D01*
X03239Y03699D02*
X03370Y03830D01*
X03100Y03699D02*
X03239D01*
X02670Y04050D02*
X02880D01*
X02650Y04070D02*
X02670Y04050D01*
X02533Y03349D02*
X02780D01*
X02940Y03699D02*
X03100D01*
X02780D02*
X02940D01*
Y03349D02*
X03090D01*
X02780D02*
X02940D01*
Y03699*
X02517Y03332D02*
X02560Y03290D01*
X03340Y04608D02*
X03800D01*
X03340Y04471D02*
X03800D01*
X04048D02*
X04100Y04522D01*
X02880Y04500D02*
X03037D01*
X03060Y04522*
X03146Y04608*
X03340*
X03350Y04618D02*
Y04730D01*
G54D25*
X03940Y04120D02*
Y04471D01*
X04080Y04760D02*
X04100Y04740D01*
Y04710D02*
Y04740D01*
X02870Y04100D02*
X02922Y04047D01*
X02840Y04100D02*
X02870D01*
X02104Y03394D02*
Y03515D01*
Y03330D02*
Y03394D01*
X02100Y03520D02*
X02104Y03515D01*
X03656Y02870D02*
X03710D01*
X03640Y02853D02*
X03656Y02870D01*
X03275Y01735D02*
X03904D01*
X02550Y02697D02*
Y02780D01*
X03490Y01853D02*
Y01930D01*
X03904Y01735D02*
X03905Y01735D01*
X03275Y01735D02*
Y01735D01*
X03803Y01853D02*
X03905D01*
X03736Y01786D02*
X03803Y01853D01*
X03630Y01786D02*
X03736D01*
X03275Y01853D02*
X03336D01*
X03403Y01786*
X03490*
X04340Y02430D02*
Y02500D01*
Y02430D02*
X04380Y02390D01*
X04502*
X04640Y02410D02*
Y02500D01*
X04620Y02390D02*
X04640Y02410D01*
X04577Y02390D02*
X04620D01*
X03090Y03250D02*
X03143Y03197D01*
X03330*
X04640Y03070D02*
Y03160D01*
X04620Y03050D02*
X04640Y03070D01*
X04577Y03050D02*
X04620D01*
X04340Y03090D02*
Y03160D01*
Y03090D02*
X04380Y03050D01*
X04502*
X04640Y03740D02*
Y03820D01*
X04620Y03720D02*
X04640Y03740D01*
X04577Y03720D02*
X04620D01*
X04340Y03760D02*
Y03820D01*
Y03760D02*
X04380Y03720D01*
X04502*
X02084Y03064D02*
X02195D01*
X02040Y03020D02*
X02084Y03064D01*
X02040Y02790D02*
Y03020D01*
Y02790D02*
X02083Y02746D01*
X02160*
X02517Y03332D02*
X02533Y03349D01*
X02780Y03250D02*
X03090D01*
X02704Y03174D02*
X02780Y03250D01*
X02560Y03174D02*
X02704D01*
X02296Y02813D02*
X02300Y02810D01*
X02160Y02813D02*
X02296D01*
X02160Y02746D02*
X02196Y02710D01*
X02300*
X02390*
X02477Y02622*
X02550*
X02195Y03064D02*
D01*
Y03330*
Y03064D02*
X02352D01*
X02440Y03151*
X02536*
X02560Y03174*
Y03249D02*
Y03290D01*
X02440Y03332D02*
X02517D01*
X02437Y03330D02*
X02440Y03332D01*
X02285Y03330D02*
X02437D01*
X02285D02*
Y03384D01*
X02227Y03442D02*
X02285Y03384D01*
X02104Y03394D02*
X02152Y03442D01*
X03597Y04760D02*
X04080D01*
X03240Y04192D02*
X03302D01*
X03340Y04230*
Y04471*
X02670Y03600D02*
X02780D01*
X02320D02*
X02670D01*
Y03890*
X02730Y03950*
X02922*
X02270Y03651D02*
X02320Y03600D01*
X02218Y03651D02*
X02270D01*
X02120Y03750D02*
X02218Y03651D01*
X02120Y03750D02*
Y04270D01*
X02218Y04368*
X02270*
X02720Y04310D02*
Y04500D01*
X02581Y04171D02*
X02720Y04310D01*
X02270Y04171D02*
X02581D01*
X02822Y04082D02*
X02840Y04100D01*
X02760Y04082D02*
X02822D01*
X03160Y04192D02*
X03240D01*
X03244Y04187*
Y04100D02*
Y04187D01*
X03060Y04937D02*
X03517D01*
X04097Y04940D02*
X04100Y04937D01*
X03620Y04940D02*
X04097D01*
X03340Y04608D02*
X03350Y04618D01*
Y04730D02*
X03380Y04760D01*
X03522*
G54D26*
X03020Y02000D02*
X03420D01*
X02970Y02050D02*
X03020Y02000D01*
X02903Y02050D02*
X02970D01*
X03420Y02000D02*
X03560Y02140D01*
Y02470D02*
X03710D01*
X02455Y02285D02*
X02690D01*
X02330Y02410D02*
X02455Y02285D01*
X02300Y02410D02*
X02330D01*
X03560Y02140D02*
Y02210D01*
X03710Y02470D02*
X04040Y02800D01*
X03145Y02235D02*
X03210Y02170D01*
X03049Y02235D02*
X03145D01*
X02836Y02120D02*
Y02223D01*
X02775Y02285D02*
X02836Y02223D01*
X02690Y02285D02*
X02775D01*
X02780Y02050D02*
X02836D01*
X02690Y02139D02*
X02780Y02050D01*
X02690Y02139D02*
Y02235D01*
X02250Y02510D02*
X02300D01*
X02220Y02480D02*
X02250Y02510D01*
X02220Y02270D02*
Y02480D01*
Y02270D02*
X02255Y02235D01*
X02690*
X02720Y04279D02*
Y04310D01*
Y04279D02*
X02785Y04215D01*
X02865*
X02997Y04030D02*
Y04057D01*
Y03950D02*
Y04030D01*
Y04057D02*
X03054Y04115D01*
X02997Y03950D02*
D01*
X02760Y04157D02*
X02767Y04165D01*
X02865*
X03054Y04265D02*
X03237D01*
X02865D02*
X03054D01*
X03237D02*
X03240Y04267D01*
X03054Y04215D02*
Y04265D01*
Y04165D02*
X03132D01*
X03160Y04192*
G54D27*
X03905Y01853D03*
Y01735D03*
X03275Y01853D03*
Y01735D03*
G54D28*
X03540Y02690D03*
X02300Y02310D03*
Y02410D03*
Y02510D03*
Y02610D03*
Y02710D03*
X05200Y03650D03*
Y03450D03*
Y03350D03*
Y03250D03*
Y03150D03*
Y03050D03*
Y02950D03*
Y02850D03*
Y03550D03*
X03340Y04608D03*
X03520Y04940D03*
X02270Y03848D03*
Y03651D03*
Y04368D03*
Y04171D03*
X03800Y04608D03*
G54D29*
X03640Y02690D03*
X03620Y04940D03*
G54D30*
X04452Y04822D03*
X04450Y01835D03*
X01869Y03330D03*
G54D31*
X04640Y02800D03*
Y03460D03*
Y04120D03*
G54D32*
X04540Y02800D03*
X04440D03*
X04340D03*
X04240D03*
X04140D03*
X04040D03*
X03940D03*
X04640Y02500D03*
X04540D03*
X04440D03*
X04340D03*
X04240D03*
X04140D03*
X04040D03*
X03940D03*
X04540Y03460D03*
X04440D03*
X04340D03*
X04240D03*
X04140D03*
X04040D03*
X03940D03*
X04640Y03160D03*
X04540D03*
X04440D03*
X04340D03*
X04240D03*
X04140D03*
X04040D03*
X03940D03*
X04540Y04120D03*
X04440D03*
X04340D03*
X04240D03*
X04140D03*
X04040D03*
X03940D03*
X04640Y03820D03*
X04540D03*
X04440D03*
X04340D03*
X04240D03*
X04140D03*
X04040D03*
X03940D03*
G54D33*
X02300Y02810D03*
X05200Y03750D03*
X03340Y04471D03*
X03800D03*
G54D34*
X03100Y03600D03*
X02780D03*
G54D35*
X03100Y03699D03*
X02780D03*
G54D36*
X02780Y03349D03*
X03090D03*
G54D37*
X02780Y03250D03*
X03090D03*
G54D38*
X03060Y04937D03*
Y04522D03*
X04100Y04937D03*
Y04522D03*
G54D39*
X02920Y02980D03*
X02650Y04070D03*
X02100Y03520D03*
X03710Y02870D03*
X03210Y02560D03*
X03220Y02390D03*
X02550Y02780D03*
Y03350D03*
X04090Y03650D03*
X04030Y03720D03*
X03390Y03500D03*
X03330Y03197D03*
X02430Y02560D03*
X02470Y02370D03*
X02530D03*
X03560Y02470D03*
X03490Y02440D03*
X03770Y03283D03*
X03490Y01930D03*
X03560Y02210D03*
X03490Y02170D03*
X03210D03*
X03420Y02720D03*
Y02780D03*
X03710Y03510D03*
X03590D03*
M02*