%FSDAX23Y23*%
%MOIN*%
%SFA1B1*%

%IPPOS*%
%ADD10R,0.039400X0.043300*%
%ADD11R,0.059100X0.051200*%
%ADD12R,0.051200X0.059100*%
%ADD13R,0.043300X0.039400*%
%ADD14O,0.090600X0.023600*%
%ADD15R,0.049200X0.066900*%
%ADD16O,0.086600X0.023600*%
%ADD17R,0.063000X0.070900*%
%ADD18R,0.135800X0.061000*%
%ADD19R,0.043300X0.061000*%
%ADD20R,0.043300X0.061000*%
%ADD21R,0.114200X0.072800*%
%ADD22R,0.033500X0.027600*%
%ADD27C,0.060000*%
%ADD28C,0.059100*%
%ADD29R,0.059100X0.059100*%
%ADD30C,0.020600*%
%ADD31R,0.059100X0.059100*%
%ADD32C,0.059100*%
%ADD33R,0.059100X0.059100*%
%ADD34R,0.053100X0.053100*%
%ADD35C,0.053100*%
%ADD36C,0.049200*%
%ADD37R,0.049200X0.049200*%
%ADD38C,0.065000*%
%LNde-160516-1*%
%LPD*%
G54D10*
X03490Y01786D03*
Y01853D03*
X02160Y02746D03*
Y02813D03*
X03640Y02786D03*
Y02853D03*
X03540Y02786D03*
Y02853D03*
X03630Y01786D03*
Y01853D03*
G54D11*
X02560Y03249D03*
Y03174D03*
X02550Y02697D03*
Y02622D03*
X02760Y04082D03*
Y04157D03*
X03160Y04192D03*
Y04267D03*
X03240Y04192D03*
Y04267D03*
G54D12*
X04577Y02390D03*
X04502D03*
X02227Y03442D03*
X02152D03*
X02997Y03950D03*
X02922D03*
Y04030D03*
X02997D03*
X03522Y04760D03*
X03597D03*
X04577Y03050D03*
X04502D03*
X04577Y03720D03*
X04502D03*
G54D13*
X02836Y02120D03*
X02903D03*
X02836Y02050D03*
X02903D03*
G54D14*
X03049Y02235D03*
Y02285D03*
Y02335D03*
Y02385D03*
Y02435D03*
Y02485D03*
Y02535D03*
Y02585D03*
Y02635D03*
Y02685D03*
Y02735D03*
Y02785D03*
Y02835D03*
Y02885D03*
X02690Y02235D03*
Y02285D03*
Y02335D03*
Y02385D03*
Y02435D03*
Y02485D03*
Y02535D03*
Y02585D03*
Y02635D03*
Y02685D03*
Y02735D03*
Y02785D03*
Y02835D03*
Y02885D03*
G54D15*
X02859Y04500D03*
X02720D03*
G54D16*
X02865Y04265D03*
Y04215D03*
Y04165D03*
Y04115D03*
X03054Y04265D03*
Y04215D03*
Y04165D03*
Y04115D03*
G54D17*
X03355Y04100D03*
X03244D03*
G54D18*
X02195Y03064D03*
G54D19*
X02104Y03330D03*
X02195D03*
G54D20*
X02285Y03330D03*
G54D21*
X02440Y03151D03*
Y03332D03*
G54D22*
X05040Y03750D03*
X04979D03*
X05040Y03650D03*
X04979D03*
X05040Y03550D03*
X04979D03*
X05040Y03450D03*
X04979D03*
X05040Y03350D03*
X04979D03*
X05040Y03250D03*
X04979D03*
X05040Y03150D03*
X04979D03*
X05040Y03050D03*
X04979D03*
X05040Y02950D03*
X04979D03*
X05040Y02850D03*
X04979D03*
G54D27*
X03905Y01853D03*
Y01735D03*
X03275Y01853D03*
Y01735D03*
G54D28*
X03540Y02690D03*
X02300Y02310D03*
Y02410D03*
Y02510D03*
Y02610D03*
Y02710D03*
X05200Y03650D03*
Y03450D03*
Y03350D03*
Y03250D03*
Y03150D03*
Y03050D03*
Y02950D03*
Y02850D03*
Y03550D03*
X03340Y04608D03*
X03520Y04940D03*
X02270Y03848D03*
Y03651D03*
Y04368D03*
Y04171D03*
X03800Y04608D03*
G54D29*
X03640Y02690D03*
X03620Y04940D03*
G54D30*
X04452Y04822D03*
X04450Y01835D03*
X01869Y03330D03*
G54D31*
X04640Y02800D03*
Y03460D03*
Y04120D03*
G54D32*
X04540Y02800D03*
X04440D03*
X04340D03*
X04240D03*
X04140D03*
X04040D03*
X03940D03*
X04640Y02500D03*
X04540D03*
X04440D03*
X04340D03*
X04240D03*
X04140D03*
X04040D03*
X03940D03*
X04540Y03460D03*
X04440D03*
X04340D03*
X04240D03*
X04140D03*
X04040D03*
X03940D03*
X04640Y03160D03*
X04540D03*
X04440D03*
X04340D03*
X04240D03*
X04140D03*
X04040D03*
X03940D03*
X04540Y04120D03*
X04440D03*
X04340D03*
X04240D03*
X04140D03*
X04040D03*
X03940D03*
X04640Y03820D03*
X04540D03*
X04440D03*
X04340D03*
X04240D03*
X04140D03*
X04040D03*
X03940D03*
G54D33*
X02300Y02810D03*
X05200Y03750D03*
X03340Y04471D03*
X03800D03*
G54D34*
X03100Y03600D03*
X02780D03*
G54D35*
X03100Y03699D03*
X02780D03*
G54D36*
X02780Y03349D03*
X03090D03*
G54D37*
X02780Y03250D03*
X03090D03*
G54D38*
X03060Y04937D03*
Y04522D03*
X04100Y04937D03*
Y04522D03*
M02*