%FSDAX23Y23*%
%MOIN*%
%SFA1B1*%

%IPPOS*%
%ADD46C,0.003900*%
%LNde-160516-1*%
%LPD*%
G54D46*
X03104Y02193D02*
Y02926D01*
X02635Y02193D02*
Y02926D01*
Y02193D02*
X03104D01*
X02635Y02926D02*
X03104D01*
X02850Y02560D02*
X02889D01*
X02870Y02540D02*
Y02579D01*
X02812Y04081D02*
Y04298D01*
X03107Y04081D02*
Y04298D01*
X02812D02*
X03107D01*
X02812Y04081D02*
X03107D01*
X02940Y04190D02*
X02979D01*
X02960Y04170D02*
Y04209D01*
X05010Y03730D02*
Y03769D01*
X04990Y03750D02*
X05029D01*
X04948Y03779D02*
X05072D01*
X04948Y03720D02*
X05072D01*
Y03779*
X04948Y03720D02*
Y03779D01*
X05010Y03630D02*
Y03669D01*
X04990Y03650D02*
X05029D01*
X04948Y03679D02*
X05072D01*
X04948Y03620D02*
X05072D01*
Y03679*
X04948Y03620D02*
Y03679D01*
X05010Y03530D02*
Y03569D01*
X04990Y03550D02*
X05029D01*
X04948Y03579D02*
X05072D01*
X04948Y03520D02*
X05072D01*
Y03579*
X04948Y03520D02*
Y03579D01*
X05010Y03430D02*
Y03469D01*
X04990Y03450D02*
X05029D01*
X04948Y03479D02*
X05072D01*
X04948Y03420D02*
X05072D01*
Y03479*
X04948Y03420D02*
Y03479D01*
X05010Y03330D02*
Y03369D01*
X04990Y03350D02*
X05029D01*
X04948Y03379D02*
X05072D01*
X04948Y03320D02*
X05072D01*
Y03379*
X04948Y03320D02*
Y03379D01*
X05010Y03230D02*
Y03269D01*
X04990Y03250D02*
X05029D01*
X04948Y03279D02*
X05072D01*
X04948Y03220D02*
X05072D01*
Y03279*
X04948Y03220D02*
Y03279D01*
X05010Y03130D02*
Y03169D01*
X04990Y03150D02*
X05029D01*
X04948Y03179D02*
X05072D01*
X04948Y03120D02*
X05072D01*
Y03179*
X04948Y03120D02*
Y03179D01*
X05010Y03030D02*
Y03069D01*
X04990Y03050D02*
X05029D01*
X04948Y03079D02*
X05072D01*
X04948Y03020D02*
X05072D01*
Y03079*
X04948Y03020D02*
Y03079D01*
X05010Y02930D02*
Y02969D01*
X04990Y02950D02*
X05029D01*
X04948Y02979D02*
X05072D01*
X04948Y02920D02*
X05072D01*
Y02979*
X04948Y02920D02*
Y02979D01*
X05010Y02830D02*
Y02869D01*
X04990Y02850D02*
X05029D01*
X04948Y02879D02*
X05072D01*
X04948Y02820D02*
X05072D01*
Y02879*
X04948Y02820D02*
Y02879D01*
M02*