%FSDAX23Y23*%
%MOIN*%
%SFA1B1*%

%IPPOS*%
%ADD9500C,0.028000*%
%ADD9501C,0.029500*%
%ADD9502C,0.030000*%
%ADD9503C,0.031500*%
%ADD9504C,0.035400*%
%ADD9505C,0.039400*%
%ADD9506C,0.157500*%
%LNde-160516-1*%
%LPD*%
G54D9500*
X03210Y02170D03*
X03220Y02390D03*
X03210Y02560D03*
X03420Y02720D03*
Y02780D03*
X03710Y02870D03*
X03560Y02470D03*
X03490Y02440D03*
Y02170D03*
X03560Y02210D03*
X03490Y01930D03*
X02530Y02370D03*
X02470D03*
X02430Y02560D03*
X02550Y02780D03*
X02920Y02980D03*
X02550Y03350D03*
X02100Y03520D03*
X02650Y04070D03*
X03390Y03500D03*
X03590Y03510D03*
X03710D03*
X03770Y03283D03*
X03330Y03197D03*
X04090Y03650D03*
X04030Y03720D03*
G54D9501*
X02780Y03250D03*
Y03349D03*
X03090D03*
Y03250D03*
G54D9502*
X03275Y01735D03*
Y01853D03*
X03905D03*
Y01735D03*
G54D9503*
X02780Y03600D03*
Y03699D03*
X03100D03*
Y03600D03*
G54D9504*
X05200Y02850D03*
Y02950D03*
Y03050D03*
X04640Y02800D03*
X04540D03*
X04440D03*
X04340D03*
X04240D03*
X04140D03*
X04040D03*
X03940D03*
Y02500D03*
X04040D03*
X04140D03*
X04240D03*
X04340D03*
X04440D03*
X04540D03*
X04640D03*
X03640Y02690D03*
X03540D03*
X02300Y02710D03*
Y02610D03*
Y02510D03*
Y02410D03*
Y02310D03*
Y02810D03*
X02270Y03651D03*
Y03848D03*
Y04171D03*
Y04368D03*
X03340Y04471D03*
Y04608D03*
X03800D03*
Y04471D03*
X03940Y04120D03*
X04040D03*
X04140D03*
X04240D03*
X04340D03*
X04440D03*
X04540D03*
X04640D03*
Y03820D03*
X04540D03*
X04440D03*
X04340D03*
X04240D03*
X04140D03*
X04040D03*
X03940D03*
Y03460D03*
X04040D03*
X04140D03*
X04240D03*
X04340D03*
X04440D03*
X04540D03*
X04640D03*
Y03160D03*
X04540D03*
X04440D03*
X04340D03*
X04240D03*
X04140D03*
X04040D03*
X03940D03*
X05200Y03150D03*
Y03250D03*
Y03350D03*
Y03450D03*
Y03550D03*
Y03650D03*
Y03750D03*
X03620Y04940D03*
X03520D03*
G54D9505*
X03060Y04522D03*
X04100D03*
Y04937D03*
X03060D03*
G54D9506*
X04450Y01835D03*
X01869Y03330D03*
X04452Y04822D03*
M02*