%FSDAX23Y23*%
%MOIN*%
%SFA1B1*%

%IPPOS*%
%ADD10R,0.039400X0.043300*%
%ADD11R,0.059100X0.051200*%
%ADD13R,0.043300X0.039400*%
%ADD23C,0.019700*%
%ADD24C,0.078700*%
%ADD25C,0.039400*%
%ADD26C,0.023600*%
%ADD27C,0.060000*%
%ADD28C,0.059100*%
%ADD29R,0.059100X0.059100*%
%ADD30C,0.020600*%
%ADD31R,0.059100X0.059100*%
%ADD32C,0.059100*%
%ADD33R,0.059100X0.059100*%
%ADD34R,0.053100X0.053100*%
%ADD35C,0.053100*%
%ADD36C,0.049200*%
%ADD37R,0.049200X0.049200*%
%ADD38C,0.065000*%
%ADD39C,0.050000*%
%ADD40R,0.039400X0.013800*%
%ADD41C,0.011800*%
%ADD42C,0.015700*%
%LNde-160516-1*%
%LPD*%
G36*
X03714Y05235D02*
X03797Y05228D01*
X03880Y05217*
X03962Y05203*
X04044Y05185*
X04124Y05163*
X04203Y05138*
X04282Y05110*
X04359Y05078*
X04434Y05042*
X04508Y05004*
X04580Y04962*
X04651Y04918*
X04719Y04870*
X04785Y04819*
X04849Y04765*
X04910Y04709*
X04969Y04650*
X05025Y04589*
X05079Y04525*
X05130Y04459*
X05178Y04391*
X05222Y04320*
X05264Y04248*
X05302Y04174*
X05338Y04099*
X05370Y04022*
X05398Y03943*
X05423Y03864*
X05445Y03784*
X05463Y03702*
X05477Y03620*
X05488Y03537*
X05495Y03454*
X05499Y03371*
Y03330*
Y03288*
X05495Y03205*
X05488Y03122*
X05477Y03039*
X05463Y02957*
X05445Y02876*
X05423Y02795*
X05398Y02716*
X05370Y02637*
X05338Y02560*
X05302Y02485*
X05264Y02411*
X05222Y02339*
X05178Y02268*
X05130Y02200*
X05079Y02134*
X05025Y02070*
X04969Y02009*
X04910Y01950*
X04849Y01894*
X04785Y01840*
X04719Y01789*
X04651Y01742*
X04580Y01697*
X04508Y01655*
X04434Y01617*
X04359Y01581*
X04282Y01550*
X04203Y01521*
X04124Y01496*
X04044Y01474*
X03962Y01456*
X03880Y01442*
X03797Y01431*
X03714Y01424*
X03631Y01420*
X03548*
X03465Y01424*
X03382Y01431*
X03299Y01442*
X03217Y01456*
X03136Y01474*
X03055Y01496*
X02976Y01521*
X02897Y01550*
X02820Y01581*
X02745Y01617*
X02671Y01655*
X02599Y01697*
X02528Y01742*
X02460Y01789*
X02394Y01840*
X02330Y01894*
X02269Y01950*
X02210Y02009*
X02154Y02070*
X02100Y02134*
X02049Y02200*
X02002Y02268*
X01957Y02339*
X01915Y02411*
X01877Y02485*
X01841Y02560*
X01810Y02637*
X01781Y02716*
X01756Y02795*
X01734Y02876*
X01716Y02957*
X01702Y03039*
X01691Y03122*
X01684Y03205*
X01680Y03288*
Y03330*
Y03371*
X01684Y03454*
X01691Y03537*
X01702Y03620*
X01716Y03702*
X01734Y03784*
X01756Y03864*
X01781Y03943*
X01810Y04022*
X01841Y04099*
X01877Y04174*
X01915Y04248*
X01957Y04320*
X02002Y04391*
X02049Y04459*
X02100Y04525*
X02154Y04589*
X02210Y04650*
X02269Y04709*
X02330Y04765*
X02394Y04819*
X02460Y04870*
X02528Y04918*
X02599Y04962*
X02671Y05004*
X02745Y05042*
X02820Y05078*
X02897Y05110*
X02976Y05138*
X03055Y05163*
X03136Y05185*
X03217Y05203*
X03299Y05217*
X03382Y05228*
X03465Y05235*
X03548Y05239*
X03631*
X03714Y05235*
G37*
%LNde-160516-2*%
%LPC*%
G36*
X05200Y02995D02*
X05188Y02994D01*
X05177Y02989*
X05167Y02982*
X05160Y02972*
X05155Y02961*
X05154Y02950*
X05155Y02938*
X05160Y02927*
X05167Y02917*
X05177Y02910*
X05188Y02905*
X05200Y02904*
X05211Y02905*
X05222Y02910*
X05232Y02917*
X05239Y02927*
X05244Y02938*
X05245Y02950*
X05244Y02961*
X05239Y02972*
X05232Y02982*
X05222Y02989*
X05211Y02994*
X05200Y02995*
G37*
G36*
Y03095D02*
X05188Y03094D01*
X05177Y03089*
X05167Y03082*
X05160Y03072*
X05155Y03061*
X05154Y03050*
X05155Y03038*
X05160Y03027*
X05167Y03017*
X05177Y03010*
X05188Y03005*
X05200Y03004*
X05211Y03005*
X05222Y03010*
X05232Y03017*
X05239Y03027*
X05244Y03038*
X05245Y03050*
X05244Y03061*
X05239Y03072*
X05232Y03082*
X05222Y03089*
X05211Y03094*
X05200Y03095*
G37*
G36*
X03704Y02906D02*
X03700Y02905D01*
X03691Y02902*
X03683Y02896*
X03677Y02888*
X03674Y02879*
X03673Y02875*
X03704*
Y02906*
G37*
G36*
X03715D02*
Y02875D01*
X03746*
X03745Y02879*
X03742Y02888*
X03736Y02896*
X03728Y02902*
X03719Y02905*
X03715Y02906*
G37*
G36*
X03464Y03116D02*
X03428D01*
Y03085*
X03464*
Y03116*
G37*
G36*
X03621D02*
X03585D01*
Y03085*
X03621*
Y03116*
G37*
G36*
X05200Y03195D02*
X05188Y03194D01*
X05177Y03189*
X05167Y03182*
X05160Y03172*
X05155Y03161*
X05154Y03150*
X05155Y03138*
X05160Y03127*
X05167Y03117*
X05177Y03110*
X05188Y03105*
X05200Y03104*
X05211Y03105*
X05222Y03110*
X05232Y03117*
X05239Y03127*
X05244Y03138*
X05245Y03150*
X05244Y03161*
X05239Y03172*
X05232Y03182*
X05222Y03189*
X05211Y03194*
X05200Y03195*
G37*
G36*
X03511Y03116D02*
X03475D01*
Y03085*
X03511*
Y03116*
G37*
G36*
X03574D02*
X03538D01*
Y03085*
X03574*
Y03116*
G37*
G36*
X05200Y02895D02*
X05188Y02894D01*
X05177Y02889*
X05167Y02882*
X05160Y02872*
X05155Y02861*
X05154Y02850*
X05155Y02838*
X05160Y02827*
X05167Y02817*
X05177Y02810*
X05188Y02805*
X05200Y02804*
X05211Y02805*
X05222Y02810*
X05232Y02817*
X05239Y02827*
X05244Y02838*
X05245Y02850*
X05244Y02861*
X05239Y02872*
X05232Y02882*
X05222Y02889*
X05211Y02894*
X05200Y02895*
G37*
G36*
X04234Y02840D02*
X04229Y02840D01*
X04219Y02836*
X04210Y02829*
X04203Y02820*
X04199Y02810*
X04199Y02805*
X04234*
Y02840*
G37*
G36*
X02544Y02816D02*
X02540Y02815D01*
X02531Y02812*
X02523Y02806*
X02517Y02798*
X02514Y02789*
X02513Y02785*
X02544*
Y02816*
G37*
G36*
X02555D02*
Y02785D01*
X02586*
X02585Y02789*
X02582Y02798*
X02576Y02806*
X02568Y02812*
X02559Y02815*
X02555Y02816*
G37*
G36*
X04334Y02840D02*
X04329Y02840D01*
X04319Y02836*
X04310Y02829*
X04303Y02820*
X04299Y02810*
X04299Y02805*
X04334*
Y02840*
G37*
G36*
X03704Y02864D02*
X03673D01*
X03674Y02860*
X03677Y02851*
X03683Y02843*
X03691Y02837*
X03700Y02834*
X03704Y02833*
Y02864*
G37*
G36*
X03746D02*
X03715D01*
Y02833*
X03719Y02834*
X03728Y02837*
X03736Y02843*
X03742Y02851*
X03745Y02860*
X03746Y02864*
G37*
G36*
X04245Y02840D02*
Y02805D01*
X04280*
X04280Y02810*
X04276Y02820*
X04269Y02829*
X04260Y02836*
X04250Y02840*
X04245Y02840*
G37*
G36*
X04345D02*
Y02805D01*
X04380*
X04380Y02810*
X04376Y02820*
X04369Y02829*
X04360Y02836*
X04350Y02840*
X04345Y02840*
G37*
G36*
X04140Y03205D02*
X04128Y03204D01*
X04117Y03199*
X04107Y03192*
X04100Y03182*
X04095Y03171*
X04094Y03160*
X04095Y03148*
X04100Y03137*
X04107Y03127*
X04117Y03120*
X04128Y03115*
X04140Y03114*
X04151Y03115*
X04162Y03120*
X04172Y03127*
X04179Y03137*
X04184Y03148*
X04185Y03160*
X04184Y03171*
X04179Y03182*
X04172Y03192*
X04162Y03199*
X04151Y03204*
X04140Y03205*
G37*
G36*
X01869Y03424D02*
X01851Y03423D01*
X01833Y03417*
X01816Y03408*
X01802Y03397*
X01790Y03382*
X01781Y03366*
X01776Y03348*
X01774Y03330*
X01776Y03311*
X01781Y03293*
X01790Y03277*
X01802Y03262*
X01816Y03251*
X01833Y03242*
X01851Y03236*
X01869Y03235*
X01888Y03236*
X01905Y03242*
X01922Y03251*
X01936Y03262*
X01948Y03277*
X01957Y03293*
X01962Y03311*
X01964Y03330*
X01962Y03348*
X01957Y03366*
X01948Y03382*
X01936Y03397*
X01922Y03408*
X01905Y03417*
X01888Y03423*
X01869Y03424*
G37*
G36*
X03320Y03294D02*
X03293D01*
Y03268*
X03320*
Y03294*
G37*
G36*
X02820Y03291D02*
X02739D01*
Y03210*
X02820*
Y03291*
G37*
G36*
X03130D02*
X03049D01*
Y03210*
X03130*
Y03291*
G37*
G36*
X05200Y03395D02*
X05188Y03394D01*
X05177Y03389*
X05167Y03382*
X05160Y03372*
X05155Y03361*
X05154Y03350*
X05155Y03338*
X05160Y03327*
X05167Y03317*
X05177Y03310*
X05188Y03305*
X05200Y03304*
X05211Y03305*
X05222Y03310*
X05232Y03317*
X05239Y03327*
X05244Y03338*
X05245Y03350*
X05244Y03361*
X05239Y03372*
X05232Y03382*
X05222Y03389*
X05211Y03394*
X05200Y03395*
G37*
G36*
X02816Y03343D02*
X02785D01*
Y03313*
X02789Y03313*
X02798Y03317*
X02806Y03323*
X02811Y03330*
X02815Y03339*
X02816Y03343*
G37*
G36*
X03126D02*
X03095D01*
Y03313*
X03099Y03313*
X03108Y03317*
X03116Y03323*
X03121Y03330*
X03125Y03339*
X03126Y03343*
G37*
G36*
X02774D02*
X02744D01*
X02744Y03339*
X02748Y03330*
X02754Y03323*
X02761Y03317*
X02770Y03313*
X02774Y03313*
Y03343*
G37*
G36*
X03084D02*
X03054D01*
X03054Y03339*
X03058Y03330*
X03064Y03323*
X03071Y03317*
X03080Y03313*
X03084Y03313*
Y03343*
G37*
G36*
X04280Y03154D02*
X04245D01*
Y03119*
X04250Y03119*
X04260Y03123*
X04269Y03130*
X04276Y03139*
X04280Y03149*
X04280Y03154*
G37*
G36*
X04380D02*
X04345D01*
Y03119*
X04350Y03119*
X04360Y03123*
X04369Y03130*
X04376Y03139*
X04380Y03149*
X04380Y03154*
G37*
G36*
X04234D02*
X04199D01*
X04199Y03149*
X04203Y03139*
X04210Y03130*
X04219Y03123*
X04229Y03119*
X04234Y03119*
Y03154*
G37*
G36*
X04334D02*
X04299D01*
X04299Y03149*
X04303Y03139*
X04310Y03130*
X04319Y03123*
X04329Y03119*
X04334Y03119*
Y03154*
G37*
G36*
X04234Y03200D02*
X04229Y03200D01*
X04219Y03196*
X04210Y03189*
X04203Y03180*
X04199Y03170*
X04199Y03165*
X04234*
Y03200*
G37*
G36*
X04345D02*
Y03165D01*
X04380*
X04380Y03170*
X04376Y03180*
X04369Y03189*
X04360Y03196*
X04350Y03200*
X04345Y03200*
G37*
G36*
X05200Y03295D02*
X05188Y03294D01*
X05177Y03289*
X05167Y03282*
X05160Y03272*
X05155Y03261*
X05154Y03250*
X05155Y03238*
X05160Y03227*
X05167Y03217*
X05177Y03210*
X05188Y03205*
X05200Y03204*
X05211Y03205*
X05222Y03210*
X05232Y03217*
X05239Y03227*
X05244Y03238*
X05245Y03250*
X05244Y03261*
X05239Y03272*
X05232Y03282*
X05222Y03289*
X05211Y03294*
X05200Y03295*
G37*
G36*
X04334Y03200D02*
X04329Y03200D01*
X04319Y03196*
X04310Y03189*
X04303Y03180*
X04299Y03170*
X04299Y03165*
X04334*
Y03200*
G37*
G36*
X04245D02*
Y03165D01*
X04280*
X04280Y03170*
X04276Y03180*
X04269Y03189*
X04260Y03196*
X04250Y03200*
X04245Y03200*
G37*
G36*
X03971Y02360D02*
X03945D01*
Y02333*
X03971*
Y02360*
G37*
G36*
X03214Y02384D02*
X03183D01*
X03184Y02380*
X03187Y02371*
X03193Y02363*
X03201Y02357*
X03210Y02354*
X03214Y02353*
Y02384*
G37*
G36*
X03905Y01899D02*
X03893Y01898D01*
X03881Y01893*
X03872Y01886*
X03865Y01876*
X03860Y01865*
X03858Y01853*
X03860Y01841*
X03865Y01830*
X03872Y01821*
X03881Y01813*
X03893Y01809*
X03905Y01807*
X03916Y01809*
X03928Y01813*
X03937Y01821*
X03944Y01830*
X03949Y01841*
X03951Y01853*
X03949Y01865*
X03944Y01876*
X03937Y01886*
X03928Y01893*
X03916Y01898*
X03905Y01899*
G37*
G36*
X03934Y02360D02*
X03908D01*
Y02333*
X03934*
Y02360*
G37*
G36*
X02300Y02455D02*
X02288Y02454D01*
X02277Y02449*
X02267Y02442*
X02260Y02432*
X02255Y02421*
X02254Y02410*
X02255Y02398*
X02260Y02387*
X02267Y02377*
X02277Y02370*
X02288Y02365*
X02300Y02364*
X02311Y02365*
X02322Y02370*
X02332Y02377*
X02339Y02387*
X02344Y02398*
X02345Y02410*
X02344Y02421*
X02339Y02432*
X02332Y02442*
X02322Y02449*
X02311Y02454*
X02300Y02455*
G37*
G36*
X04234Y02494D02*
X04199D01*
X04199Y02489*
X04203Y02479*
X04210Y02470*
X04219Y02463*
X04229Y02459*
X04234Y02459*
Y02494*
G37*
G36*
X04280D02*
X04245D01*
Y02459*
X04250Y02459*
X04260Y02463*
X04269Y02470*
X04276Y02479*
X04280Y02489*
X04280Y02494*
G37*
G36*
X04040Y02545D02*
X04028Y02544D01*
X04017Y02539*
X04007Y02532*
X04000Y02522*
X03995Y02511*
X03994Y02500*
X03995Y02488*
X04000Y02477*
X04007Y02467*
X04017Y02460*
X04028Y02455*
X04040Y02454*
X04051Y02455*
X04062Y02460*
X04072Y02467*
X04079Y02477*
X04084Y02488*
X04085Y02500*
X04084Y02511*
X04079Y02522*
X04072Y02532*
X04062Y02539*
X04051Y02544*
X04040Y02545*
G37*
G36*
X04140D02*
X04128Y02544D01*
X04117Y02539*
X04107Y02532*
X04100Y02522*
X04095Y02511*
X04094Y02500*
X04095Y02488*
X04100Y02477*
X04107Y02467*
X04117Y02460*
X04128Y02455*
X04140Y02454*
X04151Y02455*
X04162Y02460*
X04172Y02467*
X04179Y02477*
X04184Y02488*
X04185Y02500*
X04184Y02511*
X04179Y02522*
X04172Y02532*
X04162Y02539*
X04151Y02544*
X04140Y02545*
G37*
G36*
X03316Y01729D02*
X03280D01*
Y01694*
X03286Y01694*
X03296Y01699*
X03304Y01705*
X03311Y01714*
X03315Y01724*
X03316Y01729*
G37*
G36*
X03946D02*
X03910D01*
Y01694*
X03915Y01694*
X03926Y01699*
X03934Y01705*
X03941Y01714*
X03945Y01724*
X03946Y01729*
G37*
G36*
X03899D02*
X03863D01*
X03864Y01724*
X03868Y01714*
X03875Y01705*
X03883Y01699*
X03894Y01694*
X03899Y01694*
Y01729*
G37*
G36*
X03269D02*
X03233D01*
X03234Y01724*
X03238Y01714*
X03245Y01705*
X03254Y01699*
X03264Y01694*
X03269Y01694*
Y01729*
G37*
G36*
X04450Y01929D02*
X04431Y01928D01*
X04413Y01922*
X04397Y01913*
X04382Y01902*
X04371Y01887*
X04362Y01871*
X04356Y01853*
X04355Y01835*
X04356Y01816*
X04362Y01798*
X04371Y01782*
X04382Y01767*
X04397Y01756*
X04413Y01747*
X04431Y01741*
X04450Y01740*
X04468Y01741*
X04486Y01747*
X04502Y01756*
X04517Y01767*
X04528Y01782*
X04537Y01798*
X04543Y01816*
X04544Y01835*
X04543Y01853*
X04537Y01871*
X04528Y01887*
X04517Y01902*
X04502Y01913*
X04486Y01922*
X04468Y01928*
X04450Y01929*
G37*
G36*
X03269Y01776D02*
X03264Y01776D01*
X03254Y01772*
X03245Y01765*
X03238Y01756*
X03234Y01746*
X03233Y01741*
X03269*
Y01776*
G37*
G36*
X03280D02*
Y01741D01*
X03316*
X03315Y01746*
X03311Y01756*
X03304Y01765*
X03296Y01772*
X03286Y01776*
X03280Y01776*
G37*
G36*
X03899D02*
X03894Y01776D01*
X03883Y01772*
X03875Y01765*
X03868Y01756*
X03864Y01746*
X03863Y01741*
X03899*
Y01776*
G37*
G36*
X03910D02*
Y01741D01*
X03946*
X03945Y01746*
X03941Y01756*
X03934Y01765*
X03926Y01772*
X03915Y01776*
X03910Y01776*
G37*
G36*
X02300Y02555D02*
X02288Y02554D01*
X02277Y02549*
X02267Y02542*
X02260Y02532*
X02255Y02521*
X02254Y02510*
X02255Y02498*
X02260Y02487*
X02267Y02477*
X02277Y02470*
X02288Y02465*
X02300Y02464*
X02311Y02465*
X02322Y02470*
X02332Y02477*
X02339Y02487*
X02344Y02498*
X02345Y02510*
X02344Y02521*
X02339Y02532*
X02332Y02542*
X02322Y02549*
X02311Y02554*
X02300Y02555*
G37*
G36*
X02586Y02774D02*
X02555D01*
Y02743*
X02559Y02744*
X02568Y02747*
X02576Y02753*
X02582Y02761*
X02585Y02770*
X02586Y02774*
G37*
G36*
X04140Y02845D02*
X04128Y02844D01*
X04117Y02839*
X04107Y02832*
X04100Y02822*
X04095Y02811*
X04094Y02800*
X04095Y02788*
X04100Y02777*
X04107Y02767*
X04117Y02760*
X04128Y02755*
X04140Y02754*
X04151Y02755*
X04162Y02760*
X04172Y02767*
X04179Y02777*
X04184Y02788*
X04185Y02800*
X04184Y02811*
X04179Y02822*
X04172Y02832*
X04162Y02839*
X04151Y02844*
X04140Y02845*
G37*
G36*
X02300Y02755D02*
X02288Y02754D01*
X02277Y02749*
X02267Y02742*
X02260Y02732*
X02255Y02721*
X02254Y02710*
X02255Y02698*
X02260Y02687*
X02267Y02677*
X02277Y02670*
X02288Y02665*
X02300Y02664*
X02311Y02665*
X02322Y02670*
X02332Y02677*
X02339Y02687*
X02344Y02698*
X02345Y02710*
X02344Y02721*
X02339Y02732*
X02332Y02742*
X02322Y02749*
X02311Y02754*
X02300Y02755*
G37*
G36*
X02544Y02774D02*
X02513D01*
X02514Y02770*
X02517Y02761*
X02523Y02753*
X02531Y02747*
X02540Y02744*
X02544Y02743*
Y02774*
G37*
G36*
X04234Y02794D02*
X04199D01*
X04199Y02789*
X04203Y02779*
X04210Y02770*
X04219Y02763*
X04229Y02759*
X04234Y02759*
Y02794*
G37*
G36*
X04380D02*
X04345D01*
Y02759*
X04350Y02759*
X04360Y02763*
X04369Y02770*
X04376Y02779*
X04380Y02789*
X04380Y02794*
G37*
G36*
X02345Y02855D02*
X02254D01*
Y02845*
X02230*
X02220Y02844*
X02212Y02841*
X02204Y02835*
X02164Y02795*
X02159Y02787*
X02155Y02779*
X02154Y02770*
Y02320*
X02155Y02310*
X02159Y02302*
X02164Y02294*
X02314Y02144*
X02322Y02139*
X02330Y02135*
X02340Y02134*
X03189*
X03199Y02130*
X03210Y02128*
X03220Y02130*
X03230Y02134*
X03239Y02140*
X03245Y02149*
X03249Y02159*
X03251Y02170*
X03249Y02180*
X03245Y02190*
X03239Y02199*
X03230Y02205*
X03220Y02209*
X03210Y02211*
X03199Y02209*
X03189Y02205*
X02354*
X02301Y02259*
X02302Y02264*
X02311Y02265*
X02322Y02270*
X02332Y02277*
X02339Y02287*
X02344Y02298*
X02345Y02310*
X02344Y02321*
X02339Y02332*
X02332Y02342*
X02322Y02349*
X02311Y02354*
X02300Y02355*
X02288Y02354*
X02277Y02349*
X02267Y02342*
X02260Y02332*
X02255Y02321*
X02254Y02312*
X02249Y02311*
X02225Y02334*
Y02755*
X02244Y02774*
X02254*
Y02764*
X02345*
Y02855*
G37*
G36*
X04334Y02794D02*
X04299D01*
X04299Y02789*
X04303Y02779*
X04310Y02770*
X04319Y02763*
X04329Y02759*
X04334Y02759*
Y02794*
G37*
G36*
X04280D02*
X04245D01*
Y02759*
X04250Y02759*
X04260Y02763*
X04269Y02770*
X04276Y02779*
X04280Y02789*
X04280Y02794*
G37*
G36*
X04334Y02540D02*
X04329Y02540D01*
X04319Y02536*
X04310Y02529*
X04303Y02520*
X04299Y02510*
X04299Y02505*
X04334*
Y02540*
G37*
G36*
X04245D02*
Y02505D01*
X04280*
X04280Y02510*
X04276Y02520*
X04269Y02529*
X04260Y02536*
X04250Y02540*
X04245Y02540*
G37*
G36*
X03560Y02511D02*
X03549Y02509D01*
X03539Y02505*
X03530Y02499*
X03524Y02490*
X03520Y02480*
X03519Y02475*
X03514Y02472*
X03510Y02475*
X03500Y02479*
X03490Y02481*
X03479Y02479*
X03469Y02475*
X03460Y02469*
X03454Y02460*
X03450Y02450*
X03448Y02440*
X03450Y02429*
X03454Y02419*
X03460Y02410*
X03462Y02410*
Y02200*
X03460Y02199*
X03454Y02190*
X03450Y02180*
X03448Y02170*
X03450Y02159*
X03454Y02149*
X03460Y02140*
X03469Y02134*
X03479Y02130*
X03490Y02128*
X03500Y02130*
X03510Y02134*
X03519Y02140*
X03525Y02149*
X03529Y02159*
X03531Y02170*
X03530Y02175*
X03535Y02177*
X03539Y02174*
X03549Y02170*
X03560Y02168*
X03570Y02170*
X03580Y02174*
X03589Y02180*
X03595Y02189*
X03599Y02199*
X03601Y02210*
X03599Y02220*
X03595Y02230*
X03589Y02239*
X03587Y02240*
Y02440*
X03589Y02440*
X03595Y02449*
X03599Y02459*
X03601Y02470*
X03599Y02480*
X03595Y02490*
X03589Y02499*
X03580Y02505*
X03570Y02509*
X03560Y02511*
G37*
G36*
X04234Y02540D02*
X04229Y02540D01*
X04219Y02536*
X04210Y02529*
X04203Y02520*
X04199Y02510*
X04199Y02505*
X04234*
Y02540*
G37*
G36*
X02294Y02604D02*
X02259D01*
X02259Y02599*
X02263Y02589*
X02270Y02580*
X02279Y02573*
X02289Y02569*
X02294Y02569*
Y02604*
G37*
G36*
X02305Y02650D02*
Y02615D01*
X02340*
X02340Y02620*
X02336Y02630*
X02329Y02639*
X02320Y02646*
X02310Y02650*
X02305Y02650*
G37*
G36*
X03685Y02735D02*
X03594D01*
Y02644*
X03685*
Y02735*
G37*
G36*
X02340Y02604D02*
X02305D01*
Y02569*
X02310Y02569*
X02320Y02573*
X02329Y02580*
X02336Y02589*
X02340Y02599*
X02340Y02604*
G37*
G36*
X02294Y02650D02*
X02289Y02650D01*
X02279Y02646*
X02270Y02639*
X02263Y02630*
X02259Y02620*
X02259Y02615*
X02294*
Y02650*
G37*
G36*
X02544Y03344D02*
X02513D01*
X02514Y03340*
X02517Y03331*
X02523Y03323*
X02531Y03317*
X02540Y03314*
X02544Y03313*
Y03344*
G37*
G36*
X04234Y04160D02*
X04229Y04160D01*
X04219Y04156*
X04210Y04149*
X04203Y04140*
X04199Y04130*
X04199Y04125*
X04234*
Y04160*
G37*
G36*
X04334D02*
X04329Y04160D01*
X04319Y04156*
X04310Y04149*
X04303Y04140*
X04299Y04130*
X04299Y04125*
X04334*
Y04160*
G37*
G36*
X04280Y04114D02*
X04245D01*
Y04079*
X04250Y04079*
X04260Y04083*
X04269Y04090*
X04276Y04099*
X04280Y04109*
X04280Y04114*
G37*
G36*
X04380D02*
X04345D01*
Y04079*
X04350Y04079*
X04360Y04083*
X04369Y04090*
X04376Y04099*
X04380Y04109*
X04380Y04114*
G37*
G36*
X04245Y04160D02*
Y04125D01*
X04280*
X04280Y04130*
X04276Y04140*
X04269Y04149*
X04260Y04156*
X04250Y04160*
X04245Y04160*
G37*
G36*
X02270Y04414D02*
X02258Y04412D01*
X02247Y04408*
X02237Y04400*
X02230Y04391*
X02225Y04380*
X02224Y04368*
X02225Y04356*
X02230Y04345*
X02237Y04336*
X02247Y04328*
X02258Y04324*
X02270Y04322*
X02281Y04324*
X02292Y04328*
X02302Y04336*
X02309Y04345*
X02314Y04356*
X02315Y04368*
X02314Y04380*
X02309Y04391*
X02302Y04400*
X02292Y04408*
X02281Y04412*
X02270Y04414*
G37*
G36*
X03385Y04516D02*
X03294D01*
Y04425*
X03385*
Y04516*
G37*
G36*
X04345Y04160D02*
Y04125D01*
X04380*
X04380Y04130*
X04376Y04140*
X04369Y04149*
X04360Y04156*
X04350Y04160*
X04345Y04160*
G37*
G36*
X02270Y04217D02*
X02258Y04215D01*
X02247Y04211*
X02237Y04203*
X02230Y04194*
X02225Y04183*
X02224Y04171*
X02225Y04159*
X02230Y04148*
X02237Y04139*
X02247Y04132*
X02258Y04127*
X02270Y04125*
X02281Y04127*
X02292Y04132*
X02302Y04139*
X02309Y04148*
X02314Y04159*
X02315Y04171*
X02314Y04183*
X02309Y04194*
X02302Y04203*
X02292Y04211*
X02281Y04215*
X02270Y04217*
G37*
G36*
X04140Y04165D02*
X04128Y04164D01*
X04117Y04159*
X04107Y04152*
X04100Y04142*
X04095Y04131*
X04094Y04120*
X04095Y04108*
X04100Y04097*
X04107Y04087*
X04117Y04080*
X04128Y04075*
X04140Y04074*
X04151Y04075*
X04162Y04080*
X04172Y04087*
X04179Y04097*
X04184Y04108*
X04185Y04120*
X04184Y04131*
X04179Y04142*
X04172Y04152*
X04162Y04159*
X04151Y04164*
X04140Y04165*
G37*
G36*
X04440D02*
X04428Y04164D01*
X04417Y04159*
X04407Y04152*
X04400Y04142*
X04395Y04131*
X04394Y04120*
X04395Y04108*
X04400Y04097*
X04407Y04087*
X04417Y04080*
X04428Y04075*
X04440Y04074*
X04451Y04075*
X04462Y04080*
X04472Y04087*
X04479Y04097*
X04484Y04108*
X04485Y04120*
X04484Y04131*
X04479Y04142*
X04472Y04152*
X04462Y04159*
X04451Y04164*
X04440Y04165*
G37*
G36*
X02644Y04064D02*
X02613D01*
X02614Y04060*
X02617Y04051*
X02623Y04043*
X02631Y04037*
X02640Y04034*
X02644Y04033*
Y04064*
G37*
G36*
X02686D02*
X02655D01*
Y04033*
X02659Y04034*
X02668Y04037*
X02676Y04043*
X02682Y04051*
X02685Y04060*
X02686Y04064*
G37*
G36*
X04540Y04165D02*
X04528Y04164D01*
X04517Y04159*
X04507Y04152*
X04500Y04142*
X04495Y04131*
X04494Y04120*
X04495Y04108*
X04500Y04097*
X04507Y04087*
X04517Y04080*
X04528Y04075*
X04540Y04074*
X04551Y04075*
X04562Y04080*
X04572Y04087*
X04579Y04097*
X04584Y04108*
X04585Y04120*
X04584Y04131*
X04579Y04142*
X04572Y04152*
X04562Y04159*
X04551Y04164*
X04540Y04165*
G37*
G36*
X04234Y04114D02*
X04199D01*
X04199Y04109*
X04203Y04099*
X04210Y04090*
X04219Y04083*
X04229Y04079*
X04234Y04079*
Y04114*
G37*
G36*
X04334D02*
X04299D01*
X04299Y04109*
X04303Y04099*
X04310Y04090*
X04319Y04083*
X04329Y04079*
X04334Y04079*
Y04114*
G37*
G36*
X02644Y04106D02*
X02640Y04105D01*
X02631Y04102*
X02623Y04096*
X02617Y04088*
X02614Y04079*
X02613Y04075*
X02644*
Y04106*
G37*
G36*
X02655D02*
Y04075D01*
X02686*
X02685Y04079*
X02682Y04088*
X02676Y04096*
X02668Y04102*
X02659Y04105*
X02655Y04106*
G37*
G36*
X03845Y04516D02*
X03754D01*
Y04425*
X03845*
Y04516*
G37*
G36*
X03345Y04649D02*
Y04614D01*
X03380*
X03380Y04619*
X03376Y04629*
X03369Y04638*
X03360Y04645*
X03350Y04649*
X03345Y04649*
G37*
G36*
X03805D02*
Y04614D01*
X03840*
X03840Y04619*
X03836Y04629*
X03829Y04638*
X03820Y04645*
X03810Y04649*
X03805Y04649*
G37*
G36*
X03334D02*
X03329Y04649D01*
X03319Y04645*
X03310Y04638*
X03303Y04629*
X03299Y04619*
X03299Y04614*
X03334*
Y04649*
G37*
G36*
X03794D02*
X03789Y04649D01*
X03779Y04645*
X03770Y04638*
X03763Y04629*
X03759Y04619*
X03759Y04614*
X03794*
Y04649*
G37*
G36*
X04452Y04917D02*
X04433Y04915D01*
X04415Y04909*
X04399Y04901*
X04385Y04889*
X04373Y04874*
X04364Y04858*
X04359Y04840*
X04357Y04822*
X04359Y04803*
X04364Y04785*
X04373Y04769*
X04385Y04755*
X04399Y04743*
X04415Y04734*
X04433Y04729*
X04452Y04727*
X04470Y04729*
X04488Y04734*
X04505Y04743*
X04519Y04755*
X04531Y04769*
X04539Y04785*
X04545Y04803*
X04547Y04822*
X04545Y04840*
X04539Y04858*
X04531Y04874*
X04519Y04889*
X04505Y04901*
X04488Y04909*
X04470Y04915*
X04452Y04917*
G37*
G36*
X03520Y04985D02*
X03508Y04984D01*
X03497Y04979*
X03487Y04972*
X03480Y04962*
X03475Y04951*
X03474Y04940*
X03475Y04928*
X03480Y04917*
X03487Y04907*
X03497Y04900*
X03508Y04895*
X03520Y04894*
X03531Y04895*
X03542Y04900*
X03552Y04907*
X03559Y04917*
X03564Y04928*
X03565Y04940*
X03564Y04951*
X03559Y04962*
X03552Y04972*
X03542Y04979*
X03531Y04984*
X03520Y04985*
G37*
G36*
X03665Y04985D02*
X03574D01*
Y04894*
X03665*
Y04985*
G37*
G36*
X03060Y04986D02*
X03047Y04984D01*
X03035Y04979*
X03025Y04972*
X03017Y04962*
X03013Y04950*
X03011Y04937*
X03013Y04925*
X03017Y04913*
X03025Y04903*
X03035Y04895*
X03047Y04890*
X03060Y04889*
X03072Y04890*
X03084Y04895*
X03094Y04903*
X03102Y04913*
X03107Y04925*
X03108Y04937*
X03107Y04950*
X03102Y04962*
X03094Y04972*
X03084Y04979*
X03072Y04984*
X03060Y04986*
G37*
G36*
X04100D02*
X04087Y04984D01*
X04075Y04979*
X04065Y04972*
X04057Y04962*
X04053Y04950*
X04051Y04937*
X04053Y04925*
X04057Y04913*
X04065Y04903*
X04075Y04895*
X04087Y04890*
X04100Y04889*
X04112Y04890*
X04124Y04895*
X04134Y04903*
X04142Y04913*
X04147Y04925*
X04148Y04937*
X04147Y04950*
X04142Y04962*
X04134Y04972*
X04124Y04979*
X04112Y04984*
X04100Y04986*
G37*
G36*
X03054Y04516D02*
X03016D01*
X03016Y04510*
X03021Y04500*
X03028Y04490*
X03037Y04483*
X03048Y04479*
X03054Y04478*
Y04516*
G37*
G36*
Y04566D02*
X03048Y04565D01*
X03037Y04561*
X03028Y04553*
X03021Y04544*
X03016Y04533*
X03016Y04528*
X03054*
Y04566*
G37*
G36*
X04100Y04571D02*
X04087Y04569D01*
X04075Y04564*
X04065Y04556*
X04057Y04546*
X04053Y04534*
X04051Y04522*
X04053Y04509*
X04057Y04498*
X04065Y04487*
X04075Y04480*
X04087Y04475*
X04100Y04473*
X04112Y04475*
X04124Y04480*
X04134Y04487*
X04142Y04498*
X04147Y04509*
X04148Y04522*
X04147Y04534*
X04142Y04546*
X04134Y04556*
X04124Y04564*
X04112Y04569*
X04100Y04571*
G37*
G36*
X03103Y04516D02*
X03065D01*
Y04478*
X03071Y04479*
X03082Y04483*
X03091Y04490*
X03098Y04500*
X03103Y04510*
X03103Y04516*
G37*
G36*
X03065Y04566D02*
Y04528D01*
X03103*
X03103Y04533*
X03098Y04544*
X03091Y04553*
X03082Y04561*
X03071Y04565*
X03065Y04566*
G37*
G36*
X03380Y04603D02*
X03345D01*
Y04568*
X03350Y04568*
X03360Y04572*
X03369Y04579*
X03376Y04588*
X03380Y04598*
X03380Y04603*
G37*
G36*
X03840D02*
X03805D01*
Y04568*
X03810Y04568*
X03820Y04572*
X03829Y04579*
X03836Y04588*
X03840Y04598*
X03840Y04603*
G37*
G36*
X03334D02*
X03299D01*
X03299Y04598*
X03303Y04588*
X03310Y04579*
X03319Y04572*
X03329Y04568*
X03334Y04568*
Y04603*
G37*
G36*
X03794D02*
X03759D01*
X03759Y04598*
X03763Y04588*
X03770Y04579*
X03779Y04572*
X03789Y04568*
X03794Y04568*
Y04603*
G37*
G36*
X03770Y04375D02*
X03755Y04373D01*
X03742Y04368*
X03730Y04359*
X03630Y04259*
X03621Y04247*
X03616Y04234*
X03614Y04220*
Y03823*
X03557Y03765*
X03250*
X03235Y03763*
X03222Y03758*
X03210Y03749*
X03135Y03673*
X03131Y03677*
X03133Y03679*
X03137Y03689*
X03137Y03693*
X03100*
X03062*
X03062Y03689*
X03066Y03679*
X03072Y03671*
X03080Y03665*
X03090Y03661*
X03093Y03661*
X03092Y03656*
X03022*
X02790Y03887*
X02779Y03896*
X02766Y03902*
X02751Y03904*
X02268*
X02254Y03902*
X02240Y03896*
X02229Y03887*
X02060Y03719*
X02051Y03707*
X02046Y03694*
X02044Y03680*
Y03520*
X02046Y03505*
X02051Y03492*
X02060Y03480*
X02072Y03471*
X02085Y03466*
X02100Y03464*
X02114Y03466*
X02127Y03471*
X02139Y03480*
X02148Y03492*
X02153Y03505*
X02155Y03520*
Y03657*
X02291Y03792*
X02728*
X02778Y03742*
X02776Y03737*
X02770Y03736*
X02760Y03732*
X02752Y03726*
X02746Y03718*
X02742Y03709*
X02742Y03705*
X02780*
Y03699*
X02785*
Y03661*
X02790Y03661*
X02799Y03665*
X02807Y03671*
X02813Y03679*
X02817Y03689*
X02818Y03696*
X02823Y03697*
X02959Y03561*
X02971Y03552*
X02984Y03547*
X02999Y03545*
X03140*
X03153Y03546*
X03155Y03542*
X02901Y03288*
X02897Y03282*
X02895Y03276*
X02894Y03270*
Y03011*
X02890Y03009*
X02884Y03000*
X02880Y02990*
X02878Y02980*
X02880Y02969*
X02884Y02959*
X02890Y02950*
X02899Y02944*
X02909Y02940*
X02920Y02938*
X02930Y02940*
X02940Y02944*
X02949Y02950*
X02955Y02959*
X02959Y02969*
X02961Y02980*
X02959Y02990*
X02955Y03000*
X02949Y03009*
X02945Y03011*
Y03259*
X03051Y03365*
X03056Y03362*
X03054Y03358*
X03054Y03355*
X03084*
Y03385*
X03080Y03384*
X03076Y03383*
X03073Y03387*
X03290Y03604*
X03690*
X03696Y03605*
X03702Y03607*
X03708Y03611*
X03829Y03733*
X03834Y03731*
Y03530*
X03835Y03520*
X03839Y03512*
X03844Y03504*
X03895Y03454*
X03895Y03448*
X03900Y03437*
X03904Y03432*
Y03304*
X03844Y03245*
X03839Y03237*
X03835Y03229*
X03834Y03220*
Y02870*
X03835Y02860*
X03839Y02852*
X03844Y02844*
X03895Y02794*
X03895Y02788*
X03900Y02777*
X03907Y02767*
X03917Y02760*
X03928Y02755*
X03940Y02754*
X03951Y02755*
X03958Y02758*
X03963Y02755*
Y02720*
X03921Y02678*
X03917Y02672*
X03915Y02666*
X03914Y02660*
Y02537*
X03907Y02532*
X03900Y02522*
X03895Y02511*
X03894Y02500*
X03895Y02488*
X03900Y02477*
X03902Y02474*
X03904Y02470*
Y02396*
X03908*
Y02372*
X03940*
X03971*
Y02396*
X03975*
Y02470*
X03977Y02474*
X03979Y02477*
X03984Y02488*
X03985Y02500*
X03984Y02511*
X03979Y02522*
X03972Y02532*
X03965Y02537*
Y02649*
X04007Y02691*
X04011Y02696*
X04014Y02702*
X04015Y02709*
Y02755*
X04020Y02759*
X04028Y02755*
X04040Y02754*
X04051Y02755*
X04062Y02760*
X04072Y02767*
X04079Y02777*
X04084Y02788*
X04085Y02800*
X04084Y02811*
X04079Y02822*
X04072Y02832*
X04062Y02839*
X04051Y02844*
X04040Y02845*
X04028Y02844*
X04020Y02840*
X04015Y02844*
Y02870*
X04014Y02877*
X04011Y02883*
X04007Y02888*
X03965Y02930*
Y03122*
X03972Y03127*
X03979Y03137*
X03984Y03148*
X03985Y03160*
X03984Y03171*
X03979Y03182*
X03972Y03192*
X03972Y03195*
X04007Y03231*
X04009Y03233*
X04014Y03231*
Y03197*
X04007Y03192*
X04000Y03182*
X03995Y03171*
X03994Y03160*
X03995Y03148*
X04000Y03137*
X04007Y03127*
X04017Y03120*
X04028Y03115*
X04040Y03114*
X04051Y03115*
X04062Y03120*
X04072Y03127*
X04079Y03137*
X04084Y03148*
X04085Y03160*
X04084Y03171*
X04079Y03182*
X04072Y03192*
X04065Y03197*
Y03319*
X04108Y03361*
X04112Y03367*
X04114Y03373*
X04115Y03380*
Y03415*
X04120Y03418*
X04128Y03415*
X04140Y03414*
X04151Y03415*
X04162Y03420*
X04172Y03427*
X04179Y03437*
X04184Y03448*
X04185Y03460*
X04184Y03471*
X04179Y03482*
X04172Y03492*
X04162Y03499*
X04151Y03504*
X04140Y03505*
X04128Y03504*
X04120Y03501*
X04115Y03504*
Y03618*
X04119Y03620*
X04125Y03629*
X04129Y03639*
X04131Y03650*
X04129Y03660*
X04125Y03670*
X04119Y03679*
X04110Y03685*
X04100Y03689*
X04090Y03691*
X04079Y03689*
X04069Y03685*
X04060Y03679*
X04060Y03678*
X04055Y03680*
Y03688*
X04059Y03690*
X04065Y03699*
X04069Y03709*
X04071Y03720*
X04069Y03730*
X04065Y03740*
X04059Y03749*
X04050Y03755*
X04040Y03759*
X04030Y03761*
X04019Y03759*
X04009Y03755*
X04000Y03749*
X03994Y03740*
X03990Y03730*
X03988Y03720*
X03990Y03709*
X03994Y03699*
X04000Y03690*
X04004Y03688*
Y03548*
X03999Y03546*
X03965Y03580*
Y03782*
X03972Y03787*
X03979Y03797*
X03984Y03808*
X03985Y03820*
X03984Y03831*
X03979Y03842*
X03972Y03852*
X03962Y03859*
X03951Y03864*
X03940Y03865*
X03928Y03864*
X03917Y03859*
X03910Y03854*
X03905Y03857*
Y03885*
X03965Y03944*
X03971Y03952*
X03974Y03960*
X03975Y03970*
Y04092*
X03979Y04097*
X03984Y04108*
X03985Y04120*
X03984Y04131*
X03979Y04142*
X03972Y04152*
X03962Y04159*
X03951Y04164*
X03940Y04165*
X03928Y04164*
X03917Y04159*
X03907Y04152*
X03900Y04142*
X03895Y04131*
X03894Y04120*
X03895Y04108*
X03900Y04097*
X03904Y04092*
Y03984*
X03860Y03941*
X03856Y03943*
Y04136*
X03904Y04184*
X04009*
X04014Y04179*
Y04157*
X04007Y04152*
X04000Y04142*
X03995Y04131*
X03994Y04120*
X03995Y04108*
X04000Y04097*
X04007Y04087*
X04017Y04080*
X04028Y04075*
X04040Y04074*
X04051Y04075*
X04062Y04080*
X04072Y04087*
X04079Y04097*
X04084Y04108*
X04085Y04120*
X04084Y04131*
X04079Y04142*
X04072Y04152*
X04065Y04157*
Y04190*
X04064Y04196*
X04062Y04202*
X04058Y04208*
X04038Y04228*
X04032Y04232*
X04026Y04234*
X04020Y04235*
X03893*
X03887Y04234*
X03880Y04232*
X03875Y04228*
X03812Y04165*
X03808Y04159*
X03805Y04153*
X03804Y04146*
Y03781*
X03679Y03655*
X03606*
X03605Y03660*
X03607Y03661*
X03619Y03670*
X03709Y03760*
X03718Y03772*
X03723Y03785*
X03725Y03800*
Y04197*
X03793Y04264*
X04647*
X04674Y04237*
Y04165*
X04594*
Y04074*
X04614*
Y03940*
X04572Y03898*
X04568Y03893*
X04565Y03887*
X04564Y03880*
Y03864*
X04559Y03860*
X04551Y03864*
X04540Y03865*
X04528Y03864*
X04517Y03859*
X04507Y03852*
X04500Y03842*
X04495Y03831*
X04494Y03820*
X04495Y03808*
X04500Y03797*
X04507Y03787*
X04517Y03780*
X04528Y03775*
X04540Y03774*
X04551Y03775*
X04559Y03779*
X04564Y03775*
Y03760*
X04565Y03754*
X04568Y03747*
X04572Y03742*
X04614Y03700*
Y03505*
X04594*
Y03414*
X04614*
Y03290*
X04572Y03248*
X04570Y03246*
X04565Y03248*
Y03422*
X04572Y03427*
X04579Y03437*
X04584Y03448*
X04585Y03460*
X04584Y03471*
X04579Y03482*
X04572Y03492*
X04562Y03499*
X04551Y03504*
X04540Y03505*
X04528Y03504*
X04517Y03499*
X04507Y03492*
X04500Y03482*
X04495Y03471*
X04494Y03460*
X04495Y03448*
X04500Y03437*
X04507Y03427*
X04514Y03422*
Y03240*
X04472Y03198*
X04469Y03194*
X04462Y03199*
X04451Y03204*
X04440Y03205*
X04428Y03204*
X04417Y03199*
X04407Y03192*
X04400Y03182*
X04395Y03171*
X04394Y03160*
X04395Y03148*
X04400Y03137*
X04407Y03127*
X04417Y03120*
X04428Y03115*
X04440Y03114*
X04451Y03115*
X04459Y03119*
X04464Y03115*
Y02844*
X04459Y02840*
X04451Y02844*
X04440Y02845*
X04428Y02844*
X04417Y02839*
X04407Y02832*
X04400Y02822*
X04395Y02811*
X04394Y02800*
X04395Y02788*
X04400Y02777*
X04407Y02767*
X04417Y02760*
X04428Y02755*
X04440Y02754*
X04451Y02755*
X04459Y02759*
X04464Y02755*
Y02544*
X04459Y02540*
X04451Y02544*
X04440Y02545*
X04428Y02544*
X04417Y02539*
X04407Y02532*
X04400Y02522*
X04395Y02511*
X04395Y02505*
X04386Y02496*
X04381Y02498*
X04381Y02500*
X04380Y02510*
X04376Y02520*
X04369Y02529*
X04360Y02536*
X04350Y02540*
X04345Y02540*
Y02500*
X04340*
Y02494*
X04299*
X04299Y02489*
X04303Y02479*
X04310Y02470*
X04319Y02463*
X04329Y02459*
X04340Y02458*
X04341Y02458*
X04343Y02454*
X04145Y02255*
X03860*
X03850Y02254*
X03842Y02251*
X03834Y02245*
X03555Y01965*
X03510*
X03500Y01969*
X03490Y01971*
X03479Y01969*
X03469Y01965*
X03460Y01959*
X03454Y01950*
X03450Y01940*
X03448Y01930*
X03450Y01919*
X03454Y01909*
X03460Y01900*
X03469Y01894*
X03479Y01890*
X03490Y01888*
X03500Y01890*
X03510Y01894*
X03570*
X03579Y01895*
X03587Y01899*
X03595Y01904*
X03874Y02184*
X04160*
X04169Y02185*
X04177Y02189*
X04185Y02194*
X04445Y02455*
X04451Y02455*
X04459Y02459*
X04464Y02455*
Y02331*
X04169Y02035*
X03798*
X03791Y02034*
X03785Y02032*
X03779Y02028*
X03617Y01865*
X03460*
X03405Y01920*
Y02390*
X03404Y02396*
X03402Y02402*
X03398Y02408*
X03298Y02508*
X03292Y02512*
X03286Y02514*
X03280Y02515*
X03222*
X03221Y02520*
X03230Y02524*
X03239Y02530*
X03245Y02539*
X03249Y02549*
X03251Y02560*
X03249Y02570*
X03245Y02580*
X03239Y02589*
X03230Y02595*
X03220Y02599*
X03210Y02601*
X03199Y02599*
X03189Y02595*
X03180Y02589*
X03178Y02585*
X02461*
X02459Y02589*
X02450Y02595*
X02440Y02599*
X02430Y02601*
X02419Y02599*
X02409Y02595*
X02400Y02589*
X02394Y02580*
X02390Y02570*
X02388Y02560*
X02390Y02549*
X02394Y02539*
X02400Y02530*
X02409Y02524*
X02419Y02520*
X02430Y02518*
X02440Y02520*
X02450Y02524*
X02459Y02530*
X02461Y02534*
X03178*
X03180Y02530*
X03189Y02524*
X03198Y02520*
X03197Y02515*
X02570*
X02563Y02514*
X02557Y02512*
X02551Y02508*
X02451Y02408*
X02449Y02405*
X02449Y02405*
X02440Y02399*
X02434Y02390*
X02430Y02380*
X02428Y02370*
X02430Y02359*
X02434Y02349*
X02440Y02340*
X02449Y02334*
X02459Y02330*
X02470Y02328*
X02480Y02330*
X02490Y02334*
X02499Y02340*
X02500*
X02509Y02334*
X02519Y02330*
X02530Y02328*
X02540Y02330*
X02550Y02334*
X02559Y02340*
X02565Y02349*
X02569Y02359*
X02571Y02370*
X02570Y02374*
X02630Y02434*
X03218*
X03219Y02433*
X03220Y02431*
X03217Y02426*
X03210Y02425*
X03201Y02422*
X03193Y02416*
X03187Y02408*
X03184Y02399*
X03183Y02395*
X03220*
Y02390*
X03225*
Y02353*
X03229Y02354*
X03238Y02357*
X03246Y02363*
X03252Y02371*
X03255Y02380*
X03257Y02389*
X03260Y02391*
X03261Y02392*
X03314Y02339*
Y01890*
X03314Y01885*
X03310Y01883*
X03307Y01886*
X03298Y01893*
X03287Y01898*
X03275Y01899*
X03263Y01898*
X03252Y01893*
X03242Y01886*
X03235Y01876*
X03230Y01865*
X03228Y01853*
X03230Y01841*
X03235Y01830*
X03242Y01821*
X03252Y01813*
X03263Y01809*
X03275Y01807*
X03287Y01809*
X03298Y01813*
X03307Y01821*
X03315Y01830*
X03319Y01841*
X03321Y01853*
X03319Y01865*
X03318Y01867*
X03323Y01870*
X03401Y01791*
X03407Y01787*
X03413Y01785*
X03420Y01784*
X03640*
X03646Y01785*
X03652Y01787*
X03658Y01791*
X03810Y01944*
X04190*
X04196Y01945*
X04202Y01947*
X04208Y01951*
X04608Y02351*
X04612Y02357*
X04614Y02363*
X04615Y02370*
Y02451*
X04620Y02453*
X04622Y02451*
X04635Y02446*
X04650Y02444*
X04730*
X04744Y02446*
X04757Y02451*
X04769Y02460*
X04778Y02472*
X04783Y02485*
X04785Y02500*
Y03160*
Y03820*
Y04260*
X04783Y04274*
X04778Y04287*
X04769Y04299*
X04709Y04359*
X04697Y04368*
X04684Y04373*
X04670Y04375*
X03770*
G37*
G36*
X04280Y03454D02*
X04245D01*
Y03419*
X04250Y03419*
X04260Y03423*
X04269Y03430*
X04276Y03439*
X04280Y03449*
X04280Y03454*
G37*
G36*
X04380D02*
X04345D01*
Y03419*
X04350Y03419*
X04360Y03423*
X04369Y03430*
X04376Y03439*
X04380Y03449*
X04380Y03454*
G37*
G36*
X04234D02*
X04199D01*
X04199Y03449*
X04203Y03439*
X04210Y03430*
X04219Y03423*
X04229Y03419*
X04234Y03419*
Y03454*
G37*
G36*
X04334D02*
X04299D01*
X04299Y03449*
X04303Y03439*
X04310Y03430*
X04319Y03423*
X04329Y03419*
X04334Y03419*
Y03454*
G37*
G36*
X03710Y03551D02*
X03699Y03549D01*
X03689Y03545*
X03680Y03539*
X03674Y03530*
X03670Y03520*
X03668Y03510*
X03670Y03501*
X03620Y03452*
X03615Y03454*
Y03478*
X03619Y03480*
X03625Y03489*
X03629Y03499*
X03631Y03510*
X03629Y03520*
X03625Y03530*
X03619Y03539*
X03610Y03545*
X03600Y03549*
X03590Y03551*
X03579Y03549*
X03569Y03545*
X03560Y03539*
X03554Y03530*
X03550Y03520*
X03548Y03510*
X03550Y03499*
X03554Y03489*
X03560Y03480*
X03564Y03478*
Y03450*
X03564Y03445*
X03552Y03433*
X03512*
Y03459*
X03496*
X03438Y03518*
X03432Y03522*
X03426Y03524*
X03421Y03525*
X03419Y03529*
X03410Y03535*
X03400Y03539*
X03390Y03541*
X03379Y03539*
X03369Y03535*
X03360Y03529*
X03354Y03520*
X03350Y03510*
X03348Y03500*
X03350Y03489*
X03354Y03479*
X03360Y03470*
X03369Y03464*
X03379Y03460*
X03390Y03458*
X03400Y03460*
X03410Y03464*
X03415Y03468*
X03441Y03442*
Y03414*
Y03382*
X03430*
Y03395*
X03356*
Y03391*
X03332*
Y03360*
X03326*
Y03354*
X03293*
Y03328*
Y03305*
X03326*
Y03300*
X03332*
Y03268*
X03356*
Y03264*
X03430*
Y03287*
X03441*
Y03238*
X03424*
Y03233*
X03350*
X03340Y03237*
X03330Y03238*
X03319Y03237*
X03309Y03233*
X03300Y03226*
X03294Y03218*
X03290Y03208*
X03288Y03197*
X03290Y03186*
X03294Y03176*
X03300Y03168*
X03309Y03161*
X03319Y03157*
X03330Y03156*
X03340Y03157*
X03350Y03161*
X03424*
Y03156*
X03428*
Y03128*
X03511*
Y03156*
X03515*
Y03161*
X03534*
Y03156*
X03538*
Y03128*
X03621*
Y03156*
X03625*
Y03161*
X03630Y03163*
X03634Y03159*
Y03010*
X03549Y02925*
X03370*
X03363Y02924*
X03357Y02922*
X03351Y02918*
X03311Y02878*
X03307Y02872*
X03305Y02866*
X03304Y02860*
Y02690*
X03305Y02683*
X03307Y02677*
X03311Y02671*
X03341Y02641*
X03347Y02637*
X03353Y02635*
X03360Y02634*
X03510*
X03516Y02635*
X03522Y02637*
X03528Y02641*
X03531Y02645*
X03540Y02644*
X03551Y02645*
X03562Y02650*
X03572Y02657*
X03579Y02667*
X03584Y02678*
X03585Y02690*
X03584Y02701*
X03579Y02712*
X03572Y02722*
X03562Y02729*
X03551Y02734*
X03540Y02735*
X03528Y02734*
X03517Y02729*
X03507Y02722*
X03500Y02712*
X03495Y02701*
X03494Y02690*
X03494Y02689*
X03491Y02685*
X03450*
X03448Y02690*
X03449Y02690*
X03455Y02699*
X03459Y02709*
X03461Y02720*
X03459Y02730*
X03455Y02740*
X03451Y02746*
X03449Y02750*
X03451Y02753*
X03454Y02757*
X03520*
X03528Y02759*
X03535Y02764*
X03727Y02956*
X03732Y02963*
X03733Y02971*
Y03189*
X03732Y03197*
X03727Y03204*
X03701Y03230*
X03703Y03235*
X03736*
Y03252*
X03737Y03253*
X03741Y03254*
X03749Y03247*
X03759Y03243*
X03770Y03242*
X03780Y03243*
X03790Y03247*
X03799Y03254*
X03805Y03262*
X03809Y03272*
X03811Y03283*
X03809Y03294*
X03805Y03304*
X03799Y03312*
X03790Y03319*
X03780Y03323*
X03770Y03324*
X03759Y03323*
X03749Y03319*
X03741Y03312*
X03739Y03313*
X03736Y03314*
Y03363*
Y03388*
Y03414*
Y03459*
X03697*
X03695Y03464*
X03701Y03470*
X03710Y03468*
X03720Y03470*
X03730Y03474*
X03739Y03480*
X03745Y03489*
X03749Y03499*
X03751Y03510*
X03749Y03520*
X03745Y03530*
X03739Y03539*
X03730Y03545*
X03720Y03549*
X03710Y03551*
G37*
G36*
X04245Y03500D02*
Y03465D01*
X04280*
X04280Y03470*
X04276Y03480*
X04269Y03489*
X04260Y03496*
X04250Y03500*
X04245Y03500*
G37*
G36*
X04345D02*
Y03465D01*
X04380*
X04380Y03470*
X04376Y03480*
X04369Y03489*
X04360Y03496*
X04350Y03500*
X04345Y03500*
G37*
G36*
X04234D02*
X04229Y03500D01*
X04219Y03496*
X04210Y03489*
X04203Y03480*
X04199Y03470*
X04199Y03465*
X04234*
Y03500*
G37*
G36*
X04334D02*
X04329Y03500D01*
X04319Y03496*
X04310Y03489*
X04303Y03480*
X04299Y03470*
X04299Y03465*
X04334*
Y03500*
G37*
G36*
X02785Y03385D02*
Y03355D01*
X02816*
X02815Y03358*
X02811Y03367*
X02806Y03375*
X02798Y03381*
X02789Y03384*
X02785Y03385*
G37*
G36*
X03095D02*
Y03355D01*
X03126*
X03125Y03358*
X03121Y03367*
X03116Y03375*
X03108Y03381*
X03099Y03384*
X03095Y03385*
G37*
G36*
X02586Y03344D02*
X02555D01*
Y03313*
X02559Y03314*
X02568Y03317*
X02576Y03323*
X02582Y03331*
X02585Y03340*
X02586Y03344*
G37*
G36*
X02774Y03385D02*
X02770Y03384D01*
X02761Y03381*
X02754Y03375*
X02748Y03367*
X02744Y03358*
X02744Y03355*
X02774*
Y03385*
G37*
G36*
X02544Y03386D02*
X02540Y03385D01*
X02531Y03382*
X02523Y03376*
X02517Y03368*
X02514Y03359*
X02513Y03355*
X02544*
Y03386*
G37*
G36*
X05200Y03495D02*
X05188Y03494D01*
X05177Y03489*
X05167Y03482*
X05160Y03472*
X05155Y03461*
X05154Y03450*
X05155Y03438*
X05160Y03427*
X05167Y03417*
X05177Y03410*
X05188Y03405*
X05200Y03404*
X05211Y03405*
X05222Y03410*
X05232Y03417*
X05239Y03427*
X05244Y03438*
X05245Y03450*
X05244Y03461*
X05239Y03472*
X05232Y03482*
X05222Y03489*
X05211Y03494*
X05200Y03495*
G37*
G36*
X04440Y03505D02*
X04428Y03504D01*
X04417Y03499*
X04407Y03492*
X04400Y03482*
X04395Y03471*
X04394Y03460*
X04395Y03448*
X04400Y03437*
X04407Y03427*
X04417Y03420*
X04428Y03415*
X04440Y03414*
X04451Y03415*
X04462Y03420*
X04472Y03427*
X04479Y03437*
X04484Y03448*
X04485Y03460*
X04484Y03471*
X04479Y03482*
X04472Y03492*
X04462Y03499*
X04451Y03504*
X04440Y03505*
G37*
G36*
X02555Y03386D02*
Y03355D01*
X02586*
X02585Y03359*
X02582Y03368*
X02576Y03376*
X02568Y03382*
X02559Y03385*
X02555Y03386*
G37*
G36*
X03320Y03391D02*
X03293D01*
Y03365*
X03320*
Y03391*
G37*
G36*
X05200Y03595D02*
X05188Y03594D01*
X05177Y03589*
X05167Y03582*
X05160Y03572*
X05155Y03561*
X05154Y03550*
X05155Y03538*
X05160Y03527*
X05167Y03517*
X05177Y03510*
X05188Y03505*
X05200Y03504*
X05211Y03505*
X05222Y03510*
X05232Y03517*
X05239Y03527*
X05244Y03538*
X05245Y03550*
X05244Y03561*
X05239Y03572*
X05232Y03582*
X05222Y03589*
X05211Y03594*
X05200Y03595*
G37*
G36*
X04334Y03814D02*
X04299D01*
X04299Y03809*
X04303Y03799*
X04310Y03790*
X04319Y03783*
X04329Y03779*
X04334Y03779*
Y03814*
G37*
G36*
X04280D02*
X04245D01*
Y03779*
X04250Y03779*
X04260Y03783*
X04269Y03790*
X04276Y03799*
X04280Y03809*
X04280Y03814*
G37*
G36*
X04440Y03865D02*
X04428Y03864D01*
X04417Y03859*
X04407Y03852*
X04400Y03842*
X04395Y03831*
X04394Y03820*
X04395Y03808*
X04400Y03797*
X04407Y03787*
X04417Y03780*
X04428Y03775*
X04440Y03774*
X04451Y03775*
X04462Y03780*
X04472Y03787*
X04479Y03797*
X04484Y03808*
X04485Y03820*
X04484Y03831*
X04479Y03842*
X04472Y03852*
X04462Y03859*
X04451Y03864*
X04440Y03865*
G37*
G36*
X04234Y03814D02*
X04199D01*
X04199Y03809*
X04203Y03799*
X04210Y03790*
X04219Y03783*
X04229Y03779*
X04234Y03779*
Y03814*
G37*
G36*
X04380D02*
X04345D01*
Y03779*
X04350Y03779*
X04360Y03783*
X04369Y03790*
X04376Y03799*
X04380Y03809*
X04380Y03814*
G37*
G36*
X04245Y03860D02*
Y03825D01*
X04280*
X04280Y03830*
X04276Y03840*
X04269Y03849*
X04260Y03856*
X04250Y03860*
X04245Y03860*
G37*
G36*
X04345D02*
Y03825D01*
X04380*
X04380Y03830*
X04376Y03840*
X04369Y03849*
X04360Y03856*
X04350Y03860*
X04345Y03860*
G37*
G36*
X04234D02*
X04229Y03860D01*
X04219Y03856*
X04210Y03849*
X04203Y03840*
X04199Y03830*
X04199Y03825*
X04234*
Y03860*
G37*
G36*
X04334D02*
X04329Y03860D01*
X04319Y03856*
X04310Y03849*
X04303Y03840*
X04299Y03830*
X04299Y03825*
X04334*
Y03860*
G37*
G36*
X02270Y03697D02*
X02258Y03695D01*
X02247Y03691*
X02237Y03683*
X02230Y03674*
X02225Y03663*
X02224Y03651*
X02225Y03639*
X02230Y03628*
X02237Y03619*
X02247Y03612*
X02258Y03607*
X02270Y03605*
X02281Y03607*
X02292Y03612*
X02302Y03619*
X02309Y03628*
X02314Y03639*
X02315Y03651*
X02314Y03663*
X02309Y03674*
X02302Y03683*
X02292Y03691*
X02281Y03695*
X02270Y03697*
G37*
G36*
X02774Y03693D02*
X02742D01*
X02742Y03689*
X02746Y03679*
X02752Y03671*
X02760Y03665*
X02770Y03661*
X02774Y03661*
Y03693*
G37*
G36*
X02822Y03643D02*
X02737D01*
Y03558*
X02822*
Y03643*
G37*
G36*
X05200Y03695D02*
X05188Y03694D01*
X05177Y03689*
X05167Y03682*
X05160Y03672*
X05155Y03661*
X05154Y03650*
X05155Y03638*
X05160Y03627*
X05167Y03617*
X05177Y03610*
X05188Y03605*
X05200Y03604*
X05211Y03605*
X05222Y03610*
X05232Y03617*
X05239Y03627*
X05244Y03638*
X05245Y03650*
X05244Y03661*
X05239Y03672*
X05232Y03682*
X05222Y03689*
X05211Y03694*
X05200Y03695*
G37*
G36*
X05245Y03795D02*
X05154D01*
Y03704*
X05245*
Y03795*
G37*
G36*
X04040Y03865D02*
X04028Y03864D01*
X04017Y03859*
X04007Y03852*
X04000Y03842*
X03995Y03831*
X03994Y03820*
X03995Y03808*
X04000Y03797*
X04007Y03787*
X04017Y03780*
X04028Y03775*
X04040Y03774*
X04051Y03775*
X04062Y03780*
X04072Y03787*
X04079Y03797*
X04084Y03808*
X04085Y03820*
X04084Y03831*
X04079Y03842*
X04072Y03852*
X04062Y03859*
X04051Y03864*
X04040Y03865*
G37*
G36*
X04140D02*
X04128Y03864D01*
X04117Y03859*
X04107Y03852*
X04100Y03842*
X04095Y03831*
X04094Y03820*
X04095Y03808*
X04100Y03797*
X04107Y03787*
X04117Y03780*
X04128Y03775*
X04140Y03774*
X04151Y03775*
X04162Y03780*
X04172Y03787*
X04179Y03797*
X04184Y03808*
X04185Y03820*
X04184Y03831*
X04179Y03842*
X04172Y03852*
X04162Y03859*
X04151Y03864*
X04140Y03865*
G37*
G36*
X03094Y03737D02*
X03090Y03736D01*
X03080Y03732*
X03072Y03726*
X03066Y03718*
X03062Y03709*
X03062Y03705*
X03094*
Y03737*
G37*
G36*
X03105D02*
Y03705D01*
X03137*
X03137Y03709*
X03133Y03718*
X03127Y03726*
X03119Y03732*
X03110Y03736*
X03105Y03737*
G37*
%LNde-160516-3*%
%LPD*%
G54D10*
X03940Y02366D03*
Y02433D03*
G54D11*
X03580Y03122D03*
Y03197D03*
X03470Y03122D03*
Y03197D03*
G54D13*
X03393Y03300D03*
X03326D03*
X03393Y03360D03*
X03326D03*
G54D23*
X04490Y02320D02*
Y03180D01*
X04180Y02010D02*
X04490Y02320D01*
X03798Y02010D02*
X04180D01*
X03628Y01840D02*
X03798Y02010D01*
X03450Y01840D02*
X03628D01*
X03380Y01910D02*
X03450Y01840D01*
X03420Y01810D02*
X03640D01*
X03800Y01970*
X03340Y01890D02*
X03420Y01810D01*
X02620Y02460D02*
X03230D01*
X02530Y02370D02*
X02620Y02460D01*
X03230D02*
X03340Y02350D01*
X02570Y02490D02*
X03280D01*
X02470Y02390D02*
X02570Y02490D01*
X03280D02*
X03380Y02390D01*
X03280Y03630D02*
X03690D01*
X02920Y03270D02*
X03280Y03630D01*
X02920Y02980D02*
Y03270D01*
X03690Y03630D02*
X03830Y03770D01*
Y04146*
X03989Y02709D02*
Y02870D01*
X03940Y02660D02*
X03989Y02709D01*
X03940Y02500D02*
Y02660D01*
Y02433D02*
Y02500D01*
X03893Y04210D02*
X04020D01*
X03830Y04146D02*
X03893Y04210D01*
X03560Y02900D02*
X03660Y03000D01*
X03370Y02900D02*
X03560D01*
X03330Y02860D02*
X03370Y02900D01*
X03330Y02690D02*
Y02860D01*
X03580Y03197D02*
X03587Y03190D01*
X03577Y03200D02*
X03580Y03197D01*
X03587Y03190D02*
X03640D01*
X03660Y03170*
Y03000D02*
Y03170D01*
X03330Y02690D02*
X03360Y02660D01*
X03510*
X03540Y02690*
X02450Y02560D02*
X03210D01*
X02440Y02550D02*
X02450Y02560D01*
X02430D02*
X02440Y02550D01*
X03340Y01890D02*
Y02350D01*
X03380Y01910D02*
Y02390D01*
X04040Y03160D02*
Y03330D01*
X04090Y03380*
Y03650*
X04030Y03470D02*
Y03720D01*
Y03470D02*
X04040Y03460D01*
X03940Y03570D02*
X03989Y03520D01*
Y03249D02*
Y03520D01*
X03940Y03570D02*
Y03820D01*
X03390Y03500D02*
X03420D01*
X03480Y03440*
X02420Y02570D02*
X02430Y02560D01*
X02470Y02370D02*
Y02390D01*
X04490Y03180D02*
X04540Y03229D01*
Y03460*
X02520Y02380D02*
X02530Y02370D01*
X03800Y01970D02*
X04190D01*
X04590Y02370*
Y02970*
X04540Y03020D02*
X04590Y02970D01*
X04540Y03020D02*
Y03160D01*
X04020Y04210D02*
X04040Y04190D01*
Y04120D02*
Y04190D01*
X03940Y03200D02*
X03989Y03249D01*
X03940Y03160D02*
Y03200D01*
Y02920D02*
X03989Y02870D01*
X03940Y02920D02*
Y03160D01*
X04640Y03280D02*
Y03460D01*
X04590Y03230D02*
X04640Y03280D01*
X04590Y03100D02*
Y03230D01*
X04640Y03930D02*
Y04120D01*
X04590Y03880D02*
X04640Y03930D01*
X04590Y03760D02*
Y03880D01*
X03590Y03450D02*
Y03510D01*
X04640Y02800D02*
Y03051D01*
X04590Y03100D02*
X04640Y03051D01*
Y03460D02*
Y03711D01*
X04590Y03760D02*
X04640Y03711D01*
G54D24*
X03760Y02670D02*
Y02820D01*
Y02390D02*
Y02670D01*
X03820Y02330D02*
X04130D01*
X03710Y02870D02*
X03760Y02820D01*
Y02390D02*
X03820Y02330D01*
X03250Y03710D02*
X03580D01*
X03140Y03600D02*
X03250Y03710D01*
X03100Y03600D02*
X03140D01*
X04130Y02330D02*
X04240Y02440D01*
Y02500*
X03670Y03800D02*
Y04220D01*
X03580Y03710D02*
X03670Y03800D01*
Y04220D02*
X03770Y04320D01*
X04670*
X03060Y03739D02*
Y04050D01*
Y03739D02*
X03100Y03699D01*
X03040Y04070D02*
X03060Y04050D01*
Y04522*
X02650Y04070D02*
X03040D01*
X02100Y03520D02*
Y03680D01*
X02268Y03848*
X02270*
X02999Y03600D02*
X03100D01*
X02751Y03848D02*
X02999Y03600D01*
X02270Y03848D02*
X02751D01*
X04730Y02500D02*
Y03160D01*
X04650Y03820D02*
X04730D01*
Y04260*
Y03160D02*
Y03820D01*
X04670Y04320D02*
X04730Y04260D01*
X04650Y03160D02*
X04730D01*
X04650Y02500D02*
X04730D01*
X04340Y03160D02*
Y03460D01*
X04240D02*
X04340D01*
Y03820D02*
Y04120D01*
X04240Y03820D02*
Y04120D01*
Y03460D02*
Y03820D01*
Y03160D02*
Y03460D01*
Y04120D02*
X04340D01*
Y02800D02*
Y03160D01*
X04240Y02800D02*
Y03160D01*
Y02500D02*
Y02800D01*
Y02500D02*
X04340D01*
G54D25*
X03210Y02730D02*
X03320Y02620D01*
X03210Y02730D02*
Y03160D01*
X03750Y03570D02*
X03770Y03550D01*
X03340Y03570D02*
X03750D01*
X03210Y03440D02*
X03340Y03570D01*
X03210Y03349D02*
Y03440D01*
Y03160D02*
Y03349D01*
X03710Y02620D02*
X03760Y02670D01*
X03320Y02620D02*
X03710D01*
X03470Y03197D02*
X03574D01*
X03464D02*
X03470D01*
X03330D02*
X03464D01*
X03574D02*
X03577Y03200D01*
X03160Y02030D02*
X03210D01*
X02330D02*
X03160D01*
Y01780D02*
Y02030D01*
Y01780D02*
X03204Y01735D01*
X03275*
X02550Y02970D02*
Y03350D01*
Y02780D02*
Y02970D01*
X02250D02*
X02550D01*
X02110Y02830D02*
X02250Y02970D01*
X02110Y02250D02*
Y02830D01*
Y02250D02*
X02330Y02030D01*
X03210D02*
X03280Y02100D01*
Y02330*
X03220Y02390D02*
X03280Y02330D01*
X02340Y02170D02*
X03210D01*
X02190Y02320D02*
X02340Y02170D01*
X02190Y02320D02*
Y02770D01*
X02550Y02760D02*
Y02780D01*
X02400Y02610D02*
X02550Y02760D01*
X02300Y02610D02*
X02400D01*
X03770Y03360D02*
Y03550D01*
X03210Y03349D02*
X03315D01*
X03090D02*
X03210D01*
Y03160D02*
X03247Y03122D01*
X03870Y03530D02*
Y03900D01*
Y03530D02*
X03940Y03460D01*
X03464Y03197D02*
X03467Y03200D01*
X03470Y03197*
X03490Y01930D02*
X03570D01*
X03860Y02220*
X04160*
X04440Y02500*
X03315Y03349D02*
X03326Y03360D01*
X02190Y02770D02*
X02230Y02810D01*
X02300*
X03326Y03300D02*
Y03360D01*
X03470Y03122D02*
X03580D01*
X03247D02*
X03470D01*
X03870Y02870D02*
X03940Y02800D01*
X03870Y02870D02*
Y03220D01*
X03940Y03290*
Y03460*
X03870Y03900D02*
X03940Y03970D01*
Y04120*
G54D26*
X03560Y02230D02*
Y02470D01*
X03550Y02220D02*
X03560Y02230D01*
X03550Y02220D02*
X03560Y02210D01*
X03490Y02170D02*
Y02440D01*
G54D27*
X03905Y01853D03*
Y01735D03*
X03275Y01853D03*
Y01735D03*
G54D28*
X03540Y02690D03*
X02300Y02310D03*
Y02410D03*
Y02510D03*
Y02610D03*
Y02710D03*
X05200Y03650D03*
Y03450D03*
Y03350D03*
Y03250D03*
Y03150D03*
Y03050D03*
Y02950D03*
Y02850D03*
Y03550D03*
X03340Y04608D03*
X03520Y04940D03*
X02270Y03848D03*
Y03651D03*
Y04368D03*
Y04171D03*
X03800Y04608D03*
G54D29*
X03640Y02690D03*
X03620Y04940D03*
G54D30*
X04452Y04822D03*
X04450Y01835D03*
X01869Y03330D03*
G54D31*
X04640Y02800D03*
Y03460D03*
Y04120D03*
G54D32*
X04540Y02800D03*
X04440D03*
X04340D03*
X04240D03*
X04140D03*
X04040D03*
X03940D03*
X04640Y02500D03*
X04540D03*
X04440D03*
X04340D03*
X04240D03*
X04140D03*
X04040D03*
X03940D03*
X04540Y03460D03*
X04440D03*
X04340D03*
X04240D03*
X04140D03*
X04040D03*
X03940D03*
X04640Y03160D03*
X04540D03*
X04440D03*
X04340D03*
X04240D03*
X04140D03*
X04040D03*
X03940D03*
X04540Y04120D03*
X04440D03*
X04340D03*
X04240D03*
X04140D03*
X04040D03*
X03940D03*
X04640Y03820D03*
X04540D03*
X04440D03*
X04340D03*
X04240D03*
X04140D03*
X04040D03*
X03940D03*
G54D33*
X02300Y02810D03*
X05200Y03750D03*
X03340Y04471D03*
X03800D03*
G54D34*
X03100Y03600D03*
X02780D03*
G54D35*
X03100Y03699D03*
X02780D03*
G54D36*
X02780Y03349D03*
X03090D03*
G54D37*
X02780Y03250D03*
X03090D03*
G54D38*
X03060Y04937D03*
Y04522D03*
X04100Y04937D03*
Y04522D03*
G54D39*
X02920Y02980D03*
X02650Y04070D03*
X02100Y03520D03*
X03710Y02870D03*
X03210Y02560D03*
X03220Y02390D03*
X02550Y02780D03*
Y03350D03*
X04090Y03650D03*
X04030Y03720D03*
X03390Y03500D03*
X03330Y03197D03*
X02430Y02560D03*
X02470Y02370D03*
X02530D03*
X03560Y02470D03*
X03490Y02440D03*
X03770Y03283D03*
X03490Y01930D03*
X03560Y02210D03*
X03490Y02170D03*
X03210D03*
X03420Y02720D03*
Y02780D03*
X03710Y03510D03*
X03590D03*
G54D40*
X03476Y03257D03*
Y03283D03*
Y03309D03*
Y03334D03*
Y03360D03*
Y03385D03*
Y03411D03*
Y03437D03*
X03701Y03257D03*
Y03283D03*
Y03309D03*
Y03334D03*
Y03360D03*
Y03385D03*
Y03411D03*
Y03437D03*
G54D41*
X03669Y03360D02*
X03701D01*
X03638Y03329D02*
X03669Y03360D01*
X03580Y03197D02*
Y03270D01*
X03711Y02971D02*
Y03189D01*
X03660Y03240D02*
X03711Y03189D01*
X03660Y03240D02*
Y03320D01*
X03690Y02990D02*
Y03180D01*
X03638Y03231D02*
X03690Y03180D01*
X03638Y03231D02*
Y03329D01*
X03520Y02780D02*
X03711Y02971D01*
X03550Y02850D02*
X03690Y02990D01*
X03390Y02850D02*
X03550D01*
X03420Y02780D02*
X03520D01*
X03770Y03350D02*
Y03360D01*
X03729Y03309D02*
X03770Y03350D01*
X03701Y03309D02*
X03729D01*
X03701Y03283D02*
X03770D01*
X03360Y02820D02*
X03390Y02850D01*
X03360Y02740D02*
Y02820D01*
X03380Y02720D02*
X03420D01*
X03360Y02740D02*
X03380Y02720D01*
X03660Y03320D02*
X03674Y03334D01*
X03701*
X03585Y03385D02*
X03710Y03510D01*
X03476Y03385D02*
X03585D01*
X03561Y03411D02*
X03590Y03440D01*
X03476Y03411D02*
X03561D01*
X03590Y03440D02*
Y03450D01*
X03515Y03334D02*
X03580Y03270D01*
X03476Y03334D02*
X03515D01*
X03402Y03309D02*
X03476D01*
X03393Y03360D02*
X03476D01*
G54D42*
X03476Y03257D02*
Y03280D01*
Y03204D02*
Y03257D01*
M02*