%FSDAX23Y23*%
%MOIN*%
%SFA1B1*%

%IPPOS*%
%ADD46C,0.003900*%
%LNde-160516-1*%
%LPD*%
G54D46*
X03003Y02238D02*
D01*
X03003Y02240*
X03003Y02241*
X03003Y02242*
X03003Y02244*
X03002Y02245*
X03002Y02246*
X03001Y02248*
X03000Y02249*
X03000Y02250*
X02999Y02251*
X02998Y02252*
X02997Y02253*
X02996Y02254*
X02995Y02255*
X02994Y02255*
X02992Y02256*
X02991Y02257*
X02990Y02257*
X02988Y02258*
X02987Y02258*
X02986Y02258*
X02984Y02258*
X02983*
X02982Y02258*
X02980Y02258*
X02979Y02258*
X02978Y02257*
X02976Y02257*
X02975Y02256*
X02974Y02255*
X02973Y02255*
X02972Y02254*
X02971Y02253*
X02970Y02252*
X02969Y02251*
X02968Y02250*
X02967Y02249*
X02966Y02248*
X02966Y02246*
X02965Y02245*
X02965Y02244*
X02964Y02242*
X02964Y02241*
X02964Y02240*
X02964Y02238*
X02964Y02237*
X02964Y02236*
X02964Y02234*
X02965Y02233*
X02965Y02232*
X02966Y02230*
X02966Y02229*
X02967Y02228*
X02968Y02227*
X02969Y02226*
X02970Y02225*
X02971Y02224*
X02972Y02223*
X02973Y02222*
X02974Y02221*
X02975Y02221*
X02976Y02220*
X02978Y02220*
X02979Y02219*
X02980Y02219*
X02982Y02219*
X02983Y02219*
X02984*
X02986Y02219*
X02987Y02219*
X02988Y02219*
X02990Y02220*
X02991Y02220*
X02992Y02221*
X02994Y02221*
X02995Y02222*
X02996Y02223*
X02997Y02224*
X02998Y02225*
X02999Y02226*
X03000Y02227*
X03000Y02228*
X03001Y02229*
X03002Y02230*
X03002Y02232*
X03003Y02233*
X03003Y02234*
X03003Y02236*
X03003Y02237*
X03003Y02238*
X02938Y04251D02*
D01*
X02938Y04252*
X02938Y04253*
X02937Y04255*
X02937Y04256*
X02937Y04257*
X02936Y04259*
X02935Y04260*
X02935Y04261*
X02934Y04262*
X02933Y04263*
X02932Y04264*
X02931Y04265*
X02930Y04266*
X02929Y04267*
X02928Y04268*
X02927Y04268*
X02925Y04269*
X02924Y04269*
X02923Y04270*
X02922Y04270*
X02920Y04270*
X02919Y04270*
X02917*
X02916Y04270*
X02915Y04270*
X02913Y04270*
X02912Y04269*
X02911Y04269*
X02909Y04268*
X02908Y04268*
X02907Y04267*
X02906Y04266*
X02905Y04265*
X02904Y04264*
X02903Y04263*
X02902Y04262*
X02901Y04261*
X02901Y04260*
X02900Y04259*
X02900Y04257*
X02899Y04256*
X02899Y04255*
X02899Y04253*
X02898Y04252*
X02898Y04251*
X02898Y04249*
X02899Y04248*
X02899Y04246*
X02899Y04245*
X02900Y04244*
X02900Y04242*
X02901Y04241*
X02901Y04240*
X02902Y04239*
X02903Y04238*
X02904Y04237*
X02905Y04236*
X02906Y04235*
X02907Y04234*
X02908Y04233*
X02909Y04233*
X02911Y04232*
X02912Y04232*
X02913Y04231*
X02915Y04231*
X02916Y04231*
X02917Y04231*
X02919*
X02920Y04231*
X02922Y04231*
X02923Y04231*
X02924Y04232*
X02925Y04232*
X02927Y04233*
X02928Y04233*
X02929Y04234*
X02930Y04235*
X02931Y04236*
X02932Y04237*
X02933Y04238*
X02934Y04239*
X02935Y04240*
X02935Y04241*
X02936Y04242*
X02937Y04244*
X02937Y04245*
X02937Y04246*
X02938Y04248*
X02938Y04249*
X02938Y04251*
X03019Y02203D02*
Y02916D01*
X02720Y02203D02*
Y02916D01*
Y02203D02*
X03019D01*
X02720Y02916D02*
X03019D01*
X02883Y04093D02*
Y04286D01*
X03036Y04093D02*
Y04286D01*
X02883D02*
X03036D01*
X02883Y04093D02*
X03036D01*
X04974Y03769D02*
X05045D01*
X04974Y03730D02*
X05045D01*
Y03769*
X04974Y03730D02*
Y03769D01*
Y03669D02*
X05045D01*
X04974Y03630D02*
X05045D01*
Y03669*
X04974Y03630D02*
Y03669D01*
Y03569D02*
X05045D01*
X04974Y03530D02*
X05045D01*
Y03569*
X04974Y03530D02*
Y03569D01*
Y03469D02*
X05045D01*
X04974Y03430D02*
X05045D01*
Y03469*
X04974Y03430D02*
Y03469D01*
Y03369D02*
X05045D01*
X04974Y03330D02*
X05045D01*
Y03369*
X04974Y03330D02*
Y03369D01*
Y03269D02*
X05045D01*
X04974Y03230D02*
X05045D01*
Y03269*
X04974Y03230D02*
Y03269D01*
Y03169D02*
X05045D01*
X04974Y03130D02*
X05045D01*
Y03169*
X04974Y03130D02*
Y03169D01*
Y03069D02*
X05045D01*
X04974Y03030D02*
X05045D01*
Y03069*
X04974Y03030D02*
Y03069D01*
Y02969D02*
X05045D01*
X04974Y02930D02*
X05045D01*
Y02969*
X04974Y02930D02*
Y02969D01*
Y02869D02*
X05045D01*
X04974Y02830D02*
X05045D01*
Y02869*
X04974Y02830D02*
Y02869D01*
M02*